<?xml version="1.0" encoding="utf-8"?>
<!-- Generator: Adobe Illustrator 27.1.1, SVG Export Plug-In . SVG Version: 6.00 Build 0)  -->
<svg version="1.1" id="Layer_1" xmlns="http://www.w3.org/2000/svg" xmlns:xlink="http://www.w3.org/1999/xlink" x="0px" y="0px"
	 viewBox="0 0 820 256.04" style="enable-background:new 0 0 820 256.04;" xml:space="preserve">
<style type="text/css">
	.st0{fill-rule:evenodd;clip-rule:evenodd;fill:#FF9900;}
	.st1{fill-rule:evenodd;clip-rule:evenodd;}
</style>
<g>
	<path class="st0" d="M506.28,195.95c-46.32,34.25-113.68,52.49-171.79,52.49c-81.4,0-154.39-30.04-209.96-80
		c-4.21-3.93-0.56-9.26,4.77-6.18c59.79,34.81,133.61,55.58,209.96,55.58c51.37,0,108.07-10.67,160.28-32.84
		C507.4,181.92,513.86,190.34,506.28,195.95L506.28,195.95z"/>
	<path class="st0" d="M525.65,173.78c-5.89-7.58-39.3-3.65-54.18-1.68c-4.49,0.56-5.33-3.37-1.12-6.18
		c26.67-18.81,70.18-13.19,75.23-7.02c5.05,6.18-1.4,49.96-26.39,70.74c-3.93,3.09-7.58,1.4-5.89-2.81
		C518.91,212.79,531.54,181.64,525.65,173.78z"/>
	<path class="st1" d="M472.32,33.99V15.74c0-2.81,1.96-4.49,4.49-4.49h81.4c2.53,0,4.77,1.96,4.77,4.49v15.44
		c0,2.53-2.25,5.89-6.18,11.51l-42.11,60.07c15.72-0.28,32.28,1.96,46.32,9.82c3.09,1.68,3.93,4.49,4.21,7.02v19.37
		c0,2.81-2.81,5.89-5.89,4.21c-24.98-13.19-58.39-14.6-85.89,0.28c-2.81,1.4-5.89-1.4-5.89-4.21v-18.53c0-2.81,0-7.86,3.09-12.35
		l48.84-69.89h-42.39C474.56,38.48,472.32,36.51,472.32,33.99L472.32,33.99z M175.61,147.11h-24.7c-2.25-0.28-4.21-1.96-4.49-4.21
		V16.02c0-2.53,2.25-4.49,4.77-4.49h23.02c2.53,0,4.21,1.96,4.49,4.21V32.3h0.56c5.89-16,17.4-23.58,32.56-23.58
		c15.44,0,25.26,7.58,32,23.58c5.89-16,19.65-23.58,34.25-23.58c10.39,0,21.61,4.21,28.63,14.04c7.86,10.67,6.18,26.11,6.18,39.86
		v80.28c0,2.53-2.25,4.49-4.77,4.49h-24.42c-2.53-0.28-4.49-2.25-4.49-4.49V75.53c0-5.33,0.56-18.81-0.56-23.86
		c-1.96-8.42-7.3-10.95-14.6-10.95c-5.89,0-12.35,3.93-14.88,10.39c-2.53,6.46-2.25,17.12-2.25,24.42v67.37
		c0,2.53-2.25,4.49-4.77,4.49h-24.7c-2.53-0.28-4.49-2.25-4.49-4.49V75.53c0-14.04,2.25-35.09-15.16-35.09
		c-17.68,0-17.12,20.21-17.12,35.09v67.37C180.39,145.14,178.42,147.11,175.61,147.11L175.61,147.11z M633.16,8.72
		c36.77,0,56.7,31.44,56.7,71.58c0,38.74-21.89,69.61-56.7,69.61c-35.93,0-55.58-31.44-55.58-70.74
		C577.3,39.6,597.23,8.72,633.16,8.72L633.16,8.72z M633.16,34.83c-18.25,0-19.37,24.98-19.37,40.42s-0.28,48.56,19.09,48.56
		c19.09,0,20.21-26.67,20.21-42.95c0-10.67-0.56-23.58-3.65-33.68C646.63,38.2,641.02,34.83,633.16,34.83L633.16,34.83z
		 M737.3,147.11h-24.7c-2.53-0.28-4.49-2.25-4.49-4.49V15.46c0.28-2.25,2.25-4.21,4.77-4.21h23.02c2.25,0,3.93,1.68,4.49,3.65v19.37
		h0.56c7.02-17.4,16.56-25.54,33.68-25.54c10.95,0,21.89,3.93,28.91,14.88C810,33.71,810,50.83,810,63.18v80
		c-0.28,2.25-2.25,3.93-4.77,3.93h-24.7c-2.25-0.28-4.21-1.96-4.49-3.93V74.13c0-14.04,1.68-34.25-15.44-34.25
		c-5.89,0-11.51,3.93-14.32,10.11c-3.37,7.86-3.93,15.44-3.93,24.14v68.49C742.07,145.14,739.82,147.11,737.3,147.11L737.3,147.11z
		 M407.47,86.48c0,9.54,0.28,17.68-4.49,26.39c-3.93,7.02-10.11,11.23-17.12,11.23c-9.54,0-15.16-7.3-15.16-17.96
		c0-21.05,18.81-24.98,36.77-24.98V86.48z M432.46,146.83c-1.68,1.4-3.93,1.68-5.89,0.56c-8.14-6.74-9.82-10.11-14.32-16.56
		c-13.47,13.75-23.3,17.96-40.7,17.96c-20.77,0-37.05-12.91-37.05-38.46c0-20.21,10.95-33.68,26.39-40.42
		c13.47-5.89,32.28-7.02,46.6-8.7v-3.09c0-5.89,0.56-12.91-3.09-17.96c-3.09-4.49-8.7-6.46-13.75-6.46
		c-9.54,0-17.96,4.77-19.93,14.88c-0.56,2.25-1.96,4.49-4.21,4.49l-23.86-2.53c-1.96-0.56-4.21-1.96-3.65-5.05
		C344.6,16.3,370.7,7.6,394.28,7.6c12.07,0,27.79,3.09,37.33,12.35c12.07,11.23,10.95,26.39,10.95,42.67v38.46
		c0,11.51,4.77,16.56,9.26,23.02c1.68,2.25,1.96,5.05,0,6.46C446.49,134.76,437.51,142.62,432.46,146.83L432.46,146.83z
		 M83.26,86.48c0,9.54,0.28,17.68-4.49,26.39c-3.93,7.02-10.11,11.23-17.12,11.23c-9.54,0-15.16-7.3-15.16-17.96
		c0-21.05,18.81-24.98,36.77-24.98V86.48z M107.96,146.83c-1.68,1.4-3.93,1.68-5.89,0.56c-8.14-6.74-9.82-10.11-14.32-16.56
		c-13.47,13.75-23.3,17.96-40.7,17.96c-20.77,0-37.05-12.91-37.05-38.46c0-20.21,10.95-33.68,26.39-40.42
		c13.47-5.89,32.28-7.02,46.6-8.7v-3.09c0-5.89,0.56-12.91-3.09-17.96c-3.09-4.49-8.7-6.46-13.75-6.46
		c-9.54,0-17.96,4.77-19.93,14.88c-0.56,2.25-1.96,4.49-4.21,4.49l-23.86-2.53c-1.96-0.56-4.21-1.96-3.65-5.05
		C20.11,16.3,46.21,7.6,69.79,7.6c12.07,0,27.79,3.09,37.33,12.35c12.07,11.23,10.95,26.39,10.95,42.67v38.46
		c0,11.51,4.77,16.56,9.26,23.02c1.68,2.25,1.96,5.05,0,6.46C122,134.76,113.02,142.62,107.96,146.83L107.96,146.83z"/>
</g>
</svg>
