<svg width="45" height="46" viewBox="0 0 45 46" fill="none" xmlns="http://www.w3.org/2000/svg">
<path d="M11.1934 25.9175L12.1667 24.4574L32.6076 23.9707L34.0676 25.4308V39.058H11.1934V38.0846V25.9175Z" fill="#FFC907"/>
<mask id="path-2-inside-1_1376_3281" fill="white">
<path d="M0.00117655 42.8205C0.0705255 42.5983 0.116372 42.3668 0.212755 42.1564C0.608867 41.2866 1.29412 40.8293 2.24855 40.8035C2.91736 40.7859 3.58734 40.8 4.36311 40.8C4.101 40.539 3.90823 40.351 3.72016 40.157C2.6858 39.0909 2.31555 37.8309 2.73517 36.4004C3.48508 33.8451 4.22559 31.2839 5.0613 28.7556C5.87939 26.279 7.66483 24.8603 10.2331 24.4348C10.6421 24.3666 11.003 24.2702 11.3286 23.967C11.767 23.5568 12.33 23.3675 12.94 23.3652C14.0684 23.3605 15.198 23.3605 16.3264 23.3581C17.0939 23.3558 17.5888 22.9138 17.6781 22.1498C17.6793 22.1357 17.6781 22.1204 17.6816 22.1063C17.8909 21.2847 17.6664 20.7064 16.9764 20.1199C15.6776 19.0173 14.9465 17.5293 14.6597 15.839C14.6362 15.6968 14.6056 15.5558 14.575 15.3959C14.3623 15.3783 14.1578 15.3795 13.9591 15.343C13.0494 15.1773 12.37 14.4027 12.3312 13.4683C12.3089 12.9264 12.3089 12.3822 12.3335 11.8415C12.3629 11.2068 12.6321 10.6755 13.1645 10.3182C13.3914 10.1665 13.4525 9.99963 13.4513 9.74104C13.4396 8.24592 13.4408 6.74963 13.4466 5.25452C13.4549 3.18463 14.8748 1.85054 16.9329 1.98101C17.2268 1.99982 17.3748 1.9481 17.436 1.60958C17.5688 0.882006 18.5009 0.16971 19.393 0.161482C22.0459 0.137974 24.7035 0.079204 27.3529 0.180289C29.9058 0.277848 31.83 2.63336 31.629 5.20632C31.5949 5.63535 31.3563 5.89394 30.986 5.90099C30.6099 5.90922 30.3666 5.66473 30.3208 5.23336C30.2761 4.79728 30.2843 4.34828 30.1785 3.92748C29.82 2.49701 28.5412 1.48381 27.0649 1.47206C24.5871 1.45208 22.1094 1.46266 19.6316 1.46618C19.0627 1.46618 18.8277 1.65895 18.656 2.21139C18.4245 2.95777 17.7698 3.37739 16.9094 3.29276C16.4075 3.2434 15.942 3.30099 15.5295 3.60072C15.0805 3.92748 14.7843 4.36708 14.7772 4.9301C14.7596 6.54276 14.769 8.15542 14.769 9.76807C14.769 9.80804 14.7937 9.848 14.8054 9.88444C15.6928 10.0079 15.9279 9.79981 15.9385 8.92061C15.9432 8.45279 15.9244 7.97675 16.0043 7.51952C16.1712 6.56744 16.994 5.85867 17.9555 5.87866C18.6067 5.89276 19.2825 5.95153 19.8984 6.14665C21.7239 6.7226 23.5163 6.72025 25.3382 6.13724C25.8989 5.95741 26.5148 5.88453 27.106 5.87866C28.198 5.8669 29.0784 6.76961 29.1195 7.86039C29.1324 8.21184 29.123 8.56446 29.123 8.9159C29.123 9.79393 29.3616 9.99963 30.3161 9.88326C30.3161 9.40017 30.2961 8.9065 30.3208 8.41518C30.349 7.85804 30.8955 7.53833 31.3022 7.85334C31.4715 7.98381 31.5902 8.25885 31.6137 8.481C31.6619 8.93001 31.6125 9.38959 31.6419 9.84212C31.6513 9.98905 31.7454 10.1748 31.8617 10.2629C32.4424 10.7013 32.7421 11.2667 32.7362 11.9955C32.7327 12.421 32.7386 12.8453 32.7362 13.2708C32.7268 14.5097 31.9675 15.3054 30.7357 15.3712C30.664 15.3748 30.5935 15.3842 30.4971 15.3936C30.436 15.7133 30.3878 16.0283 30.3137 16.3374C29.8953 18.0841 28.9455 19.4957 27.5621 20.6194C27.3388 20.8016 27.2553 20.9685 27.3047 21.2483C27.3682 21.6079 27.3682 21.9794 27.4375 22.3379C27.5621 22.9773 28.0334 23.3534 28.6776 23.3546C29.7331 23.3581 30.7886 23.3675 31.8441 23.3511C32.6775 23.3381 33.3945 23.5873 34.0033 24.1644C34.1079 24.2644 34.2784 24.3243 34.4265 24.3455C36.0238 24.5676 37.452 25.1353 38.5839 26.3307C39.315 27.1018 39.8039 28.0068 40.1095 29.0177C40.8195 31.372 41.513 33.7311 42.25 36.076C42.7812 37.7674 42.4133 39.1908 41.1122 40.3803C40.9958 40.4861 40.8583 40.5696 40.7313 40.6624C40.7548 40.7071 40.7795 40.7506 40.803 40.7953C41.4836 40.7953 42.1642 40.78 42.8435 40.7988C44.2282 40.8364 45.2061 42.0353 44.9628 43.3976C44.8264 44.1604 44.3716 44.6882 43.6745 45.0126C43.5464 45.0726 43.4171 45.1313 43.2878 45.1901H1.75959C0.793402 44.8457 0.190416 44.1851 0 43.1661C0 43.0485 0 42.931 0 42.8146L0.00117655 42.8205ZM11.6024 38.2728C11.7623 38.2858 11.8763 38.3034 11.9903 38.3034C19.0134 38.3046 26.0376 38.3034 33.0606 38.3116C33.3933 38.3116 33.4814 38.2105 33.4814 37.8861C33.472 34.0155 33.4779 30.1437 33.472 26.2731C33.4709 25.2282 32.9114 24.6828 31.857 24.6816C25.6403 24.6793 19.4224 24.6793 13.2057 24.6816C12.1513 24.6816 11.606 25.2329 11.6024 26.2802C11.5989 27.5261 11.606 28.7732 11.5989 30.0191C11.5966 30.5199 11.3215 30.8266 10.916 30.8137C10.5199 30.802 10.2848 30.5187 10.2836 30.025C10.2801 28.7203 10.2836 27.4156 10.2836 26.1097C10.2836 26.0016 10.2707 25.8946 10.2613 25.7595C8.249 26.1826 6.89376 27.3169 6.28372 29.2445C5.50208 31.7141 4.77685 34.2012 4.02576 36.6813C3.72486 37.6746 3.95877 38.5338 4.68752 39.2578C5.15533 39.7233 5.6349 40.177 6.11799 40.626C6.20615 40.7083 6.33661 40.787 6.45063 40.7917C6.85614 40.8117 7.26284 40.8 7.69069 40.8C7.64249 40.5672 7.60253 40.3815 7.56609 40.1958C7.32513 38.9569 8.09738 38.1976 9.20461 38.2999C9.549 38.3316 9.89809 38.3046 10.2813 38.3046C10.2813 38.0812 10.2813 37.9226 10.2813 37.7639C10.2813 36.4145 10.2813 35.0663 10.2813 33.717C10.2813 33.6147 10.2801 33.5113 10.2813 33.409C10.2907 32.9271 10.5328 32.6309 10.9207 32.6227C11.3121 32.6144 11.593 32.9118 11.5966 33.382C11.606 34.6726 11.6001 35.9632 11.6001 37.2526C11.6001 37.5864 11.6001 37.919 11.6001 38.2717L11.6024 38.2728ZM29.2829 11.2432C28.0358 10.5368 27.8066 10.1372 27.8066 8.79131C27.8066 8.54213 27.8113 8.29294 27.8054 8.04375C27.7925 7.47133 27.5033 7.16455 26.925 7.19864C26.4925 7.22449 26.0505 7.29855 25.638 7.42784C23.6033 8.06844 21.5816 8.07901 19.547 7.41726C19.1098 7.27504 18.6325 7.22097 18.1706 7.19746C17.5453 7.16572 17.2702 7.47015 17.2608 8.10958C17.255 8.4763 17.2585 8.84303 17.2597 9.20858C17.2632 10.0537 16.8671 10.6485 16.1418 11.061C16.0126 11.1339 15.8809 11.3325 15.8774 11.4759C15.8562 12.5303 15.8503 13.587 15.8703 14.6413C15.942 18.5495 19.2861 20.9662 22.0871 21.2483C25.0385 21.5456 28.4577 19.0138 29.0031 16.0036C29.2876 14.4344 29.2041 12.7983 29.2841 11.2432H29.2829ZM22.4832 43.8772C29.1242 43.8772 35.7641 43.8772 42.4051 43.8772C42.5661 43.8772 42.7283 43.8866 42.8882 43.8689C43.3454 43.8196 43.6745 43.4634 43.6851 43.0203C43.6957 42.5795 43.3807 42.2046 42.927 42.1352C42.7836 42.1129 42.6343 42.1211 42.4886 42.1211C29.1783 42.1211 15.8668 42.1211 2.55651 42.1211C2.40958 42.1211 2.26148 42.1129 2.11808 42.1352C1.66673 42.2057 1.35055 42.5854 1.36347 43.0238C1.3764 43.4658 1.70904 43.8208 2.1651 43.8689C2.30968 43.8842 2.45778 43.876 2.6047 43.876C9.23046 43.876 15.8562 43.876 22.4832 43.876V43.8772ZM37.3932 40.7706C38.1854 40.8517 38.9388 40.9128 39.4795 40.1476C39.6793 39.8655 39.9708 39.6469 40.2318 39.4106C41.1345 38.5949 41.3578 37.624 40.9958 36.4651C40.2718 34.1483 39.5935 31.8163 38.8671 29.4996C38.6979 28.9613 38.4734 28.4206 38.1701 27.9469C37.3897 26.728 36.2519 26.0216 34.8249 25.7747V38.3034C35.2751 38.3034 35.6841 38.2975 36.092 38.3046C37.05 38.321 37.6494 38.9945 37.5401 39.9349C37.5084 40.2087 37.4449 40.4791 37.3932 40.7694V40.7706ZM36.2436 39.661H8.86844C8.88607 40.6319 9.05063 40.8 9.93688 40.8C18.3939 40.8 26.8498 40.8 35.3068 40.8C35.9486 40.8 36.0332 40.7318 36.1719 40.09C36.199 39.9631 36.2142 39.8326 36.2425 39.661H36.2436ZM18.7654 23.3358H26.3091C26.1974 22.7833 26.0905 22.2497 25.9741 21.6702C23.6738 22.8785 21.3724 22.9091 19.0909 21.6773C18.9746 22.2662 18.8723 22.7892 18.7642 23.3358H18.7654ZM30.5441 14.0348C31.1718 14.0583 31.4092 13.8432 31.4174 13.259C31.4221 12.85 31.4245 12.4421 31.4174 12.0331C31.408 11.463 31.1353 11.2315 30.5453 11.2985V14.0348H30.5441ZM14.5174 14.0348V11.2949C13.9391 11.2444 13.6594 11.4759 13.6453 12.0131C13.6347 12.4374 13.6359 12.8629 13.6453 13.2872C13.657 13.8338 13.9109 14.0548 14.5174 14.0336V14.0348Z"/>
</mask>
<path d="M0.00117655 42.8205C0.0705255 42.5983 0.116372 42.3668 0.212755 42.1564C0.608867 41.2866 1.29412 40.8293 2.24855 40.8035C2.91736 40.7859 3.58734 40.8 4.36311 40.8C4.101 40.539 3.90823 40.351 3.72016 40.157C2.6858 39.0909 2.31555 37.8309 2.73517 36.4004C3.48508 33.8451 4.22559 31.2839 5.0613 28.7556C5.87939 26.279 7.66483 24.8603 10.2331 24.4348C10.6421 24.3666 11.003 24.2702 11.3286 23.967C11.767 23.5568 12.33 23.3675 12.94 23.3652C14.0684 23.3605 15.198 23.3605 16.3264 23.3581C17.0939 23.3558 17.5888 22.9138 17.6781 22.1498C17.6793 22.1357 17.6781 22.1204 17.6816 22.1063C17.8909 21.2847 17.6664 20.7064 16.9764 20.1199C15.6776 19.0173 14.9465 17.5293 14.6597 15.839C14.6362 15.6968 14.6056 15.5558 14.575 15.3959C14.3623 15.3783 14.1578 15.3795 13.9591 15.343C13.0494 15.1773 12.37 14.4027 12.3312 13.4683C12.3089 12.9264 12.3089 12.3822 12.3335 11.8415C12.3629 11.2068 12.6321 10.6755 13.1645 10.3182C13.3914 10.1665 13.4525 9.99963 13.4513 9.74104C13.4396 8.24592 13.4408 6.74963 13.4466 5.25452C13.4549 3.18463 14.8748 1.85054 16.9329 1.98101C17.2268 1.99982 17.3748 1.9481 17.436 1.60958C17.5688 0.882006 18.5009 0.16971 19.393 0.161482C22.0459 0.137974 24.7035 0.079204 27.3529 0.180289C29.9058 0.277848 31.83 2.63336 31.629 5.20632C31.5949 5.63535 31.3563 5.89394 30.986 5.90099C30.6099 5.90922 30.3666 5.66473 30.3208 5.23336C30.2761 4.79728 30.2843 4.34828 30.1785 3.92748C29.82 2.49701 28.5412 1.48381 27.0649 1.47206C24.5871 1.45208 22.1094 1.46266 19.6316 1.46618C19.0627 1.46618 18.8277 1.65895 18.656 2.21139C18.4245 2.95777 17.7698 3.37739 16.9094 3.29276C16.4075 3.2434 15.942 3.30099 15.5295 3.60072C15.0805 3.92748 14.7843 4.36708 14.7772 4.9301C14.7596 6.54276 14.769 8.15542 14.769 9.76807C14.769 9.80804 14.7937 9.848 14.8054 9.88444C15.6928 10.0079 15.9279 9.79981 15.9385 8.92061C15.9432 8.45279 15.9244 7.97675 16.0043 7.51952C16.1712 6.56744 16.994 5.85867 17.9555 5.87866C18.6067 5.89276 19.2825 5.95153 19.8984 6.14665C21.7239 6.7226 23.5163 6.72025 25.3382 6.13724C25.8989 5.95741 26.5148 5.88453 27.106 5.87866C28.198 5.8669 29.0784 6.76961 29.1195 7.86039C29.1324 8.21184 29.123 8.56446 29.123 8.9159C29.123 9.79393 29.3616 9.99963 30.3161 9.88326C30.3161 9.40017 30.2961 8.9065 30.3208 8.41518C30.349 7.85804 30.8955 7.53833 31.3022 7.85334C31.4715 7.98381 31.5902 8.25885 31.6137 8.481C31.6619 8.93001 31.6125 9.38959 31.6419 9.84212C31.6513 9.98905 31.7454 10.1748 31.8617 10.2629C32.4424 10.7013 32.7421 11.2667 32.7362 11.9955C32.7327 12.421 32.7386 12.8453 32.7362 13.2708C32.7268 14.5097 31.9675 15.3054 30.7357 15.3712C30.664 15.3748 30.5935 15.3842 30.4971 15.3936C30.436 15.7133 30.3878 16.0283 30.3137 16.3374C29.8953 18.0841 28.9455 19.4957 27.5621 20.6194C27.3388 20.8016 27.2553 20.9685 27.3047 21.2483C27.3682 21.6079 27.3682 21.9794 27.4375 22.3379C27.5621 22.9773 28.0334 23.3534 28.6776 23.3546C29.7331 23.3581 30.7886 23.3675 31.8441 23.3511C32.6775 23.3381 33.3945 23.5873 34.0033 24.1644C34.1079 24.2644 34.2784 24.3243 34.4265 24.3455C36.0238 24.5676 37.452 25.1353 38.5839 26.3307C39.315 27.1018 39.8039 28.0068 40.1095 29.0177C40.8195 31.372 41.513 33.7311 42.25 36.076C42.7812 37.7674 42.4133 39.1908 41.1122 40.3803C40.9958 40.4861 40.8583 40.5696 40.7313 40.6624C40.7548 40.7071 40.7795 40.7506 40.803 40.7953C41.4836 40.7953 42.1642 40.78 42.8435 40.7988C44.2282 40.8364 45.2061 42.0353 44.9628 43.3976C44.8264 44.1604 44.3716 44.6882 43.6745 45.0126C43.5464 45.0726 43.4171 45.1313 43.2878 45.1901H1.75959C0.793402 44.8457 0.190416 44.1851 0 43.1661C0 43.0485 0 42.931 0 42.8146L0.00117655 42.8205ZM11.6024 38.2728C11.7623 38.2858 11.8763 38.3034 11.9903 38.3034C19.0134 38.3046 26.0376 38.3034 33.0606 38.3116C33.3933 38.3116 33.4814 38.2105 33.4814 37.8861C33.472 34.0155 33.4779 30.1437 33.472 26.2731C33.4709 25.2282 32.9114 24.6828 31.857 24.6816C25.6403 24.6793 19.4224 24.6793 13.2057 24.6816C12.1513 24.6816 11.606 25.2329 11.6024 26.2802C11.5989 27.5261 11.606 28.7732 11.5989 30.0191C11.5966 30.5199 11.3215 30.8266 10.916 30.8137C10.5199 30.802 10.2848 30.5187 10.2836 30.025C10.2801 28.7203 10.2836 27.4156 10.2836 26.1097C10.2836 26.0016 10.2707 25.8946 10.2613 25.7595C8.249 26.1826 6.89376 27.3169 6.28372 29.2445C5.50208 31.7141 4.77685 34.2012 4.02576 36.6813C3.72486 37.6746 3.95877 38.5338 4.68752 39.2578C5.15533 39.7233 5.6349 40.177 6.11799 40.626C6.20615 40.7083 6.33661 40.787 6.45063 40.7917C6.85614 40.8117 7.26284 40.8 7.69069 40.8C7.64249 40.5672 7.60253 40.3815 7.56609 40.1958C7.32513 38.9569 8.09738 38.1976 9.20461 38.2999C9.549 38.3316 9.89809 38.3046 10.2813 38.3046C10.2813 38.0812 10.2813 37.9226 10.2813 37.7639C10.2813 36.4145 10.2813 35.0663 10.2813 33.717C10.2813 33.6147 10.2801 33.5113 10.2813 33.409C10.2907 32.9271 10.5328 32.6309 10.9207 32.6227C11.3121 32.6144 11.593 32.9118 11.5966 33.382C11.606 34.6726 11.6001 35.9632 11.6001 37.2526C11.6001 37.5864 11.6001 37.919 11.6001 38.2717L11.6024 38.2728ZM29.2829 11.2432C28.0358 10.5368 27.8066 10.1372 27.8066 8.79131C27.8066 8.54213 27.8113 8.29294 27.8054 8.04375C27.7925 7.47133 27.5033 7.16455 26.925 7.19864C26.4925 7.22449 26.0505 7.29855 25.638 7.42784C23.6033 8.06844 21.5816 8.07901 19.547 7.41726C19.1098 7.27504 18.6325 7.22097 18.1706 7.19746C17.5453 7.16572 17.2702 7.47015 17.2608 8.10958C17.255 8.4763 17.2585 8.84303 17.2597 9.20858C17.2632 10.0537 16.8671 10.6485 16.1418 11.061C16.0126 11.1339 15.8809 11.3325 15.8774 11.4759C15.8562 12.5303 15.8503 13.587 15.8703 14.6413C15.942 18.5495 19.2861 20.9662 22.0871 21.2483C25.0385 21.5456 28.4577 19.0138 29.0031 16.0036C29.2876 14.4344 29.2041 12.7983 29.2841 11.2432H29.2829ZM22.4832 43.8772C29.1242 43.8772 35.7641 43.8772 42.4051 43.8772C42.5661 43.8772 42.7283 43.8866 42.8882 43.8689C43.3454 43.8196 43.6745 43.4634 43.6851 43.0203C43.6957 42.5795 43.3807 42.2046 42.927 42.1352C42.7836 42.1129 42.6343 42.1211 42.4886 42.1211C29.1783 42.1211 15.8668 42.1211 2.55651 42.1211C2.40958 42.1211 2.26148 42.1129 2.11808 42.1352C1.66673 42.2057 1.35055 42.5854 1.36347 43.0238C1.3764 43.4658 1.70904 43.8208 2.1651 43.8689C2.30968 43.8842 2.45778 43.876 2.6047 43.876C9.23046 43.876 15.8562 43.876 22.4832 43.876V43.8772ZM37.3932 40.7706C38.1854 40.8517 38.9388 40.9128 39.4795 40.1476C39.6793 39.8655 39.9708 39.6469 40.2318 39.4106C41.1345 38.5949 41.3578 37.624 40.9958 36.4651C40.2718 34.1483 39.5935 31.8163 38.8671 29.4996C38.6979 28.9613 38.4734 28.4206 38.1701 27.9469C37.3897 26.728 36.2519 26.0216 34.8249 25.7747V38.3034C35.2751 38.3034 35.6841 38.2975 36.092 38.3046C37.05 38.321 37.6494 38.9945 37.5401 39.9349C37.5084 40.2087 37.4449 40.4791 37.3932 40.7694V40.7706ZM36.2436 39.661H8.86844C8.88607 40.6319 9.05063 40.8 9.93688 40.8C18.3939 40.8 26.8498 40.8 35.3068 40.8C35.9486 40.8 36.0332 40.7318 36.1719 40.09C36.199 39.9631 36.2142 39.8326 36.2425 39.661H36.2436ZM18.7654 23.3358H26.3091C26.1974 22.7833 26.0905 22.2497 25.9741 21.6702C23.6738 22.8785 21.3724 22.9091 19.0909 21.6773C18.9746 22.2662 18.8723 22.7892 18.7642 23.3358H18.7654ZM30.5441 14.0348C31.1718 14.0583 31.4092 13.8432 31.4174 13.259C31.4221 12.85 31.4245 12.4421 31.4174 12.0331C31.408 11.463 31.1353 11.2315 30.5453 11.2985V14.0348H30.5441ZM14.5174 14.0348V11.2949C13.9391 11.2444 13.6594 11.4759 13.6453 12.0131C13.6347 12.4374 13.6359 12.8629 13.6453 13.2872C13.657 13.8338 13.9109 14.0548 14.5174 14.0336V14.0348Z" fill="#1A325D" stroke="#1A325D" stroke-width="0.215043" mask="url(#path-2-inside-1_1376_3281)"/>
<path d="M22.5702 29.8196L22.5702 29.8196C21.5831 29.8039 20.7974 30.5582 20.7865 31.5348V31.5348C20.7756 32.5211 21.535 33.2992 22.5148 33.3065L22.5373 33.3066L22.5387 33.3053C23.5142 33.3008 24.2745 32.5418 24.2769 31.5673C24.2793 30.6026 23.532 29.8354 22.5702 29.8196ZM22.5305 28.606C24.1794 28.606 25.4893 29.9126 25.4893 31.5589C25.4893 33.203 24.1793 34.5154 22.5328 34.5166C20.8887 34.5177 19.5752 33.2065 19.5752 31.5625C19.5752 29.9172 20.8853 28.606 22.5305 28.606Z" fill="#1A325D" stroke="#1A325D" stroke-width="0.107521"/>
</svg>
