<?xml version="1.0" encoding="utf-8"?>
<!-- Generator: Adobe Illustrator 27.1.1, SVG Export Plug-In . SVG Version: 6.00 Build 0)  -->
<svg version="1.1" id="Layer_1" xmlns="http://www.w3.org/2000/svg" xmlns:xlink="http://www.w3.org/1999/xlink" x="0px" y="0px"
	 viewBox="0 0 719.3 402.4" style="enable-background:new 0 0 719.3 402.4;" xml:space="preserve">
<style type="text/css">
	
		.st0{clip-path:url(#SVGID_00000131365405907723577880000016522738754199735209_);fill:url(#SVGID_00000178917536972055012850000010863210174142355630_);}
	.st1{fill:#00A7E0;}
</style>
<g>
	<rect x="215.3" y="262.8" class="st1" width="29.3" height="116.2"/>
	<path class="st1" d="M481,296.1c-1.2-0.6-10.6-6.2-24.6-6.2c-19,0-32.1,13.3-32.1,31c0,17.3,12.6,31,32.1,31
		c13.8,0,23.4-5.5,24.6-6.1v31.2c-3.7,1.1-13.7,4.1-26.7,4.1c-33,0-61.9-22.7-61.9-60.2c0-34.7,26.2-60.1,61.9-60.1
		c13.8,0,24,3.3,26.7,4.1V296.1z"/>
	<path class="st1" d="M175.1,296.1c-1.2-0.6-10.6-6.2-24.6-6.2c-19,0-32.1,13.3-32.1,31c0,17.3,12.6,31,32.1,31
		c13.7,0,23.3-5.5,24.6-6.1v31.2c-3.7,1.1-13.7,4.1-26.8,4.1c-32.9,0-61.8-22.7-61.8-60.2c0-34.7,26.2-60.1,61.8-60.1
		c13.8,0,24,3.3,26.8,4.1V296.1z"/>
	<path class="st1" d="M634.6,320.9c0,33.2-25.6,60.2-61.4,60.2c-35.7,0-61.4-26.9-61.4-60.2c0-33.2,25.6-60.1,61.4-60.1
		C609,260.8,634.6,287.7,634.6,320.9 M573.3,290.4c-17.4,0-30.3,13.7-30.3,30.5c0,16.9,12.9,30.6,30.3,30.6
		c17.4,0,30.3-13.7,30.3-30.6C603.6,304.1,590.7,290.4,573.3,290.4"/>
	<path class="st1" d="M355.8,289.2c-0.4-0.1-12.8-3.6-22.9-3.6c-11.8,0-18.1,4-18.1,9.6c0,7,8.6,9.5,13.4,11l8.1,2.6
		c19,6,27.7,19.1,27.7,33.2c0,29.2-25.7,39-48.1,39c-15.6,0-30.2-2.9-31.6-3.2v-26.8c2.6,0.6,14.9,4.3,27.7,4.3
		c14.6,0,21.3-4.2,21.3-10.9c0-5.9-5.8-9.2-13-11.5c-1.8-0.6-4.5-1.4-6.3-2.1c-16.3-5.1-29.9-14.7-29.9-34
		c0-21.7,16.3-36.3,43.3-36.3c14.3,0,27.7,3.5,28.6,3.7V289.2z"/>
	<path class="st1" d="M55.3,138c0-8-6.5-14.5-14.5-14.5c-8,0-14.6,6.5-14.6,14.5v30.5c0,8.1,6.6,14.5,14.6,14.5
		c8,0,14.5-6.4,14.5-14.5V138z"/>
	<path class="st1" d="M135.3,97.9c0-8-6.5-14.5-14.6-14.5c-8,0-14.6,6.6-14.6,14.5v70.5c0,8.1,6.5,14.5,14.6,14.5
		c8,0,14.6-6.4,14.6-14.5V97.9z"/>
	<path class="st1" d="M215.2,43.2c0-8-6.5-14.5-14.5-14.5c-8,0-14.6,6.5-14.6,14.5v154.3c0,8,6.5,14.6,14.6,14.6
		c8,0,14.5-6.5,14.5-14.6V43.2z"/>
	<path class="st1" d="M295.2,97.9c0-8-6.5-14.5-14.5-14.5c-8,0-14.5,6.6-14.5,14.5v70.5c0,8.1,6.5,14.5,14.5,14.5
		c8,0,14.5-6.4,14.5-14.5V97.9z"/>
	<path class="st1" d="M375.1,138c0-8-6.5-14.5-14.5-14.5c-8,0-14.6,6.5-14.6,14.5v30.5c0,8.1,6.5,14.5,14.6,14.5
		c7.9,0,14.5-6.4,14.5-14.5V138z"/>
	<path class="st1" d="M455.1,97.9c0-8-6.5-14.5-14.5-14.5c-8,0-14.5,6.6-14.5,14.5v70.5c0,8.1,6.5,14.5,14.5,14.5
		c8,0,14.5-6.4,14.5-14.5V97.9z"/>
	<path class="st1" d="M535,43.2c0-8-6.5-14.5-14.5-14.5c-8,0-14.5,6.5-14.5,14.5v154.3c0,8,6.5,14.6,14.5,14.6
		c8,0,14.5-6.5,14.5-14.6V43.2z"/>
	<path class="st1" d="M615,97.9c0-8-6.5-14.5-14.7-14.5c-8,0-14.5,6.6-14.5,14.5v70.5c0,8.1,6.5,14.5,14.5,14.5
		c8.2,0,14.7-6.4,14.7-14.5V97.9z"/>
	<path class="st1" d="M694.8,138c0-8-6.5-14.5-14.5-14.5c-8,0-14.5,6.5-14.5,14.5v30.5c0,8.1,6.5,14.5,14.5,14.5
		c8,0,14.5-6.4,14.5-14.5V138z"/>
	<polygon class="st1" points="678,363.7 678,365.5 672.9,365.5 672.9,379 670.7,379 670.7,365.5 665.5,365.5 665.5,363.7 	"/>
	<polygon class="st1" points="679.1,363.7 682.5,363.7 687,376.2 687.2,376.2 691.6,363.7 694.8,363.7 694.8,379 692.6,379 
		692.6,366.5 692.6,366.5 687.9,379 685.9,379 681.4,366.5 681.3,366.5 681.3,379 679.1,379 	"/>
</g>
</svg>
