<?xml version="1.0" encoding="utf-8"?>
<!-- Generator: Adobe Illustrator 27.1.1, SVG Export Plug-In . SVG Version: 6.00 Build 0)  -->
<svg version="1.1" id="Layer_1" xmlns="http://www.w3.org/2000/svg" xmlns:xlink="http://www.w3.org/1999/xlink" x="0px" y="0px"
	 viewBox="0 0 250 68.37" style="enable-background:new 0 0 250 68.37;" xml:space="preserve">
<style type="text/css">
	.st0{fill:#A100FF;}
</style>
<g>
	<polygon class="st0" points="145.18,20.03 159.21,14.81 145.18,9.33 145.18,2.08 169.2,11.75 169.2,17.77 145.18,27.49 	"/>
	<path d="M19.96,56.35v-2.69h-3.12c-3.87,0-5.86,1.08-5.86,3.6v0.27c0,1.94,1.18,3.28,3.81,3.28
		C17.49,60.81,19.96,59.31,19.96,56.35 M12.43,66.29c-5.05,0-9.24-2.58-9.24-8.27V57.7c0-6.93,6.02-9.19,13.27-9.19h3.49v-1.34
		c0-2.8-1.24-4.51-4.14-4.51c-2.63,0-4.03,1.5-4.25,3.65H4.05C4.59,40.07,9.53,37,16.2,37c6.77,0,11.61,2.9,11.61,9.89V65.7h-7.68
		v-3.23C18.77,64.52,16.2,66.29,12.43,66.29"/>
	<path d="M45.59,66.29c-7.79,0-13.43-4.84-13.43-14.35v-0.38c0-9.51,6.02-14.56,13.49-14.56c6.4,0,11.66,3.23,12.31,10.59h-7.52
		c-0.48-2.74-1.88-4.51-4.62-4.51c-3.33,0-5.64,2.63-5.64,8.17v0.86c0,5.7,2.04,8.28,5.7,8.28c2.69,0,4.67-1.99,5.1-5.05h7.15
		C57.58,61.72,53.22,66.29,45.59,66.29"/>
	<path d="M74.83,66.29c-7.79,0-13.43-4.84-13.43-14.35v-0.38C61.4,42.06,67.42,37,74.88,37c6.39,0,11.66,3.23,12.31,10.59h-7.52
		c-0.48-2.74-1.88-4.51-4.62-4.51c-3.33,0-5.64,2.63-5.64,8.17v0.86c0,5.7,2.04,8.28,5.7,8.28c2.69,0,4.68-1.99,5.1-5.05h7.15
		C86.81,61.72,82.46,66.29,74.83,66.29"/>
	<path d="M98.69,48.4h10.53c-0.16-4.14-2.04-5.91-5.16-5.91C101.6,42.49,99.34,43.83,98.69,48.4 M104.28,66.29
		c-8.12,0-13.65-4.84-13.65-14.19v-0.54c0-9.4,5.86-14.56,13.38-14.56c6.99,0,12.84,3.93,12.84,13.22v3.38H98.59
		c0.32,5.05,2.47,6.99,5.86,6.99c3.01,0,4.62-1.61,5.16-3.65h7.25C116,62.26,111.64,66.29,104.28,66.29"/>
	<path d="M121.69,37.6h7.84v4.19c1.4-2.63,4.19-4.78,8.49-4.78c5.11,0,8.49,3.06,8.49,9.89V65.7h-7.85V48.08
		c0-3.28-1.34-4.73-4.19-4.73c-2.74,0-4.94,1.67-4.94,5.21V65.7h-7.84V37.6z"/>
	<path d="M161.2,29.11v8.49h5.37v5.86h-5.37v13.33c0,2.1,0.97,3.06,2.79,3.06c1.13,0,1.99-0.16,2.74-0.48v6.13
		c-0.91,0.27-2.47,0.59-4.4,0.59c-6.13,0-9.03-2.79-9.03-8.49V43.45h-3.28V37.6h3.28v-5.27L161.2,29.11z"/>
	<path d="M196.13,65.7h-7.85v-4.14c-1.34,2.69-3.97,4.73-8.17,4.73c-5.05,0-8.76-3.06-8.76-9.67V37.6h7.9v17.84
		c0,3.22,1.29,4.73,4.08,4.73c2.74,0,4.94-1.72,4.94-5.21V37.6h7.85V65.7z"/>
	<path d="M201.83,37.6h7.85v5.16c1.66-3.76,4.3-5.54,8.44-5.54v7.74c-5.32,0-8.44,1.62-8.44,6.29V65.7h-7.85V37.6z"/>
	<path d="M228.65,48.4h10.53c-0.16-4.14-2.04-5.91-5.16-5.91C231.55,42.49,229.29,43.83,228.65,48.4 M234.23,66.29
		c-8.11,0-13.65-4.84-13.65-14.19v-0.54c0-9.4,5.86-14.56,13.38-14.56c6.98,0,12.84,3.93,12.84,13.22v3.38h-18.27
		c0.32,5.05,2.47,6.99,5.85,6.99c3.01,0,4.62-1.61,5.16-3.65h7.26C245.95,62.26,241.6,66.29,234.23,66.29"/>
</g>
</svg>
