<?xml version="1.0" encoding="utf-8"?>
<!-- Generator: Adobe Illustrator 27.1.1, SVG Export Plug-In . SVG Version: 6.00 Build 0)  -->
<svg version="1.1" id="Layer_1" xmlns="http://www.w3.org/2000/svg" xmlns:xlink="http://www.w3.org/1999/xlink" x="0px" y="0px"
	 viewBox="0 0 574.255 132.468" enable-background="new 0 0 574.255 132.468" xml:space="preserve">
<g>
	<polygon fill="#FFCB05" points="570.055,4.234 570.055,129.349 3.128,129.349 3.128,4.234 570.055,4.234 	"/>
	<path fill="#D71635" d="M102.825,26.702L84.713,51.311c0,0,93.901,0,98.717,0c4.99,0,4.924,1.896,2.486,5.2
		c-2.477,3.355-6.622,9.188-9.145,12.593c-1.28,1.729-3.595,4.879,4.076,4.879c8.111,0,40.37,0,40.37,0s6.507-8.854,11.961-16.257
		c7.421-10.069,0.643-31.024-25.884-31.024C183.55,26.702,102.825,26.702,102.825,26.702L102.825,26.702z"/>
	<path fill="#D71635" d="M77.384,106.874l36.381-49.433c0,0,40.331,0,45.147,0c4.99,0,4.924,1.896,2.486,5.2
		c-2.477,3.355-6.691,9.125-9.213,12.533c-1.281,1.728-3.595,4.884,4.075,4.884c8.111,0,60.482,0,60.482,0
		c-5.029,6.891-21.345,26.816-50.643,26.816C142.354,106.874,77.384,106.874,77.384,106.874L77.384,106.874z"/>
	<path fill="#D71635" d="M285.74,80.051l-19.729,26.822h-52.042c0,0,19.718-26.816,19.735-26.816L285.74,80.051L285.74,80.051z"/>
	<polygon fill="#D71635" points="365.467,73.983 238.175,73.983 272.984,26.702 325.01,26.702 305.059,53.814 328.284,53.814 
		348.243,26.702 400.264,26.702 365.467,73.983 	"/>
	<path fill="#D71635" d="M360.999,80.057l-19.738,26.816h-52.023c0,0,19.719-26.816,19.736-26.816H360.999L360.999,80.057z"/>
	<polygon fill="#D71635" points="3.128,90.632 79.794,90.632 75.605,96.33 3.128,96.33 3.128,90.632 	"/>
	<polygon fill="#D71635" points="3.128,80.057 87.583,80.057 83.386,85.747 3.128,85.747 3.128,80.057 	"/>
	<polygon fill="#D71635" points="3.128,101.213 72.009,101.213 67.841,106.874 3.128,106.874 3.128,101.213 	"/>
	<polygon fill="#D71635" points="570.057,96.33 493.684,96.33 497.876,90.632 570.057,90.632 570.057,96.33 	"/>
	<polygon fill="#D71635" points="570.057,106.874 485.921,106.881 490.089,101.213 570.057,101.213 570.057,106.874 	"/>
	<polygon fill="#D71635" points="505.655,80.057 570.057,80.057 570.057,85.75 501.469,85.754 505.655,80.057 	"/>
	<path fill="#D71635" d="M472.317,26.702l-34.805,47.281h-55.127c0,0,34.811-47.281,34.828-47.281H472.317L472.317,26.702z"/>
	<path fill="#D71635" d="M377.923,80.057c0,0-3.803,5.197-5.65,7.695c-6.535,8.831-0.758,19.121,20.568,19.121
		c24.629,0,83.553,0,83.553,0l19.736-26.816H377.923L377.923,80.057z"/>
</g>
</svg>
