<?xml version="1.0" encoding="utf-8"?>
<!-- Generator: Adobe Illustrator 27.1.1, SVG Export Plug-In . SVG Version: 6.00 Build 0)  -->
<svg version="1.1" id="Layer_1" xmlns="http://www.w3.org/2000/svg" xmlns:xlink="http://www.w3.org/1999/xlink" x="0px" y="0px"
	 viewBox="0 0 2350.3 958.6" style="enable-background:new 0 0 2350.3 958.6;" xml:space="preserve">
<style type="text/css">
	.st0{display:none;fill-rule:evenodd;clip-rule:evenodd;fill:#FFFFFF;}
	.st1{fill-rule:evenodd;clip-rule:evenodd;fill:#255398;}
	.st2{fill-rule:evenodd;clip-rule:evenodd;fill:#FFFFFF;}
</style>
<g>
	<path class="st0" d="M-74.9-770.7h2500v2500h-2500V-770.7z"/>
	<path class="st1" d="M277.6,736.8l-29.8-72.5l-22.7,72.5H277.6L277.6,736.8z M1193.7,736.8l-8.9-147.1l-43.5,147.1L1193.7,736.8
		L1193.7,736.8z M664.9,464.7V34.9H168.2v434.7l16.6-55.4l3.8-12.7h143.7l-6.9,23c-10.9,36.2-26.9,89.1-44.2,146.5l162.9-164.3
		l5.2-5.3h183.4l-33.1,30.9L374.1,643.1l43.9,93.7h164.8L664.9,464.7z M718.2,34.9v366.5h100.3c77.1-0.9,156.7-1.9,197.4,46.4
		c23.2,27.5,29.8,66.1,20.2,118c-8.8,47.7-50.9,158.7-250.2,158.5l-64.8,0l-2.9,9.5v2.9h298.2l98.9-322.7l3.9-12.6h95.7V34.9H718.2z
		 M1483.3,736.8l40.2-135.1l-87.3,135.1H1483.3z"/>
	<path class="st1" d="M1622.8,736.8h56.8c-0.1-25.2,3.8-54,13.9-87.2c20-65.7,44.3-114.9,71.4-151.8V34.9h-496.7v366.5h34.7
		l1.5,16.1c0.8,8.1,15.5,163.3,11.9,310.5c34.6-70.4,95.1-178.1,196.8-319.2l5.3-7.4h187.9l-5.5,22.2L1622.8,736.8L1622.8,736.8z
		 M1818.2,34.9v407.5c55.1-42.3,116.4-51,174.4-51c74.1,0,132.5,24.6,164.4,69.2c24.5,34.3,30.6,77,16.8,117.1l-4.2,12.1l-12.7,0
		l-97.5-0.1l-28.5,0l12.4-25.5c0.2-0.6,0.6-2.4,0.9-3.5c0.4-1.7,0.8-3.7,1.4-5.7c5.1-17.1,4.6-30.2-1.5-38.8
		c-8.5-12-29.8-19.1-61.5-20.6c-72.2-3.4-119.2,46.3-152.3,161.3c-6.7,23.3-10.7,44.4-12.1,63v16.9H1992l0.7-2.1h-105.9l7.2-23.2
		l22.4-71.8l3.9-12.5h237.8l-6.4,22.7l-24.4,87h187.5V34.9H1818.2L1818.2,34.9z"/>
	<path class="st1" d="M1483.3,736.8l40.2-135.1l-87.3,135.1H1483.3z"/>
	<path class="st1" d="M1683.5,401.4h-165.1l-5.3,7.4c-101.7,141.1-162.2,248.8-196.8,319.2c3.7-147.3-11.1-302.5-11.9-310.5
		l-1.5-16.1h-183.7l-3.9,12.6L970,888.5l-7.1,23.1h126.6l3.8-12.8l91.5-309.1l18.4,305.1l1,16.8h118.9l5.3-8.2l195-301.8l-85.3,287
		l-6.8,22.9h147.9l3.4-13.5l118.2-474.5l5.5-22.2H1683.5L1683.5,401.4z"/>
	<path class="st2" d="M1565.3,893.7h-110l120.8-406.4l-262.6,406.4h-92.4l-24.6-406.4l-120.3,406.4H987l145.3-474.5h154.3
		c0,0,23.6,243.5,5.5,410.5c0,0,45.9-147.5,235.4-410.5h155.9L1565.3,893.7z"/>
	<path class="st1" d="M2157,460.7c-31.8-44.6-90.2-69.2-164.4-69.2c-109.1,0-230,30.7-299.1,258.2c-30,98.7-6,160.3,19.5,194.7
		c43.4,58.6,118.8,79.4,174.8,79.4c59.9,0,154.3-9.8,186.2-22.4l8.2-3.3l2.4-8.5l67.2-239.7l6.4-22.7h-237.8l-3.9,12.5l-22.4,71.8
		l-7.2,23.2h105.9l-24.9,78.5c-4.9,2-19.9,6.3-59.4,6.4c-35.5,0.1-60.8-9.4-75-28.3c-19.8-26.2-20.8-72.6-3.1-134.3
		c33.1-115,80.1-164.7,152.3-161.3c31.7,1.5,53,8.6,61.5,20.6c6.1,8.6,6.6,21.7,1.5,38.8c-0.6,2-1,4-1.4,5.7
		c-0.3,1.2-0.7,2.9-0.9,3.5l-12.4,25.5l28.5,0l97.5,0.1l12.7,0l4.2-12.1C2187.6,537.7,2181.4,495,2157,460.7L2157,460.7z"/>
	<path class="st2" d="M2156.9,572l-97.5-0.1c1.6-3.3,2.1-8,3.2-11.8c16.9-56.6-17.9-79.4-79.2-82.3
		c-90.5-4.3-139.5,67.3-170.3,174.2c-33.2,115.3-5.3,185.7,95.3,185.4c79.9-0.3,75.7-16.7,75.7-16.7l32.9-103.8h-106l22.4-71.8
		h201.2l-67.2,239.7c-26.9,10.7-116.1,21.2-179.6,21.2c-95.5,0-234.2-63.6-177.2-251.1c68.2-224.3,186.5-245.5,282-245.5
		C2132.2,409.3,2181.9,499.3,2156.9,572L2156.9,572z"/>
	<path class="st1" d="M632.8,401.5H449.4l-5.2,5.3L281.2,571c17.3-57.4,33.3-110.3,44.2-146.5l6.9-23H188.7l-3.8,12.7L42.4,888.9
		l-6.9,23h144.9l3-14.2c1.7-6.9,32.3-108.7,65.9-220.6l90.3,223.5l4.5,11.2h156l-11.9-25.4l-114-243.3l225.6-210.7L632.8,401.5
		L632.8,401.5z"/>
	<path class="st2" d="M165.9,894H59.4l142.5-474.7h106.4C308.4,419.3,167.9,884.3,165.9,894z M249,629L249,629l207.9-209.7h130.7
		L352.5,639L472,894H356.1L248.9,628.5L249,629L249,629z"/>
	<path class="st1" d="M1015.9,447.8c-40.7-48.3-120.4-47.3-197.4-46.4H684l-3.8,12.7L537,888.9l-6.9,23H665l3.8-12.7l52.3-174.8
		l64.8,0c199.3,0.2,241.4-110.8,250.2-158.5C1045.7,513.9,1039.1,475.3,1015.9,447.8z"/>
	<path class="st2" d="M1018.5,562.6c-14.2,76.6-81.1,144.1-232.6,143.9l-78.1,0L651.7,894h-97.6l143.2-474.7h121
		C927.6,418,1045.5,416.3,1018.5,562.6L1018.5,562.6z"/>
	<path class="st1" d="M726.2,636.8c35.3,0,61,0.6,84.8,0.1c71.3-1.3,93.2-26,109.3-74.3c27.9-83.9-43.5-75.1-150.6-75L726.2,636.8
		L726.2,636.8z"/>
</g>
</svg>
