<?xml version="1.0" encoding="utf-8"?>
<!-- Generator: Adobe Illustrator 27.1.1, SVG Export Plug-In . SVG Version: 6.00 Build 0)  -->
<svg version="1.1" id="Layer_1" xmlns="http://www.w3.org/2000/svg" xmlns:xlink="http://www.w3.org/1999/xlink" x="0px" y="0px"
	 viewBox="0 0 600.67 189.67" style="enable-background:new 0 0 600.67 189.67;" xml:space="preserve">
<style type="text/css">
	.st0{fill:#114D8B;}
	.st1{fill:#004689;}
	.st2{fill:#FFFFFF;}
	.st3{fill:#ED1C24;}
</style>
<g>
	<polyline points="44.27,163.36 44.33,163.36 51.91,133.17 55.3,133.17 46.17,167.96 42.55,167.96 34.49,137.17 34.35,137.17 
		26.28,167.96 22.66,167.96 13.67,133.17 16.96,133.17 24.48,163.36 24.53,163.36 32.66,133.17 36.29,133.17 44.27,163.36 	"/>
	<path d="M60.88,153.74c0.59-4.78,3.28-8.9,8.42-8.9c5.2,0,7.93,3.97,7.93,8.9H60.88 M80.31,156.12
		c0.04-9.03-4.15-13.89-11.01-13.89c-7.16,0-11.53,6.05-11.53,13.36c0,7.39,3.52,13.08,11.53,13.08c6.37,0,9.37-3.63,10.81-8.37
		h-3.18c-0.88,3.62-3.9,5.74-7.62,5.74c-5.57,0-8.43-4.51-8.42-9.91H80.31z"/>
	<path d="M117.38,142.92h2.87v25.04h-2.87v-3.46c-1.58,1.69-3.68,4.15-8.08,4.15c-6.7,0-8.92-4.04-8.92-9.24v-16.5h2.92v16.48
		c0,4.25,1.9,6.63,6.42,6.63c4.79,0,7.66-4,7.66-9.46V142.92"/>
	<path d="M130.66,154.45c0-1.75,0.04-3.12,0.62-4.75c0.91-2.51,3.41-4.86,6.96-4.86c4.64,0,6.5,2.25,6.5,6.78v16.34h2.87v-16.41
		c0-2.06-0.02-3.97-1.23-5.7c-1.8-2.66-4.6-3.63-7.67-3.63c-3.49,0-5.77,1.7-8.05,4.2v-3.5h-2.94v25.04h2.94V154.45"/>
	<path d="M174.5,155.32c0,6.08-3.02,10.71-8.49,10.71c-4.89,0-8.53-3.53-8.53-9.8c-0.26-6.29,2.55-11.39,8.53-11.39
		C171.29,144.84,174.5,149.69,174.5,155.32 M174.5,146.95c-1.87-3.04-5.42-4.73-8.96-4.73c-7.67,0-11.15,6.23-11.15,13.27
		c0,7.4,3.2,13.16,11.29,13.16c3.17,0,7.01-1.81,8.71-5.1h0.12v4.41h2.89v-34.79h-2.89V146.95z"/>
	<path d="M186.95,153.74c0.56-4.78,3.27-8.9,8.4-8.9c5.22,0,7.97,3.97,7.97,8.9H186.95 M206.4,156.12
		c0.03-9.03-4.17-13.89-11.05-13.89c-7.15,0-11.49,6.05-11.49,13.36c0,7.39,3.51,13.08,11.49,13.08c6.4,0,9.38-3.63,10.85-8.37
		h-3.25c-0.88,3.62-3.82,5.74-7.6,5.74c-5.56,0-8.46-4.51-8.4-9.91H206.4z"/>
	<path d="M215.58,167.96h-2.92v-25.04h2.92v4.66h0.06c1.63-4,3.99-5.36,8.2-5.36v3.17c-6.51-0.18-8.26,4.69-8.26,10.3V167.96"/>
	<path d="M230.79,160.12c0.95,4.3,3.19,5.92,7.53,5.92c4.23,0,6.16-2.2,6.16-4.63c0-7.3-16.07-2.14-16.07-12.03
		c0-4.16,3.26-7.14,8.82-7.14c5.41,0,8.95,2.22,9.71,7.91h-2.96c-0.58-3.88-3.16-5.29-6.79-5.29c-3.67,0-5.65,1.74-5.65,4.34
		c0,6.77,16.03,2.55,16.03,12.19c0,4.76-4.3,7.29-10.22,7.29c-5.9,0-9.27-3.77-9.5-8.55H230.79"/>
	<path d="M262.6,168.06c-0.7,0.16-1.94,0.6-3.36,0.6c-2.85,0-4.45-1.28-4.45-5.01v-18.33h-3.52v-2.4h3.52v-6.96h2.91v6.96h4.69v2.4
		h-4.69v17.18c0,2.44,0.1,3.53,2.52,3.53c0.77,0,1.6-0.14,2.38-0.37V168.06"/>
	<path d="M284.1,154.8c-2.47,1.02-4.97,1.25-7.48,1.44c-4.42,0.33-7.1,1.9-7.1,5.29c0,3.03,2.68,4.51,5.42,4.51
		c4.61,0,9.16-2.2,9.16-7.3V154.8 M279.21,153.36c1.07-0.08,2.86-0.4,3.82-0.82c0.98-0.48,1.07-1.79,1.07-2.6
		c0-2.97-1.73-5.1-6.24-5.1c-4.03,0-6.73,1.3-7.29,5.68h-2.96c0.45-5.92,4.86-8.29,10.32-8.29c5.09,0,9.09,2,9.09,7.8v13.63
		c0,2.29,0.59,2.81,3.04,1.95v2.29c-0.46,0.12-1.45,0.49-2.28,0.49c-0.47,0-0.87-0.1-1.31-0.16c-1.94-0.3-2.27-2.02-2.3-3.71
		c-2.4,2.68-5.69,4.15-9.32,4.15c-4.41,0-8.36-2.35-8.36-7.21c0-4.23,2.88-6.77,8.7-7.57L279.21,153.36z"/>
	<path d="M297.97,167.96h-2.88v-25.04h2.88v3.5c2.34-2.5,4.63-4.2,8.08-4.2c3.03,0,5.87,0.96,7.64,3.63
		c1.25,1.73,1.26,3.64,1.26,5.7v16.41h-2.91v-16.34c0-4.53-1.83-6.78-6.48-6.78c-3.61,0-6.03,2.35-6.96,4.86
		c-0.58,1.63-0.64,3-0.64,4.75V167.96"/>
	<path d="M341.82,155.32c0,6.08-3.03,10.71-8.5,10.71c-4.9,0-8.48-3.53-8.57-9.8c-0.24-6.29,2.58-11.39,8.57-11.39
		C338.59,144.84,341.82,149.69,341.82,155.32 M341.82,146.95c-1.86-3.04-5.44-4.73-8.97-4.73c-7.66,0-11.19,6.23-11.19,13.27
		c0,7.4,3.25,13.16,11.31,13.16c3.2,0,7.06-1.81,8.72-5.1h0.13v4.41h2.88v-34.79h-2.88V146.95z"/>
	<path d="M366.21,174.78c0.78,0.16,1.6,0.29,2.42,0.29c3.27,0,3.77-4.77,4.91-6.92l-9.76-25.23h3.24l8.05,21.49l8.05-21.49h3.11
		l-9.3,24.71c-2.42,6.27-3.95,10.21-7.95,10.21c-1.02,0-1.99-0.17-2.77-0.31V174.78"/>
	<path d="M409.58,155.47c0,5.33-2.44,10.56-8.55,10.56c-5.56,0-8.49-4.41-8.49-10.56c0-5.44,2.4-10.63,8.49-10.63
		C407.17,144.84,409.5,149.59,409.58,155.47 M401.02,168.66c7.02,0,11.64-5.28,11.64-13.19c0-7.43-3.76-13.24-11.64-13.24
		c-7.72,0-11.6,5.9-11.6,13.24C389.42,164.19,394.66,168.56,401.02,168.66z"/>
	<path d="M435.42,142.92h2.93v25.04h-2.93v-3.46c-1.55,1.69-3.69,4.15-8.09,4.15c-6.66,0-8.91-4.04-8.91-9.24v-16.5h2.93v16.48
		c0,4.25,1.89,6.63,6.41,6.63c4.78,0,7.65-4,7.65-9.46V142.92"/>
	<path d="M448.87,167.96h-2.93v-25.04h2.93v4.66h0.09c1.59-4,3.96-5.36,8.17-5.36v3.17c-6.54-0.18-8.26,4.69-8.26,10.3V167.96"/>
	<polyline points="497.51,164.11 504.06,142.92 507.06,142.92 498.92,167.96 495.84,167.96 490.35,146.95 490.26,146.95 
		484.7,167.96 481.24,167.96 473.56,142.92 476.48,142.92 482.94,164.29 488.75,142.92 492,142.92 497.51,164.11 	"/>
	<path d="M530.21,155.47c0,5.33-2.42,10.56-8.55,10.56c-5.55,0-8.48-4.41-8.48-10.56c0-5.44,2.42-10.63,8.48-10.63
		C527.81,144.84,530.15,149.59,530.21,155.47 M521.67,168.66c7.04,0,11.64-5.28,11.64-13.19c0-7.43-3.76-13.24-11.64-13.24
		c-7.71,0-11.57,5.9-11.57,13.24C510.1,164.19,515.3,168.56,521.67,168.66z"/>
	<path d="M542.15,155.69c0-5.61,1.74-10.48,8.25-10.3v-3.17c-4.22,0-6.55,1.36-8.17,5.36h-0.08v-4.66h-2.92v25.04h2.92V155.69"/>
	<rect x="556.13" y="133.17" width="2.91" height="34.79"/>
	<path d="M586.29,155.32c0,6.08-3.04,10.71-8.51,10.71c-4.86,0-8.52-3.53-8.54-9.8c-0.25-6.29,2.56-11.39,8.54-11.39
		C583.04,144.84,586.29,149.69,586.29,155.32 M586.29,146.95c-1.87-3.04-5.48-4.73-8.98-4.73c-7.65,0-11.17,6.23-11.17,13.27
		c0,7.4,3.24,13.16,11.28,13.16c3.19,0,7.03-1.81,8.74-5.1h0.12v4.41h2.85v-34.79h-2.85V146.95z"/>
	<rect x="13.85" y="13.81" class="st0" width="575.48" height="96"/>
	<rect x="109.76" y="13.81" class="st1" width="479.57" height="96"/>
	<polyline class="st2" points="140.24,84.52 140.24,39.15 155.19,39.15 155.19,54.45 169.18,54.45 169.18,39.15 184.13,39.15 
		184.13,84.52 169.18,84.52 169.18,66.9 155.19,66.9 155.19,84.52 140.24,84.52 	"/>
	<path class="st2" d="M207.74,50.41h3.9c2.75,0,4.8,0.34,6.13,0.9c0.93,0.4,1.71,1.03,2.41,1.95c0.63,0.97,1.14,2.1,1.52,3.59
		c0.34,1.44,0.5,3.04,0.5,4.62c0,2.68-0.35,4.9-1.12,6.66c-0.78,1.84-1.86,3.11-3.28,3.91c-1.43,0.78-3.5,1.15-6.3,1.15l-3.76,0.07
		V50.41 M213.51,84.52c3.51,0,6.42-0.3,8.82-0.9c2.39-0.61,4.36-1.43,5.87-2.44c1.5-0.98,2.89-2.35,4.16-4.04
		c1.22-1.7,2.35-3.91,3.22-6.57c0.84-2.67,1.28-5.66,1.28-9.1c0-4.99-0.95-9.2-2.86-12.69c-1.96-3.46-4.63-5.96-8.01-7.42
		c-3.41-1.48-7.41-2.2-12.12-2.2h-20.71v45.37H213.51z"/>
	<polyline class="st2" points="243.72,84.52 243.72,39.15 279.12,39.15 279.12,50.38 258.45,50.38 258.45,57.65 274.94,57.65 
		274.94,68.51 258.45,68.51 258.45,84.52 243.72,84.52 	"/>
	<path class="st2" d="M329.09,56.48H315c-0.26-2.24-1.08-4.02-2.46-5.29c-1.37-1.28-3.09-1.86-5.19-1.86
		c-2.65,0-4.82,1.05-6.45,3.02c-1.69,2.04-2.49,5.38-2.49,9.95c0,3.16,0.36,5.6,1.05,7.21c0.72,1.66,1.7,2.87,3,3.68
		c1.23,0.81,2.77,1.18,4.72,1.18c2.27,0,4.11-0.6,5.45-1.93c1.36-1.23,2.18-3.08,2.43-5.55h14.36c-0.32,2.81-0.88,5.18-1.71,7.11
		c-0.77,1.93-2.17,3.8-4.1,5.72c-1.87,1.96-4.2,3.46-6.82,4.5c-2.65,1.06-5.68,1.55-9.17,1.55c-3.47,0-6.7-0.5-9.6-1.54
		c-2.93-1.02-5.42-2.5-7.38-4.33c-2.04-1.92-3.59-4.07-4.74-6.5c-1.6-3.39-2.35-7.16-2.35-11.37c0-3.44,0.55-6.82,1.7-9.79
		c1.13-3.06,2.74-5.61,4.76-7.71c2.02-2.04,4.2-3.61,6.69-4.64c3.1-1.32,6.51-1.97,10.32-1.97c3.31,0,6.37,0.49,9.29,1.47
		c2.84,0.98,5.22,2.41,7.08,4.29c1.85,1.93,3.28,4.07,4.29,6.53C328.38,51.94,328.83,54.03,329.09,56.48"/>
	<path class="st2" d="M376.92,49.37c2.1,0,3.47,0.08,4.14,0.29c0.86,0.22,1.6,0.74,2.11,1.4c0.53,0.66,0.8,1.46,0.8,2.39
		c0,1.15-0.47,2.09-1.32,2.83c-0.93,0.7-2.55,1.05-4.87,1.05h-5.65v-7.96H376.92 M380.65,84.52c3.54,0,6.04-0.17,7.5-0.49
		c1.43-0.31,2.9-0.85,4.42-1.56c1.47-0.76,2.58-1.51,3.36-2.28c1.14-1.1,1.99-2.4,2.64-3.95c0.61-1.57,0.93-3.37,0.93-5.29
		c0-2.71-0.69-5-2.04-6.81c-1.4-1.86-3.22-3.11-5.54-3.72c3.94-2.48,5.89-5.69,5.89-9.62c0-4.04-1.74-7.12-5.17-9.2
		c-2.63-1.62-6.79-2.44-12.39-2.44h-22.53v45.37H380.65z M378.26,65.52c2.94,0,4.86,0.35,5.82,1.11c0.9,0.72,1.39,1.76,1.39,3.16
		c0,1.33-0.48,2.4-1.46,3.17c-0.93,0.8-2.86,1.17-5.75,1.17h-6.13v-8.61H378.26z"/>
	<path class="st2" d="M432.29,69.25h-9.49l4.68-16.49L432.29,69.25 M418.35,84.52l1.7-5.95h14.86l1.73,5.95h14.86l-16.27-45.37
		h-15.18l-16.29,45.37H418.35z"/>
	<polyline class="st2" points="457.77,84.52 457.77,39.15 471.66,39.15 487.36,63.45 487.36,39.15 501.64,39.15 501.64,84.52 
		487.45,84.52 472.08,60.87 472.08,84.52 457.77,84.52 	"/>
	<polyline class="st2" points="511.61,84.52 511.61,39.15 526.05,39.15 526.05,54.12 539.57,39.15 557.09,39.15 540.47,56.22 
		558.8,84.52 540.94,84.52 530.04,66.46 526.05,70.36 526.05,84.52 511.61,84.52 	"/>
	<rect x="13.85" y="13.81" class="st3" width="95.91" height="96"/>
	<rect x="30.62" y="30.67" class="st2" width="62.35" height="62.34"/>
	<rect x="56.99" y="13.81" class="st2" width="9.61" height="96"/>
	<rect x="13.85" y="57.01" class="st2" width="95.91" height="9.62"/>
	<rect x="47.41" y="47.44" class="st1" width="28.77" height="28.8"/>
</g>
</svg>
