<?xml version="1.0" encoding="utf-8"?>
<!-- Generator: Adobe Illustrator 27.1.1, SVG Export Plug-In . SVG Version: 6.00 Build 0)  -->
<svg version="1.1" id="Layer_1" xmlns="http://www.w3.org/2000/svg" xmlns:xlink="http://www.w3.org/1999/xlink" x="0px" y="0px"
	 viewBox="0 0 1251.745 200.851" enable-background="new 0 0 1251.745 200.851" xml:space="preserve">
<g>
	<defs>
		<rect id="SVGID_1_" x="-14.128" y="-299.574" width="1280" height="800"/>
	</defs>
	<clipPath id="SVGID_00000124143148609317818030000001698086676694188181_">
		<use xlink:href="#SVGID_1_"  overflow="visible"/>
	</clipPath>
	<path clip-path="url(#SVGID_00000124143148609317818030000001698086676694188181_)" fill="#DC052B" d="M242.871,91.344h71.446
		c16.146,0,29.466,12.973,29.466,28.813v65.955H236.952c-9.822,0-17.895-7.92-17.895-17.615v-22.942
		c0-9.012,7.535-16.385,16.684-16.385h59.202l-6.324,13.382h-43.594c-1.884,0-4.036,1.501-4.036,3.55v18.025
		c0,2.049,2.152,3.55,4.036,3.55h75.616v-43.288c0-8.329-7.4-14.747-15.607-14.747h-70.908L242.871,91.344z M829.638,56.932v129.317
		H725.501c-9.826,0-17.9-7.92-17.9-17.615v-48.477c0-15.84,13.323-28.813,29.468-28.813h59.338l-8.745,18.435h-41.445
		c-8.207,0-15.608,6.418-15.608,14.747v39.737c0,2.048,2.152,3.551,4.039,3.551h71.848V56.932H829.638z M463.802,186.249h23.007
		v-65.955c0-15.841-13.32-28.813-29.466-28.813h-48.976l-8.746,18.435h48.573c8.207,0,15.608,6.418,15.608,14.747V186.249z
		 M367.868,186.249h23.008V56.933h-23.008V186.249z M175.598,186.249h23.008v-65.955c0-15.841-13.321-28.813-29.467-28.813H18.04
		v94.768H41.05v-72.92c0-2.048,2.152-3.55,4.036-3.55h47.63c1.884,0,4.037,1.502,4.037,3.55v72.92h23.008v-72.92
		c0-2.048,2.152-3.55,4.036-3.55h36.194c8.207,0,15.607,6.418,15.607,14.747V186.249z M949.927,91.344h-57.859
		c-16.144,0-29.467,12.973-29.467,28.813v65.955h23.008v-61.586c0-8.329,7.401-14.747,15.608-14.747h39.96L949.927,91.344z
		 M654.857,91.344c16.146,0,29.468,12.973,29.468,28.813v65.955h-23.008v-61.586c0-8.329-7.401-14.747-15.608-14.747h-55.433v76.47
		h-23.008V91.481C596.332,91.481,625.531,91.344,654.857,91.344 M515.467,97.352l23.008-13.382v102.142h-23.008V97.352z
		 M538.609,70.725V56.659h-23.007V83.97L538.609,70.725z M966.073,91.344h71.31c16.145,0,29.466,12.973,29.466,28.813v65.955
		H960.016c-9.82,0-17.892-7.92-17.892-17.615v-22.942c0-9.012,7.529-16.385,16.682-16.385h59.199l-6.326,13.382H968.09
		c-1.883,0-4.039,1.501-4.039,3.55v18.025c0,2.049,2.156,3.55,4.039,3.55h75.617v-43.288c0-8.329-7.401-14.747-15.608-14.747
		h-70.911L966.073,91.344z"/>
	<path clip-path="url(#SVGID_00000124143148609317818030000001698086676694188181_)" fill="#DC052B" d="M1214.853,36.587h3.63
		c4.98,0,8.342,0.956,7.4,6.691c-0.806,4.78-3.361,6.282-6.588,6.282h-14.129C1206.243,42.596,1206.646,36.587,1214.853,36.587
		 M1079.36,19.928h16.958c7.669,0,11.299,3.14,10.089,10.924c-1.345,8.876-8.611,11.061-16.414,11.061h-13.86L1079.36,19.928z
		 M1088.917,46.419l12.375,24.716h9.014l-13.585-25.672c8.341-0.956,15.473-3.414,17.221-14.611
		c1.345-9.286-3.367-16.25-13.726-16.25h-27.847c-2.83,18.845-5.653,37.689-8.348,56.533h8.073l3.636-24.579h13.187V46.419z
		 M1185.251,32.218l-2.823,4.779h-14.935c-2.152,0-4.981,0.137-6.326,1.365c-1.343,1.093-2.016,3.687-1.478,5.463
		c0.672,2.321,3.496,3.004,6.056,3.687l12.644,3.004c6.056,1.502,9.417,5.462,8.207,11.88c-1.345,7.101-6.19,9.013-12.778,9.013
		h-25.838l2.829-4.78h17.355c4.846,0,9.284-0.136,10.359-5.872c0.806-4.233-3.63-5.735-6.862-6.554l-12.51-3.004
		c-5.518-1.366-8.611-4.916-7.535-10.652c1.211-6.554,5.512-8.329,11.569-8.329H1185.251z M1132.507,19.108h8.072l-0.806,4.916
		l-8.745,5.053L1132.507,19.108z M1130.087,35.768l8.745-5.053l-6.056,40.284h-7.938L1130.087,35.768z M1197.766,49.56
		c-1.479,10.241-3.366,21.712,11.568,21.712h16.684l2.829-4.779h-14.666c-10.768,0-11.171-4.234-9.821-12.7h16.683
		c7.669,0,11.165-1.775,12.51-10.651c1.216-7.237-5.109-11.607-11.972-11.607h-6.863
		C1202.607,31.671,1199.514,39.455,1197.766,49.56"/>
</g>
</svg>
