<svg width="95" height="161" viewBox="0 0 95 161" fill="none" xmlns="http://www.w3.org/2000/svg">
<g clip-path="url(#clip0_4970_1963)">
<path d="M66.2773 0.0561523C70.3748 1.40483 74.4597 2.78264 78.5698 4.08969C90.1501 7.76941 101.73 11.4366 113.323 15.0747C115.514 15.7616 117.215 16.8813 117.651 19.2831C118.146 22.0013 116.436 24.503 113.617 25.0275C109.41 25.8142 105.191 26.5343 100.959 27.1837C99.8157 27.3585 99.359 27.7123 99.4051 28.932C99.5015 31.5294 99.5266 34.1394 99.3883 36.7326C99.3297 37.8232 99.0657 39.1095 98.4121 39.9129C97.591 40.916 97.4485 41.8818 97.4527 43.0431C97.4779 48.4004 97.4192 53.7618 97.4904 59.119C97.5365 62.5198 96.2461 64.93 92.932 66.1413C92.5633 66.2745 92.1653 66.8323 92.1067 67.236C91.076 74.4206 87.674 80.2441 82.0849 84.8521C80.9537 85.7845 81.1423 88.1863 82.3824 88.998C88.7172 93.1273 95.0101 97.3232 101.433 101.311C102.975 102.268 104.944 102.568 106.737 103.101C111.036 104.379 115.401 105.473 119.038 108.317C125.431 113.312 128.54 119.889 128.582 127.926C128.62 135.053 128.607 142.183 128.582 149.31C128.561 154.7 125.859 158.18 120.622 159.67C120.479 159.712 120.354 159.82 120.219 159.899H9.82542C9.43578 159.766 9.04614 159.633 8.66069 159.5C4.65953 158.113 2.14572 155.416 1.62201 151.174C1.38739 149.276 1.44185 147.332 1.49213 145.409C1.53403 143.815 2.53117 142.916 3.94729 142.974C5.30475 143.032 6.10079 143.902 6.15106 145.484C6.19715 146.887 6.1343 148.294 6.1762 149.697C6.27675 153.093 8.43863 155.187 11.8616 155.208C14.9955 155.225 18.1336 155.204 21.2675 155.196C21.368 155.196 21.4644 155.15 21.8037 155.066C21.8037 153.543 21.8037 151.957 21.8037 150.367C21.8037 148.756 21.7786 147.141 21.8121 145.53C21.8498 143.848 22.7925 142.783 24.1751 142.779C25.5619 142.779 26.4878 143.836 26.5004 145.526C26.5213 148.689 26.5087 151.853 26.5087 155.112H103.536C103.536 152.523 103.536 149.988 103.536 147.453C103.536 146.829 103.528 146.204 103.536 145.58C103.574 143.861 104.429 142.812 105.807 142.783C107.244 142.749 108.208 143.84 108.229 145.634C108.258 148.182 108.237 150.733 108.237 153.281C108.237 153.851 108.237 154.417 108.237 155.096C108.706 155.137 109.108 155.208 109.506 155.208C112.435 155.216 115.359 155.233 118.288 155.208C121.481 155.183 123.806 153.197 123.835 150.067C123.906 141.954 124.07 133.825 123.684 125.729C123.307 117.786 117.752 111.33 110.085 108.995C107.541 108.221 104.994 107.447 102.417 106.793C101.756 106.627 100.846 106.718 100.268 107.059C89.3373 113.47 78.419 119.901 67.5551 126.42C65.7535 127.498 64.3458 127.514 62.5359 126.424C51.7642 119.955 40.9213 113.599 30.1203 107.176C29.2027 106.631 28.4025 106.443 27.3467 106.797C25.122 107.538 22.8428 108.117 20.5971 108.791C11.5558 111.501 6.22648 118.615 6.17201 128.031C6.15944 130.112 6.20134 132.193 6.14268 134.274C6.10079 135.69 5.19581 136.58 3.93472 136.63C2.67781 136.68 1.55079 135.823 1.53403 134.462C1.46699 129.429 1.03546 124.355 2.8454 119.485C5.7279 111.722 11.2164 106.731 19.1433 104.35C21.0412 103.779 22.9978 103.371 24.8454 102.676C26.8691 101.91 28.9262 101.094 30.7487 99.9581C36.321 96.4782 41.7927 92.8359 47.3022 89.2561C49.087 88.0947 49.2085 85.9135 47.5913 84.5399C42.2997 80.0401 39.0443 74.4082 37.9801 67.5274C37.8963 66.9946 37.4271 66.2911 36.9494 66.083C33.8994 64.751 32.6047 62.9444 32.588 59.5686C32.5628 53.845 32.6047 48.1215 32.5335 42.4021C32.5251 41.6611 32.0014 40.9327 31.75 40.1876C31.3562 39.0304 30.7361 37.8815 30.6649 36.7035C30.5015 34.0062 30.6482 31.2963 30.5769 28.5906C30.5644 28.1619 30.1454 27.4376 29.8144 27.3752C26.2825 26.705 22.7297 26.1389 19.0469 25.5228V36.2664C20.463 37.1989 22.0928 37.7691 22.8637 38.918C23.6556 40.0918 23.9279 41.8401 23.8776 43.3178C23.6681 49.6366 25.4446 55.6724 26.2993 61.833C26.5004 63.2733 26.8314 64.6969 27.0325 66.1371C27.5478 69.8168 25.2728 72.4434 21.5356 72.4767C18.2425 72.5059 14.9494 72.5059 11.6563 72.4767C7.78085 72.4434 5.51004 69.6628 6.1762 65.8582C7.16916 60.1763 8.23334 54.5027 9.08384 48.8C9.39807 46.7104 9.20534 44.5458 9.2221 42.4146C9.25143 39.0928 10.7471 37.3404 14.2204 36.7701C14.2204 32.7532 14.233 28.7072 14.1953 24.6612C14.1953 24.3073 13.902 23.9161 13.6548 23.6122C11.1075 20.4278 12.2219 16.5649 16.1393 15.3203C30.5476 10.7248 44.9685 6.17931 59.381 1.60047C60.8558 1.13426 62.3054 0.572312 63.7676 0.0561523C64.6056 0.0561523 65.4393 0.0561523 66.2773 0.0561523ZM37.2804 54.0365C37.2804 56.0803 37.293 57.8453 37.2762 59.6102C37.2637 60.8423 37.7581 61.4875 39.0611 61.6956C41.3277 62.0536 42.2536 63.1775 42.4673 65.4794C43.5691 77.2304 53.3144 86.1674 65.0287 86.1633C76.6802 86.1633 86.4171 77.2887 87.5692 65.6209C87.8206 63.0776 88.6502 62.2409 91.1388 61.5957C91.7505 61.4376 92.6136 60.7299 92.6597 60.2138C92.8399 58.224 92.7309 56.2052 92.7309 54.0656C92.0522 54.0656 91.5411 54.0656 91.0257 54.0656C85.4493 54.0448 82.529 51.1435 82.5207 45.6073C82.5207 44.3876 82.5207 43.168 82.5207 41.965H47.5996C47.2938 45.0911 48.1862 48.3213 46.0536 51.0686C43.8289 53.9324 40.7411 54.2613 37.2846 54.0365H37.2804ZM35.3993 37.074H94.6456V27.5916C93.284 27.4168 91.9894 27.2919 90.7157 27.0713C89.0985 26.7882 88.3276 25.81 88.5077 24.3989C88.6711 23.0919 89.6683 22.3717 91.231 22.4592C91.8553 22.4925 92.4796 22.5965 93.1038 22.634C94.809 22.7339 96.5477 23.0711 98.211 22.8588C102.246 22.3468 106.251 21.5892 110.265 20.9065C111.174 20.7525 112.071 20.5194 112.971 20.3196C112.548 19.8242 112.184 19.6494 111.798 19.5287C96.5394 14.6959 81.2847 9.85903 66.0133 5.07206C65.3346 4.85977 64.4673 4.93053 63.776 5.14699C49.3048 9.68836 34.842 14.2714 20.3834 18.8502C19.269 19.204 18.1713 19.5995 16.6797 20.1031C17.4129 20.3737 17.7188 20.5444 18.0498 20.6026C21.3429 21.1646 24.636 21.7182 27.9332 22.2469C29.8354 22.5507 31.7752 23.1751 33.6438 23.0128C38.9437 22.5507 44.2186 21.7807 49.5017 21.0938C57.7931 20.0157 66.0761 18.8336 74.4471 20.3362C76.19 20.6484 77.9707 20.765 79.7303 20.9939C81.3727 21.2062 82.3782 22.2968 82.2064 23.6372C82.0347 24.9734 80.9663 25.7434 79.3575 25.6602C78.8882 25.6352 78.4232 25.5478 77.9581 25.5103C72.9179 25.1149 67.8735 24.4364 62.8333 24.4281C58.7861 24.4197 54.7347 25.1981 50.6916 25.6768C45.6179 26.2804 40.5526 26.9339 35.4118 27.575V37.074H35.3993ZM53.3982 88.2695C53.1845 92.4862 53.6663 96.4116 54.5922 100.308C54.7933 101.157 55.1536 101.469 56.0125 101.611C61.568 102.535 67.1278 102.547 72.7 101.827C75.1887 101.507 75.1929 101.536 75.7208 99.0298C75.8926 98.2181 76.1188 97.4064 76.1942 96.5864C76.4414 93.889 76.6342 91.1875 76.873 88.1613C68.8162 91.6704 61.1658 91.6454 53.3982 88.2695ZM96.51 103.783C91.407 100.462 86.4548 97.2441 81.2763 93.8765C80.4468 102.576 77.6104 110.365 73.1148 117.628C80.8448 113.054 88.5748 108.479 96.51 103.788V103.783ZM33.5474 103.788C41.4743 108.475 49.2043 113.041 56.9342 117.612C52.3633 110.31 49.6568 102.514 48.735 93.9057C43.5482 97.2815 38.6295 100.483 33.5474 103.788ZM22.2562 67.6773C22.3107 67.3942 22.407 67.1861 22.3735 67.0029C21.5021 61.7872 20.6306 56.5673 19.7005 51.36C19.646 51.0561 19.1181 50.6273 18.7913 50.6107C17.082 50.5358 15.3684 50.5774 13.5836 50.5774C12.6032 56.3217 11.6479 61.9204 10.6675 67.6773H22.2562ZM64.9575 120.734C68.4978 116.25 72.6204 109.132 73.14 106.793H56.775C58.6981 111.759 61.9912 116.051 64.9575 120.734ZM37.3475 49.312C38.441 49.312 39.5345 49.4452 40.5819 49.2787C41.8095 49.0789 42.6851 48.2547 42.7564 46.9643C42.8485 45.3242 42.7773 43.6758 42.7773 41.9567H37.3475V49.312ZM87.2299 41.9359C87.2299 43.6134 87.1838 45.1161 87.2424 46.6146C87.3011 48.1298 88.2605 49.1912 89.7227 49.3328C90.6864 49.4244 91.6667 49.3494 92.6304 49.3494V41.9317H87.2299V41.9359ZM19.1223 45.8237V41.6445H14.0654V45.8237H19.1223Z" fill="#F4F4F4"/>
</g>
<defs>
<clipPath id="clip0_4970_1963">
<rect width="94.3202" height="160.288" fill="white" transform="translate(0.535156 0.0561523)"/>
</clipPath>
</defs>
</svg>
