<svg width="114" height="152" viewBox="0 0 114 152" fill="none" xmlns="http://www.w3.org/2000/svg">
<path d="M41.032 151.783C42.1539 150.148 43.6008 148.647 44.3263 146.854C45.5591 143.821 47.4619 142.202 50.7879 142.213C51.8582 142.213 52.9285 141.873 53.9989 141.683C56.2902 141.275 57.202 140 56.869 137.704C56.7857 137.122 56.7421 136.536 56.6668 135.784C58.0899 135.784 59.4139 135.784 60.738 135.784C64.052 135.784 67.3661 135.799 70.6762 135.776C72.6028 135.76 73.9149 134.572 73.9546 132.882C73.9942 131.136 72.6504 129.873 70.6564 129.865C66.4028 129.841 62.1492 129.857 57.8996 129.857C57.4239 129.857 56.9522 129.857 56.1078 129.857C57.8877 128.02 59.4219 126.444 60.9441 124.86C62.7994 122.928 62.8112 121.538 60.9838 119.642C59.513 118.11 57.9868 116.621 56.5835 115.029C56.1911 114.586 55.9215 113.818 55.981 113.236C56.199 111.027 56.5677 108.837 56.8888 106.64C57.198 104.514 56.3298 103.247 54.1852 102.831C52.0049 102.407 49.7969 102.118 47.6284 101.627C47.014 101.489 46.3084 100.982 45.9873 100.44C44.8535 98.5352 43.8863 96.5318 42.8159 94.5839C41.7694 92.6755 40.3343 92.2084 38.3443 93.1388C36.5565 93.9742 34.7448 94.7819 33.0323 95.7598C31.8113 96.4566 30.8203 96.3735 29.6112 95.736C27.308 94.5205 24.9216 93.4714 22.4083 92.2757V65.1035C23.106 65.9666 23.657 66.6871 24.2477 67.3761C30.9947 75.2906 39.5455 79.5349 49.9792 79.7724C55.2674 79.8912 60.5596 79.8041 65.8518 79.808C66.387 79.808 66.9221 79.808 67.6714 79.808C67.6714 80.4574 67.6714 80.98 67.6714 81.5066C67.6714 85.2599 67.6594 89.0133 67.6753 92.7666C67.6872 95.2332 68.7496 96.3339 71.1717 96.3378C79.9722 96.3537 88.7767 96.3537 97.5772 96.3378C99.924 96.3339 101.01 95.2213 101.022 92.8656C101.042 89.1122 101.026 85.3589 101.026 81.6055C101.026 81.075 101.026 80.5405 101.026 79.808C101.692 79.808 102.215 79.808 102.742 79.808C108.035 79.8041 113.327 79.8991 118.615 79.7724C129.747 79.5032 138.674 74.8234 145.492 66.0655C145.698 65.8003 145.912 65.5429 146.368 64.9688C146.368 65.7607 146.368 66.2239 146.368 66.6871C146.368 86.2933 146.368 105.903 146.368 125.509C146.368 128.709 145.211 129.853 141.976 129.853C127.634 129.853 113.295 129.853 98.9527 129.853C98.4096 129.853 97.8586 129.821 97.3235 129.892C95.8171 130.098 94.723 131.377 94.7467 132.854C94.7666 134.275 95.821 135.503 97.26 135.728C97.7436 135.803 98.2471 135.776 98.7387 135.776C113.18 135.776 127.618 135.776 142.059 135.776C148.489 135.776 152.299 131.975 152.303 125.561C152.303 96.6189 152.303 67.677 152.303 38.735C152.303 32.3408 148.469 28.5202 142.051 28.5162C135.229 28.5122 128.403 28.5162 121.58 28.5162C121.045 28.5162 120.51 28.5162 119.804 28.5162C119.804 27.8035 119.804 27.2215 119.804 26.6395C119.781 21.9478 119.915 17.2482 119.697 12.5684C119.38 5.69123 113.573 0.116627 106.659 0.0770348C91.7736 -0.00610903 76.8881 -0.0100683 62.0065 0.0770348C55.1525 0.116627 49.3885 5.616 49.0159 12.4536C48.7662 17.0344 48.9128 21.635 48.8851 26.2278C48.8811 26.9167 48.8851 27.6056 48.8851 28.5162H47.2241C40.4493 28.5162 33.6745 28.5162 26.8997 28.5162C20.1447 28.5162 16.4065 32.226 16.4026 38.929C16.4026 59.129 16.4026 79.329 16.4026 99.529C16.4026 100.115 16.4026 100.697 16.4026 101.39C14.0637 101.806 11.8398 102.221 9.60397 102.589C6.20667 103.152 5.49312 104.086 5.96486 107.451C6.23839 109.407 6.56743 111.355 6.7458 113.319C6.79338 113.857 6.55156 114.566 6.19081 114.974C4.2999 117.108 2.32573 119.167 0.38327 121.253V123.031C2.30591 125.137 4.26422 127.212 6.11946 129.374C6.5238 129.849 6.76561 130.668 6.70615 131.294C6.49208 133.499 6.10361 135.689 5.80234 137.886C5.52881 139.881 6.48418 141.224 8.47815 141.631C9.34631 141.81 10.2303 142.055 11.1064 142.047C15.0904 142.027 17.4372 144.003 18.8247 147.665C19.3995 149.186 20.7473 150.413 21.7463 151.775H23.5262C25.8928 150.595 28.2475 149.388 30.6419 148.263C31.0462 148.073 31.7003 148.097 32.1166 148.287C34.5189 149.403 36.8815 150.603 39.2561 151.775H41.036L41.032 151.783ZM84.3011 34.4471C103.583 34.4471 122.861 34.4471 142.143 34.4471C145.147 34.4471 146.364 35.6745 146.372 38.6677C146.376 41.1382 146.392 43.6048 146.364 46.0754C146.182 61.2155 133.834 73.7425 118.663 73.8296C95.7734 73.9603 72.8843 73.9405 49.999 73.8296C37.3057 73.7702 26.2615 64.7828 23.1773 52.4695C22.0674 48.0352 22.3964 43.5454 22.3488 39.0636C22.3092 35.5201 23.4033 34.4432 26.9116 34.4432C46.0428 34.4432 65.1739 34.4432 84.3051 34.4432L84.3011 34.4471ZM23.9821 144.878C22.9871 143.013 22.0317 141.346 21.1952 139.62C20.5055 138.195 19.455 137.454 17.8891 137.245C15.9942 136.991 14.1152 136.595 12.0856 136.239C12.3749 134.046 12.6207 131.955 12.9339 129.873C13.1202 128.645 12.8071 127.612 11.8992 126.792C10.3611 125.399 8.79527 124.037 7.14618 122.58C8.91817 120.739 10.2937 119.258 11.7327 117.844C12.7278 116.866 13.144 115.786 12.9141 114.38C12.5811 112.357 12.3631 110.318 12.0856 108.219C14.1945 107.831 16.125 107.412 18.0754 107.143C19.5501 106.941 20.4936 106.208 21.1437 104.91C22.0396 103.12 23.0188 101.374 23.986 99.5607C25.8611 100.471 27.6133 101.267 29.306 102.166C30.6934 102.902 31.9818 102.926 33.3772 102.174C35.1016 101.247 36.8934 100.444 38.7249 99.5527C39.601 101.188 40.5286 102.653 41.1985 104.233C42.0508 106.256 43.5136 107.139 45.6265 107.352C47.2756 107.519 48.897 107.919 50.6412 108.231C50.3598 110.338 50.1734 112.298 49.8127 114.226C49.5392 115.695 49.9594 116.819 50.9782 117.836C52.4013 119.262 53.7848 120.731 55.5608 122.576C53.9077 124.041 52.3339 125.395 50.8037 126.796C49.8682 127.659 49.5669 128.736 49.781 130.027C50.118 132.054 50.3479 134.097 50.6333 136.215C48.6195 136.579 46.792 136.991 44.9447 137.221C43.252 137.431 42.1618 138.258 41.4324 139.775C40.6118 141.485 39.6604 143.136 38.7289 144.886C36.7309 143.916 34.8994 143.069 33.1037 142.146C31.8986 141.529 30.7648 141.548 29.5676 142.154C27.7679 143.061 25.9404 143.924 23.9741 144.878H23.9821ZM54.9305 28.4331C54.9305 23.0327 54.7441 17.7471 54.9939 12.4853C55.1762 8.66065 58.6053 5.98421 62.7003 5.98025C77.1378 5.96441 91.5714 5.96441 106.009 5.98025C110.504 5.98421 113.743 9.05657 113.834 13.5265C113.933 18.2657 113.862 23.0049 113.854 27.7441C113.854 27.9698 113.775 28.1995 113.731 28.4251H107.932C107.932 27.7996 107.932 27.269 107.932 26.7345C107.932 23.0802 107.94 19.4258 107.932 15.7714C107.924 12.8416 106.956 11.8993 103.995 11.8993C91.3375 11.8993 78.6839 11.8993 66.0262 11.8993C61.2097 11.8993 60.7539 12.3507 60.7539 17.1215C60.7539 20.863 60.7539 24.6045 60.7539 28.4331H54.9344H54.9305ZM66.8151 28.4331V17.9253H101.922V28.4331H66.8151ZM73.689 90.3633V79.9229H94.9766V90.3633H73.689Z" fill="#F4F4F4"/>
<path d="M81.395 132.743C81.3554 134.378 82.7111 135.772 84.3483 135.772C85.9261 135.772 87.266 134.469 87.3056 132.894C87.3492 131.266 85.9855 129.869 84.3483 129.869C82.7666 129.869 81.4347 131.167 81.395 132.747V132.743Z" fill="#F4F4F4"/>
<path d="M28.1334 123.399C30.9837 120.544 33.5406 117.947 36.145 115.397C36.6564 114.895 37.2907 114.384 37.9567 114.202C39.253 113.841 40.4065 114.253 41.1637 115.445C41.9129 116.625 41.8931 117.896 40.9496 118.866C37.4056 122.508 33.8101 126.103 30.1631 129.647C29.0214 130.755 27.4714 130.684 26.2742 129.56C24.3001 127.699 22.3734 125.778 20.5063 123.811C19.3884 122.631 19.4677 120.901 20.5222 119.788C21.6242 118.624 23.3883 118.501 24.641 119.669C25.8302 120.774 26.8688 122.037 28.1334 123.399Z" fill="#F4F4F4"/>
</svg>
