<?xml version="1.0" encoding="utf-8"?>
<!-- Generator: Adobe Illustrator 27.1.1, SVG Export Plug-In . SVG Version: 6.00 Build 0)  -->
<svg version="1.1" id="Layer_1" xmlns="http://www.w3.org/2000/svg" xmlns:xlink="http://www.w3.org/1999/xlink" x="0px" y="0px"
	 viewBox="0 0 130 22" enable-background="new 0 0 130 22" xml:space="preserve">
<g>
	<g id="Siemens">
		
			<path id="path-1_00000108277229085374183760000008426528024967085492_" fill-rule="evenodd" clip-rule="evenodd" fill="#00CCCC" d="
			M7.971,0c1.3,0,3.182,0.25,5.644,0.752v3.92c-1.831-0.766-3.532-1.148-5.102-1.148c-2.212,0-3.318,0.636-3.318,1.909
			c0,0.476,0.223,0.865,0.669,1.166c0.371,0.244,1.393,0.758,3.064,1.546c2.406,1.118,4.008,2.09,4.806,2.917
			c0.947,0.981,1.421,2.25,1.421,3.805c0,2.236-0.929,3.942-2.787,5.117c-1.505,0.953-3.456,1.427-5.853,1.427
			c-2.024,0-4.063-0.249-6.116-0.751v-4.075c2.217,0.73,4.178,1.095,5.884,1.095c2.356,0,3.534-0.652,3.534-1.954
			c0-0.485-0.171-0.893-0.515-1.224c-0.351-0.351-1.251-0.836-2.698-1.459c-2.595-1.117-4.287-2.069-5.075-2.856
			C0.51,9.148,0,7.837,0,6.253c0-2.04,0.743-3.595,2.229-4.664C3.698,0.529,5.611,0,7.971,0z M122.307,0
			c1.327,0,3.046,0.22,5.155,0.663l0.487,0.088v3.92c-1.832-0.766-3.537-1.148-5.116-1.148c-2.204,0-3.303,0.636-3.303,1.909
			c0,0.476,0.222,0.865,0.666,1.166c0.354,0.234,1.38,0.749,3.079,1.546c2.388,1.118,3.987,2.09,4.792,2.917
			c0.949,0.981,1.422,2.25,1.422,3.805c0,2.236-0.924,3.942-2.772,5.117c-1.514,0.953-3.47,1.427-5.866,1.427
			c-2.026,0-4.066-0.249-6.118-0.751v-4.075c2.198,0.73,4.159,1.095,5.886,1.095c2.356,0,3.533-0.652,3.533-1.954
			c0-0.485-0.167-0.893-0.499-1.224c-0.353-0.351-1.257-0.836-2.712-1.459c-2.587-1.107-4.281-2.059-5.076-2.856
			c-1.02-1.031-1.529-2.347-1.529-3.949c0-2.031,0.741-3.581,2.228-4.65C118.032,0.529,119.947,0,122.307,0z M53.92,0.359
			l4.962,13.186l5.086-13.186h6.784v20.636h-5.223V6.384l-5.783,14.82h-3.415l-5.672-14.82v14.611h-3.881V0.359H53.92z
			 M23.775,0.359v20.636h-5.509V0.359H23.775z M42.955,0.359v3.733h-8.819v4.66h7.676v3.404h-7.676v4.897h9.046v3.942H28.827V0.359
			H42.955z M89.933,0.359v3.733h-8.818v4.66h7.676v3.404h-7.676v4.897h9.047v3.942H75.805V0.359H89.933z M100.17,0.359l6.773,13.814
			V0.359h3.88v20.636h-6.203l-6.953-14v14h-3.881V0.359H100.17z"/>
	</g>
</g>
</svg>
