<?xml version="1.0" encoding="utf-8"?>
<!-- Generator: Adobe Illustrator 27.1.1, SVG Export Plug-In . SVG Version: 6.00 Build 0)  -->
<svg version="1.1" id="Layer_1" xmlns="http://www.w3.org/2000/svg" xmlns:xlink="http://www.w3.org/1999/xlink" x="0px" y="0px"
	 viewBox="0 0 641.66 245.149" enable-background="new 0 0 641.66 245.149" xml:space="preserve">
<g>
	<rect x="10.468" y="167.09" width="620.724" height="2.995"/>
	<g>
		<g>
			<path fill="#35AC4A" d="M185.47,123.275h-8.255v26.262h-3.678v-26.262h-8.469v-3.164h20.83L185.47,123.275z"/>
			<path fill="#35AC4A" d="M207.408,133.413v16.124h-3.592v-15.611c0-3.464-1.454-4.576-3.764-4.576
				c-2.566,0-4.405,1.666-5.945,4.105v16.082h-3.593v-31.522l3.593-0.428v12.704c1.625-2.267,3.935-3.765,6.843-3.765
				C205.013,126.526,207.408,129.179,207.408,133.413z"/>
			<path fill="#35AC4A" d="M232.167,139.528h-14.499c0.342,5.433,2.908,7.571,6.287,7.571c2.267,0,3.935-0.64,5.903-2.011
				l1.582,2.14c-2.182,1.754-4.662,2.822-7.742,2.822c-6.202,0-9.837-4.405-9.837-11.548c0-7.058,3.507-11.976,9.239-11.976
				c6.031,0,9.153,4.234,9.153,11.035C232.253,138.331,232.21,139.059,232.167,139.528z M228.703,136.535
				c0-4.534-1.797-7.143-5.518-7.143c-3.123,0-5.218,2.223-5.517,7.485h11.035V136.535z"/>
			<path fill="#35AC4A" d="M276.686,149.537h-3.594l-1.112-13.473c-0.428-4.661-0.77-9.709-0.812-12.188l-6.63,22.283h-3.464
				l-6.929-22.327c-0.043,3.337-0.299,8.084-0.685,12.447l-1.026,13.258h-3.507l2.481-29.426h5.047l6.459,21.77l6.159-21.77h5.047
				L276.686,149.537z"/>
			<path fill="#35AC4A" d="M288.571,118.914c0,1.41-1.026,2.48-2.566,2.48c-1.496,0-2.524-1.07-2.524-2.48
				c0-1.412,1.027-2.482,2.524-2.482C287.544,116.432,288.571,117.502,288.571,118.914z M287.844,149.537h-3.593v-22.498h3.593
				V149.537z"/>
			<path fill="#35AC4A" d="M313.076,133.413v16.124h-3.594v-15.611c0-3.464-1.411-4.576-3.721-4.576
				c-2.652,0-4.449,1.666-5.988,4.148v16.038h-3.593v-22.498h3.079l0.299,3.423c1.625-2.353,4.02-3.936,7.057-3.936
				C310.723,126.526,313.076,129.135,313.076,133.413z"/>
			<path fill="#35AC4A" d="M338.264,117.971v31.566h-3.122l-0.386-3.164c-1.411,2.223-3.678,3.677-6.544,3.677
				c-5.432,0-8.469-4.62-8.469-11.675c0-6.887,3.293-11.848,8.811-11.848c2.737,0,4.705,1.283,6.116,2.824v-11.807L338.264,117.971z
				 M334.671,143.635v-11.162c-1.368-1.84-2.994-3.08-5.346-3.08c-3.507,0-5.731,2.951-5.731,8.939c0,5.988,1.968,8.853,5.346,8.853
				C331.591,147.184,333.174,145.86,334.671,143.635z"/>
			<path fill="#35AC4A" d="M351.432,123.79v3.249h5.56l-0.385,2.78h-5.175v19.717h-3.592v-19.717h-3.978v-2.78h3.978v-3.208
				c0-3.721,2.438-6.288,6.843-6.288c2.096,0,3.592,0.386,5.347,1.155l-1.154,2.609c-1.455-0.642-2.78-0.855-3.978-0.855
				C352.373,120.453,351.432,121.523,351.432,123.79z"/>
			<path fill="#35AC4A" d="M379.059,149.537h-3.08l-0.299-3.635c-1.667,2.738-3.806,4.148-7.057,4.148
				c-3.978,0-6.288-2.48-6.288-6.885v-16.126h3.594v15.74c0,3.208,1.112,4.405,3.678,4.405s4.449-1.666,5.86-4.019v-16.126h3.593
				V149.537z"/>
			<path fill="#35AC4A" d="M387.181,145.259v-27.288l3.594-0.428v27.63c0,1.241,0.428,1.883,1.496,1.883
				c0.557,0,1.027-0.086,1.455-0.257l0.941,2.524c-0.812,0.428-1.882,0.726-2.994,0.726
				C388.935,150.05,387.181,148.383,387.181,145.259z"/>
			<path fill="#35AC4A" d="M415.191,149.537h-3.678v-29.426h3.678V149.537z"/>
			<path fill="#35AC4A" d="M440.638,123.275h-8.255v26.262h-3.679v-26.262h-8.469v-3.164h20.83L440.638,123.275z"/>
			<path fill="#35AC4A" d="M475.576,122.463l-2.009,2.394c-1.882-1.497-3.636-2.182-5.775-2.182c-4.619,0-8.426,3.122-8.426,12.149
				c0,8.597,3.679,12.061,8.383,12.061c2.823,0,4.62-1.197,6.288-2.482l1.881,2.396c-1.625,1.669-4.405,3.249-8.298,3.249
				c-7.057,0-12.189-5.346-12.189-15.225c0-10.009,5.475-15.227,12.147-15.227C471.214,119.598,473.266,120.624,475.576,122.463z"/>
			<path fill="#35AC4A" d="M498.711,138.245c0,7.058-3.635,11.805-9.922,11.805c-6.288,0-9.881-4.576-9.881-11.719
				c0-7.058,3.635-11.805,9.923-11.805C495.161,126.526,498.711,131.06,498.711,138.245z M482.757,138.331
				c0,5.946,2.139,8.812,6.032,8.812c3.892,0,6.073-2.866,6.073-8.897c0-5.944-2.139-8.81-6.031-8.81
				C484.981,129.436,482.757,132.301,482.757,138.331z"/>
			<path fill="#35AC4A" d="M533.865,133.413v16.124h-3.592v-15.611c0-3.464-1.455-4.576-3.294-4.576
				c-2.524,0-3.977,1.666-5.56,4.148v16.038h-3.592v-15.611c0-3.464-1.454-4.576-3.293-4.576c-2.481,0-3.978,1.666-5.517,4.148
				v16.038h-3.592v-22.498h3.079l0.299,3.423c1.539-2.353,3.678-3.936,6.586-3.936c2.78,0,4.833,1.539,5.646,4.148
				c1.669-2.48,3.765-4.148,6.801-4.148C531.513,126.526,533.865,129.179,533.865,133.413z"/>
			<path fill="#35AC4A" d="M560.376,138.245c0,6.887-2.994,11.805-8.768,11.805c-2.524,0-4.577-0.941-5.988-2.695v10.778
				l-3.593,0.428v-31.522h3.08l0.256,3.122c1.667-2.309,4.063-3.635,6.715-3.635C557.98,126.526,560.376,131.102,560.376,138.245z
				 M556.527,138.245c0-5.988-1.797-8.853-5.304-8.853c-2.481,0-4.363,1.754-5.603,3.593v11.206c1.197,1.84,2.994,2.907,5.175,2.907
				C554.516,147.099,556.527,144.277,556.527,138.245z"/>
			<path fill="#35AC4A" d="M584.067,147.526l-0.856,2.524c-2.181-0.298-3.592-1.239-4.191-3.464
				c-1.54,2.396-3.936,3.464-6.758,3.464c-4.448,0-7.099-2.78-7.099-6.799c0-4.791,3.592-7.4,9.751-7.4h3.679v-1.754
				c0-3.337-1.583-4.62-4.833-4.62c-1.711,0-3.764,0.428-6.073,1.241l-0.899-2.653c2.695-1.026,5.133-1.539,7.614-1.539
				c5.346,0,7.785,2.738,7.785,7.4v10.436C582.184,146.458,582.869,147.099,584.067,147.526z M578.592,143.678v-5.389h-3.209
				c-4.191,0-6.415,1.581-6.415,4.791c0,2.736,1.412,4.234,4.107,4.234C575.513,147.314,577.265,146.073,578.592,143.678z"/>
			<path fill="#35AC4A" d="M607.373,133.413v16.124h-3.593v-15.611c0-3.464-1.411-4.576-3.721-4.576
				c-2.652,0-4.449,1.666-5.988,4.148v16.038h-3.592v-22.498h3.079l0.299,3.423c1.625-2.353,4.02-3.936,7.057-3.936
				C605.02,126.526,607.373,129.135,607.373,133.413z"/>
			<path fill="#35AC4A" d="M623.622,149.666c-1.583,4.791-4.107,8.126-10.137,8.895l-0.428-2.822
				c4.576-0.855,5.817-2.609,7.142-6.203h-1.24l-7.614-22.498h3.85l6.202,19.889l6.073-19.889h3.721L623.622,149.666z"/>
		</g>
		<g>
			<rect x="23.109" y="33.469" fill="#FEE600" width="117.561" height="117.567"/>
			<g>
				<path fill="#3AB54A" d="M151.49,68.323l-23.818,6.306c-5.788,19.829-24.09,34.32-45.782,34.349
					c-21.694-0.029-39.994-14.521-45.782-34.349l-23.819-6.306c-0.991,4.083-1.601,8.289-1.82,12.612l12.685,3.361
					c6.335,18.406,21.088,32.891,39.68,38.854l-9.002,27.885h56.1l-8.985-27.885c18.584-5.963,33.338-20.448,39.68-38.854
					l12.678-3.361C153.093,76.612,152.48,72.406,151.49,68.323z"/>
				<path fill="#3AB54A" d="M104.69,75.672c0,12.59-10.21,22.803-22.8,22.803c-12.597,0-22.807-10.213-22.807-22.803
					c0-12.597,10.21-22.804,22.807-22.804C94.48,52.868,104.69,63.074,104.69,75.672z"/>
				<path fill="#3AB54A" d="M110.566,54.764l20.784-21.389c-1.356-1.589-2.784-3.128-4.305-4.607
					c-1.53-1.48-3.109-2.872-4.741-4.177l-20.782,21.397L110.566,54.764z"/>
				<path fill="#3AB54A" d="M52.871,54.764L32.087,33.374c1.349-1.589,2.782-3.128,4.305-4.607c1.536-1.48,3.117-2.872,4.747-4.177
					l20.776,21.397L52.871,54.764z"/>
				<path fill="#3AB54A" d="M88.05,40.577V10.746c-2.067-0.197-4.165-0.306-6.291-0.306c-2.128,0-4.239,0.109-6.313,0.306v29.831
					H88.05z"/>
			</g>
			<g>
				<path fill="#231F20" d="M192.489,83.354c-3.15,0-4.401-1.246-4.401-3.868V62.91c0-7.018-2.946-9.639-8.383-9.639
					c-4.062,0-8.717,3.339-8.717,9.958v20.125h-1.7c-2.951,0-4.197-1.246-4.197-3.868V36.165h1.764c2.686,0,4.261,1.186,4.261,4.456
					v13.178c2.562-4.725,6.225-6.16,9.44-6.16c8.323,0,13.487,4.585,13.487,15.072v20.644H192.489z"/>
				<path fill="#231F20" d="M215.824,84.002c-7.142,0-13.367-4.127-13.367-10.347c0-7.546,5.836-11.673,16.318-11.673h4.725v-1.635
					c0-5.114-2.562-7.207-8.259-7.207c-5.253,0-9.106,1.964-11.144,4.785h-0.324v-2.881c0-3.22,4.192-7.406,12.051-7.406
					c8.916,0,13.631,4.655,13.631,13.168v11.015C229.455,78.898,225.657,84.002,215.824,84.002z M223.554,66.966h-4.78
					c-7.008,0-10.217,2.163-10.217,6.031c0,3.08,3.01,5.502,7.531,5.502c5.308,0,7.466-2.093,7.466-7.137V66.966z"/>
				<path fill="#231F20" d="M254.709,84.002c-4.002,0-8.263-2.482-10.088-6.15v16.637h-2.168c-2.492,0-3.868-1.246-3.868-4.516
					V66.767c0-11.852,5.572-19.129,16.781-19.129c7.725,0,15.067,7.008,15.067,17.364C270.434,76.994,263.556,84.002,254.709,84.002
					z M254.056,53.27c-6.16,0-9.564,4.655-9.564,11.862c0,9.041,4.381,13.297,10.875,13.297c5.637,0,9.041-4.187,9.041-11.792
					C264.408,57.138,260.147,53.27,254.056,53.27z"/>
				<path fill="#231F20" d="M294.571,84.002c-4.012,0-8.264-2.482-10.098-6.15v16.637h-2.168c-2.487,0-3.863-1.246-3.863-4.516
					V66.767c0-11.852,5.567-19.129,16.781-19.129c7.73,0,15.072,7.008,15.072,17.364C310.296,76.994,303.403,84.002,294.571,84.002z
					 M293.908,53.27c-6.155,0-9.559,4.655-9.559,11.862c0,9.041,4.386,13.297,10.875,13.297c5.632,0,9.046-4.187,9.046-11.792
					C304.27,57.138,300.009,53.27,293.908,53.27z"/>
				<path fill="#231F20" d="M321.794,43.442c-2.223,0-4.062-1.834-4.062-4.067c0-2.223,1.839-4.127,4.062-4.127
					c2.238,0,3.997,1.904,3.997,4.127C325.791,41.608,324.032,43.442,321.794,43.442z M329.126,83.673
					c-6.873,0-10.486-3.399-10.486-10.417v-24.97h1.839c2.038,0,4.127,1.575,4.127,4.655v19.468c0,4.386,2.173,5.762,5.448,5.762
					h2.547v1.964C332.599,82.367,331.229,83.673,329.126,83.673z"/>
				<path fill="#231F20" d="M351.225,68.541h-8.657c0.598,5.831,4.66,9.958,11.209,9.958c5.383,0,8.652-1.705,10.611-3.598h0.339
					v2.622c0,3.668-3.932,6.479-11.807,6.479c-9.629,0-16.437-7.396-16.437-17.494c0-11.334,7.077-18.87,16.378-18.87
					c6.818,0,13.238,5.173,13.238,12.191C366.097,65.98,363.216,68.541,351.225,68.541z M352.212,53.011
					c-5.762,0-9.435,4.845-9.644,9.37l-0.065,1.435l7.94-0.12c8.448-0.139,9.888-0.927,9.888-3.539
					C360.331,56.35,357.714,53.011,352.212,53.011z"/>
				<path fill="#231F20" d="M385.046,84.002c-5.901,0-10.621-2.751-10.621-6.938v-2.562h0.334c1.969,2.163,5.896,3.927,10.427,3.927
					c5.163,0,7.461-1.635,7.461-5.104c0-2.881-1.251-4.127-9.245-5.841c-6.544-1.376-9.629-3.598-9.629-8.842
					c0-5.702,5.173-11.005,13.89-11.005c5.178,0,10.227,2.353,10.227,6.619v2.622h-0.334c-1.5-1.834-5.303-3.608-9.43-3.608
					c-5.966,0-8.323,2.034-8.323,4.984c0,2.352,1.316,3.339,8.582,4.914c6.948,1.505,10.352,4.715,10.352,9.569
					C398.737,80.074,393.031,84.002,385.046,84.002z"/>
				<path fill="#231F20" d="M413.43,48.356h12.066v1.964c0,2.163-1.44,3.608-4.59,3.608H413.5v17.364
					c0,4.984,1.964,7.077,5.762,7.077c2.163,0,4.266-0.199,5.512-0.977h0.329v2.093c0,2.941-2.293,4.516-6.36,4.516
					c-7.805,0-11.199-4.057-11.199-12.121V49.074c0-2.033,0.518-3.987,1.5-5.433c0.847-1.246,2.821-2.492,3.673-2.492h0.713V48.356z
					"/>
			</g>
			<g>
				<path fill="#231F20" d="M497.51,83.397c-2.293,0-3.937-1.585-3.937-4.396V63.542c0-7.336-2.741-10.216-7.526-10.216
					c-5.771,0-8.199,2.94-8.199,10.017v20.054h-2.029c-2.886,0-4.002-1.585-4.002-4.396V63.542c0-6.349-2.816-10.216-7.86-10.216
					c-5.178,0-7.87,3.07-7.87,10.216v19.855h-1.899c-2.482,0-4.127-1.445-4.127-4.396V62.755c0-8.054,5.114-15.07,14.289-15.07
					c5.163,0,8.717,2.292,10.87,6.349c2.303-3.798,6.429-6.349,11.005-6.349c8.732,0,13.377,5.243,13.377,15.659v20.054H497.51z"/>
				<path fill="#231F20" d="M511.874,43.488c-2.218,0-4.052-1.834-4.052-4.057c0-2.233,1.834-4.127,4.052-4.127
					c2.233,0,4.007,1.894,4.007,4.127C515.881,41.654,514.107,43.488,511.874,43.488z M519.231,83.716
					c-6.888,0-10.496-3.399-10.496-10.416V48.342h1.839c2.024,0,4.122,1.574,4.122,4.655v19.456c0,4.385,2.163,5.761,5.448,5.761
					h2.547v1.973C522.69,82.41,521.314,83.716,519.231,83.716z"/>
				<path fill="#231F20" d="M556.785,83.397c-2.422,0-3.733-1.246-3.733-3.868V63.403c0-7.266-2.691-10.077-8.916-10.077
					c-5.238,0-8.244,2.94-8.244,10.077v19.995h-2.248c-2.153,0-3.663-1.316-3.663-4.067V63.273c0-9.818,5.911-15.589,14.872-15.589
					c8.787,0,14.1,5.043,14.1,15.529v20.184H556.785z"/>
				<path fill="#231F20" d="M583.43,84.055c-8.727,0-16.054-7.944-16.054-17.692c0-11.991,5.637-18.679,15.326-18.679
					c4.261,0,8.134,1.963,10.551,6.738V36.211h1.58c2.951,0,4.446,1.575,4.446,4.854v23.782
					C599.279,78.284,594.37,84.055,583.43,84.055z M582.902,53.246c-6.095,0-9.505,4.655-9.505,12.589
					c0,7.007,4.331,12.649,10.556,12.649c6.355,0,9.24-3.409,9.24-12.001C593.194,60.133,591.28,53.246,582.902,53.246z"/>
				<path fill="#231F20" d="M617.491,84.055c-5.901,0-10.626-2.761-10.626-6.947v-2.562h0.339c1.964,2.163,5.896,3.937,10.412,3.937
					c5.183,0,7.486-1.645,7.486-5.114c0-2.89-1.251-4.126-9.245-5.831c-6.564-1.375-9.639-3.608-9.639-8.841
					c0-5.701,5.174-11.014,13.896-11.014c5.178,0,10.227,2.352,10.227,6.618v2.621h-0.334c-1.5-1.844-5.313-3.598-9.44-3.598
					c-5.966,0-8.313,2.023-8.313,4.964c0,2.362,1.311,3.349,8.573,4.924c6.953,1.505,10.367,4.714,10.367,9.568
					C631.192,80.118,625.485,84.055,617.491,84.055z"/>
			</g>
		</g>
	</g>
	<g>
		<path d="M27.1,185.405h6.095c4.003,0,7.272,0.869,9.807,2.608c2.535,1.739,3.802,3.934,3.802,6.587
			c0,3.236-1.871,5.939-5.612,8.11c5.793,1.933,8.69,5.284,8.69,10.055c0,3.323-1.494,6-4.481,8.033
			c-2.987,2.033-6.985,3.049-11.994,3.049H27.1V185.405z M32.29,190.051v11.376c2.897-0.04,5.115-0.593,6.653-1.66
			s2.308-2.535,2.308-4.405c0-1.629-0.694-2.932-2.082-3.908c-1.388-0.976-3.249-1.463-5.582-1.463
			C33.084,189.991,32.652,190.011,32.29,190.051z M32.29,205.984v13.156h0.422c4.526,0,7.614-0.724,9.264-2.173
			c1.65-1.448,2.474-2.927,2.474-4.436c0-1.992-0.925-3.581-2.776-4.768s-4.385-1.78-7.604-1.78H32.29z"/>
		<path d="M55.343,211.294c0-3.4,1.343-6.422,4.028-9.067c2.686-2.645,5.768-3.968,9.248-3.968c3.581,0,6.709,1.303,9.384,3.908
			c2.675,2.605,4.013,5.648,4.013,9.128c0,3.5-1.313,6.583-3.938,9.248c-2.625,2.665-5.658,3.998-9.098,3.998
			c-3.681,0-6.875-1.318-9.58-3.953C56.696,217.953,55.343,214.855,55.343,211.294z M76.948,211.309
			c0-2.116-0.805-3.955-2.414-5.517c-1.609-1.562-3.52-2.344-5.733-2.344c-2.273,0-4.229,0.791-5.869,2.374
			c-1.639,1.582-2.459,3.471-2.459,5.668c0,2.096,0.83,3.931,2.489,5.503c1.66,1.572,3.606,2.358,5.839,2.358
			c2.173,0,4.074-0.805,5.703-2.418S76.948,213.446,76.948,211.309z"/>
		<path d="M93.484,198.953v5.13c1.167-2.052,2.308-3.535,3.425-4.451c1.116-0.915,2.57-1.373,4.36-1.373
			c0.503,0,1.227,0.121,2.173,0.362l-1.599,5.25c-1.006-0.201-1.67-0.302-1.992-0.302c-1.77,0-3.254,0.619-4.451,1.856
			c-1.197,1.237-1.795,2.781-1.795,4.632v13.79h-5.25v-24.894H93.484z"/>
		<path d="M108.48,223.847v-24.894h5.13v4.134c1.509-1.67,2.877-2.892,4.104-3.666c1.227-0.774,2.595-1.162,4.104-1.162
			c2.253,0,4.179,0.744,5.778,2.233c1.599,1.489,2.399,3.279,2.399,5.371v17.984h-5.25v-16.445c0-1.348-0.438-2.464-1.313-3.349
			c-0.875-0.885-1.986-1.328-3.334-1.328c-1.75,0-3.259,0.739-4.526,2.218s-1.901,3.264-1.901,5.356v13.548H108.48z"/>
		<path d="M153.893,184.228h13.518c5.773,0,10.42,1.821,13.941,5.462c3.52,3.641,5.281,8.439,5.281,14.393
			c0,5.975-1.815,10.762-5.446,14.363c-3.631,3.601-8.464,5.401-14.499,5.401h-12.794V184.228z M162.493,191.711v24.471h3.38
			c3.5,0,6.377-0.956,8.63-2.867c2.253-1.911,3.38-5.099,3.38-9.565c0-2.595-0.543-4.893-1.629-6.895
			c-1.086-2.002-2.66-3.359-4.722-4.074s-4.028-1.071-5.899-1.071H162.493z"/>
		<path d="M192.305,188.286c0-1.312,0.473-2.442,1.418-3.39c0.945-0.949,2.082-1.423,3.41-1.423c1.328,0,2.464,0.474,3.41,1.423
			c0.945,0.948,1.418,2.078,1.418,3.39c0,1.332-0.473,2.472-1.418,3.421c-0.945,0.949-2.082,1.422-3.41,1.422
			c-1.328,0-2.464-0.474-3.41-1.422C192.778,190.758,192.305,189.618,192.305,188.286z M193.301,197.897h7.725v25.95h-7.725V197.897
			z"/>
		<path d="M226.281,222.368v-3.048c-2.313,2.937-4.989,4.405-8.026,4.405c-3.259,0-5.98-1.257-8.162-3.772s-3.274-5.663-3.274-9.445
			c0-3.661,1.132-6.774,3.395-9.339c2.263-2.565,4.984-3.847,8.162-3.847c2.696,0,5.331,1.408,7.906,4.224v-3.591h7.664v26.252
			c0,1.448-0.458,3.113-1.373,4.994c-0.915,1.881-2.474,3.269-4.677,4.164c-2.203,0.895-4.752,1.343-7.649,1.343
			c-3.601,0-6.482-0.674-8.645-2.022c-2.162-1.348-3.716-3.661-4.662-6.94h8.66c1.69,2.354,3.52,3.53,5.492,3.53
			c1.529,0,2.776-0.639,3.742-1.916C225.798,226.085,226.281,224.42,226.281,222.368z M215.056,210.721
			c0,1.328,0.578,2.62,1.735,3.877c1.157,1.257,2.51,1.886,4.058,1.886c1.509,0,2.801-0.598,3.877-1.795
			c1.076-1.197,1.614-2.66,1.614-4.39c0-1.77-0.513-3.229-1.539-4.375c-1.026-1.147-2.344-1.72-3.953-1.72
			c-1.629,0-3.002,0.598-4.119,1.795C215.615,207.196,215.056,208.77,215.056,210.721z"/>
		<path d="M241.037,188.286c0-1.312,0.473-2.442,1.418-3.39c0.945-0.949,2.082-1.423,3.41-1.423c1.328,0,2.464,0.474,3.41,1.423
			c0.945,0.948,1.418,2.078,1.418,3.39c0,1.332-0.473,2.472-1.418,3.421c-0.945,0.949-2.082,1.422-3.41,1.422
			c-1.328,0-2.464-0.474-3.41-1.422C241.509,190.758,241.037,189.618,241.037,188.286z M242.032,197.897h7.725v25.95h-7.725V197.897
			z"/>
		<path d="M257.723,188.995h7.725v8.901h3.711v7.091h-3.711v18.859h-7.725v-18.859h-2.957v-7.091h2.957V188.995z"/>
		<path d="M291.005,223.847v-4.436h-0.121c-1.207,1.73-2.424,2.982-3.651,3.757c-1.227,0.774-2.746,1.162-4.556,1.162
			c-3.038,0-5.622-1.308-7.755-3.923c-2.132-2.615-3.198-5.793-3.198-9.535c0-3.701,1.137-6.875,3.41-9.52
			c2.273-2.645,4.969-3.968,8.087-3.968c1.489,0,2.826,0.332,4.013,0.996s2.444,1.72,3.772,3.168v-3.591h7.725v25.89H291.005z
			 M285.333,205.109c-1.529,0-2.806,0.609-3.832,1.826c-1.026,1.217-1.539,2.751-1.539,4.602c0,1.73,0.488,3.123,1.463,4.179
			c0.976,1.056,2.258,1.584,3.847,1.584c1.529,0,2.836-0.609,3.923-1.826c1.086-1.217,1.629-2.691,1.629-4.421
			c0-1.609-0.543-3.002-1.629-4.179S286.821,205.109,285.333,205.109z"/>
		<path d="M306.756,183.564h7.725v40.283h-7.725V183.564z"/>
		<path d="M338.379,219.517c0-1.331,0.473-2.472,1.418-3.42c0.945-0.949,2.082-1.423,3.41-1.423s2.464,0.474,3.41,1.423
			c0.945,0.948,1.418,2.089,1.418,3.42c0,1.312-0.473,2.442-1.418,3.39c-0.945,0.948-2.082,1.422-3.41,1.422
			s-2.464-0.474-3.41-1.422C338.852,221.958,338.379,220.829,338.379,219.517z"/>
		<path d="M373.11,185.405h6.095c4.003,0,7.272,0.869,9.807,2.608c2.535,1.739,3.802,3.934,3.802,6.587
			c0,3.236-1.871,5.939-5.612,8.11c5.793,1.933,8.69,5.284,8.69,10.055c0,3.323-1.494,6-4.481,8.033
			c-2.987,2.033-6.985,3.049-11.994,3.049h-6.306V185.405z M378.3,190.051v11.376c2.897-0.04,5.115-0.593,6.653-1.66
			s2.308-2.535,2.308-4.405c0-1.629-0.694-2.932-2.082-3.908c-1.388-0.976-3.249-1.463-5.582-1.463
			C379.095,189.991,378.662,190.011,378.3,190.051z M378.3,205.984v13.156h0.422c4.526,0,7.614-0.724,9.264-2.173
			c1.65-1.448,2.474-2.927,2.474-4.436c0-1.992-0.925-3.581-2.776-4.768c-1.851-1.187-4.385-1.78-7.604-1.78H378.3z"/>
		<path d="M401.353,211.294c0-3.4,1.343-6.422,4.028-9.067c2.686-2.645,5.768-3.968,9.248-3.968c3.581,0,6.709,1.303,9.384,3.908
			c2.675,2.605,4.013,5.648,4.013,9.128c0,3.5-1.313,6.583-3.938,9.248c-2.625,2.665-5.658,3.998-9.098,3.998
			c-3.681,0-6.875-1.318-9.58-3.953C402.706,217.953,401.353,214.855,401.353,211.294z M422.958,211.309
			c0-2.116-0.805-3.955-2.414-5.517c-1.609-1.562-3.52-2.344-5.733-2.344c-2.273,0-4.229,0.791-5.869,2.374
			c-1.639,1.582-2.459,3.471-2.459,5.668c0,2.096,0.83,3.931,2.489,5.503c1.66,1.572,3.606,2.358,5.839,2.358
			c2.173,0,4.074-0.805,5.703-2.418S422.958,213.446,422.958,211.309z"/>
		<path d="M439.494,198.953v5.13c1.167-2.052,2.308-3.535,3.425-4.451c1.116-0.915,2.57-1.373,4.36-1.373
			c0.503,0,1.227,0.121,2.173,0.362l-1.599,5.25c-1.006-0.201-1.67-0.302-1.991-0.302c-1.77,0-3.254,0.619-4.451,1.856
			c-1.197,1.237-1.795,2.781-1.795,4.632v13.79h-5.25v-24.894H439.494z"/>
		<path d="M454.49,223.847v-24.894h5.13v4.134c1.509-1.67,2.877-2.892,4.104-3.666c1.227-0.774,2.595-1.162,4.104-1.162
			c2.253,0,4.179,0.744,5.778,2.233c1.599,1.489,2.399,3.279,2.399,5.371v17.984h-5.25v-16.445c0-1.348-0.438-2.464-1.313-3.349
			s-1.986-1.328-3.334-1.328c-1.75,0-3.259,0.739-4.526,2.218s-1.901,3.264-1.901,5.356v13.548H454.49z"/>
		<path d="M513.838,184.228h6.617l16.14,39.619h-8.593l-3.172-7.785h-15.205l-3.106,7.785h-8.548L513.838,184.228z M517.148,197.203
			l-4.657,11.678h9.414L517.148,197.203z"/>
		<path d="M559.527,222.368v-3.048c-2.313,2.937-4.989,4.405-8.026,4.405c-3.259,0-5.98-1.257-8.162-3.772s-3.274-5.663-3.274-9.445
			c0-3.661,1.132-6.774,3.395-9.339c2.263-2.565,4.984-3.847,8.162-3.847c2.696,0,5.331,1.408,7.906,4.224v-3.591h7.664v26.252
			c0,1.448-0.458,3.113-1.373,4.994s-2.474,3.269-4.677,4.164c-2.203,0.895-4.753,1.343-7.649,1.343
			c-3.601,0-6.482-0.674-8.645-2.022c-2.163-1.348-3.716-3.661-4.662-6.94h8.66c1.69,2.354,3.52,3.53,5.492,3.53
			c1.529,0,2.776-0.639,3.742-1.916C559.045,226.085,559.527,224.42,559.527,222.368z M548.303,210.721
			c0,1.328,0.578,2.62,1.735,3.877s2.509,1.886,4.058,1.886c1.509,0,2.801-0.598,3.877-1.795c1.076-1.197,1.614-2.66,1.614-4.39
			c0-1.77-0.513-3.229-1.539-4.375c-1.026-1.147-2.344-1.72-3.953-1.72c-1.629,0-3.002,0.598-4.119,1.795
			C548.861,207.196,548.303,208.77,548.303,210.721z"/>
		<path d="M574.283,188.286c0-1.312,0.473-2.442,1.418-3.39c0.945-0.949,2.082-1.423,3.41-1.423c1.328,0,2.464,0.474,3.41,1.423
			c0.945,0.948,1.418,2.078,1.418,3.39c0,1.332-0.473,2.472-1.418,3.421c-0.945,0.949-2.082,1.422-3.41,1.422
			c-1.328,0-2.464-0.474-3.41-1.422C574.755,190.758,574.283,189.618,574.283,188.286z M575.279,197.897h7.725v25.95h-7.725V197.897
			z"/>
		<path d="M591.331,183.564h7.725v40.283h-7.725V183.564z"/>
		<path d="M631.192,212.712h-18.497c0.101,1.67,0.649,3.028,1.645,4.074c0.996,1.046,2.157,1.569,3.485,1.569
			c2.374,0,4.234-1.076,5.582-3.229l7.091,2.354c-2.635,4.607-6.729,6.91-12.281,6.91c-4.084,0-7.332-1.237-9.746-3.711
			s-3.621-5.804-3.621-9.988c0-3.762,1.272-6.92,3.817-9.475c2.545-2.555,5.678-3.832,9.399-3.832c3.742,0,6.865,1.343,9.369,4.028
			c2.505,2.686,3.757,6.04,3.757,10.063V212.712z M612.755,207.522h10.44c-0.724-3.239-2.384-4.858-4.979-4.858
			c-1.489,0-2.721,0.422-3.696,1.267S612.956,205.974,612.755,207.522z"/>
	</g>
</g>
</svg>
