<?xml version="1.0" encoding="utf-8"?>
<!-- Generator: Adobe Illustrator 27.1.1, SVG Export Plug-In . SVG Version: 6.00 Build 0)  -->
<svg version="1.1" id="Layer_1" xmlns="http://www.w3.org/2000/svg" xmlns:xlink="http://www.w3.org/1999/xlink" x="0px" y="0px"
	 viewBox="0 0 500.243 305.026" enable-background="new 0 0 500.243 305.026" xml:space="preserve">
<g transform="translate(367 -232)">
	<g transform="translate(-367 232)">
		<path fill-rule="evenodd" clip-rule="evenodd" fill="#F27930" d="M71.865,2.52l29.805,25.849
			c9.754,9.182,14.857,22.266,13.895,35.627c0,31.474-32.421,46.316-43.465,72.708c-3.407,7.481-5.013,15.656-4.688,23.87
			c0.253,3.085,2.156,15.938,5.897,16.82c28.024,6.563,50.985-13.126,41.975-44.572c-1.129-6.308-3.738-12.259-7.613-17.364h1.763
			l29.805,26.308c5.602,5.483,9.026,12.811,9.638,20.626c1.394,23.098-16.201,42.954-39.299,44.348
			c-0.697,0.042-1.396,0.067-2.094,0.074c-8.974,0.135-17.695-2.979-24.555-8.766l-34.212-29.861
			c-9.007-8.215-13.596-20.207-12.376-32.336c0-29.655,24.03-46.803,34.934-72.295c4.258-9.991,6.299-20.787,5.982-31.643
			c1.15-9.799-1.126-19.693-6.441-28.005L71.865,2.52z"/>
		<path fill-rule="evenodd" clip-rule="evenodd" fill="#143A72" d="M145.417,230.442c0.094,0.084,33.068,28.23,35.796,30.593
			l-1.781,0.506c-9.939-7.958-22.286-12.305-35.018-12.329c-12.419-0.083-24.729,2.327-36.199,7.088
			c-5.288,1.95-10.535,3.979-15.742,6.085c-7.764,3.422-16.254,4.871-24.714,4.219c-13.265-3.03-25.335-9.92-34.69-19.801
			l-28.98-25.005c0.131,0.084,1.65-0.516,1.781-0.441c15.974,10.052,35.01,14.075,53.685,11.345
			c8.11-1.116,37.952-15.629,46.737-15.695c5.513-0.481,11.066-0.197,16.501,0.844c8.376,2.482,16.104,6.778,22.633,12.582"/>
	</g>
	<g transform="translate(-349.263 234.216)">
		<g transform="translate(0 12.777)">
			<path fill="#F27930" d="M152.647,221.355c6.9-0.413,12.113-1.116,12.732-3.619c0.547-2.796,0.752-5.649,0.609-8.494V144.55
				c0.142-2.849-0.062-5.704-0.609-8.504c-0.619-2.503-5.832-3.206-12.732-3.619v-4.322h48.284v4.322
				c-6.9,0.413-12.113,1.116-12.732,3.619c-0.555,2.798-0.763,5.654-0.619,8.504v65.629c0,9.469,5.672,10.313,18.104,10.313
				c19.632,0,22.548-7.669,28.83-20.073h4.303l-4.594,25.239h-81.577V221.355z"/>
			<path fill="#F27930" d="M284.121,209.232c-0.143,2.846,0.062,5.698,0.609,8.494c0.609,2.513,5.832,3.216,12.742,3.628v4.322
				h-48.331v-4.322c6.9-0.413,12.113-1.116,12.723-3.628c0.557-2.795,0.764-5.648,0.619-8.494v-64.692
				c0.144-2.849-0.064-5.705-0.619-8.504c-0.609-2.503-5.813-3.206-12.723-3.619v-4.322h48.331v4.322
				c-6.91,0.413-12.123,1.116-12.742,3.619c-0.547,2.799-0.752,5.655-0.609,8.504L284.121,209.232z"/>
			<path fill="#F27930" d="M309.126,128.096h75.464v22.445h-4.144c-2.288-9.901-6.132-17.289-16.876-17.289h-19.483v41.825h14.579
				c6.799,0.88,13.024-3.919,13.904-10.717c0.114-0.883,0.133-1.775,0.057-2.661h4.144v32.477h-4.182
				c-0.45-7.679-3.675-13.942-13.96-13.942H344.05v28.989c-0.145,2.846,0.062,5.699,0.619,8.494
				c0.609,2.513,5.832,3.216,12.723,3.628v4.322h-48.275v-4.322c6.9-0.413,12.113-1.116,12.732-3.628
				c0.548-2.796,0.753-5.649,0.609-8.494v-64.692c0.142-2.849-0.062-5.704-0.609-8.504c-0.619-2.503-5.832-3.206-12.732-3.619
				v-4.313H309.126z"/>
			<path fill="#F27930" d="M391.819,221.355c6.741-0.413,12.104-1.116,12.732-3.619c0.547-2.796,0.752-5.649,0.609-8.494V144.55
				c0.142-2.849-0.063-5.704-0.609-8.504c-0.628-2.503-5.982-3.206-12.732-3.619v-4.322h75.314v22.445h-4.144
				c-2.306-9.91-5.972-17.279-16.717-17.279H426.79v38.993h12.723c6.667,0.929,12.825-3.722,13.754-10.389
				c0.138-0.991,0.154-1.995,0.046-2.99h4.144v32.477h-4.144c0.776-6.916-4.201-13.152-11.116-13.928
				c-0.892-0.1-1.792-0.105-2.684-0.014H426.79v31.643c0,10.594,5.625,11.429,18.254,11.429c19.473,0,22.398-7.669,28.83-20.073
				h4.153l-4.594,25.239h-81.568L391.819,221.355z"/>
		</g>
		<g transform="translate(0.046)">
			<path fill="#143A72" d="M475.834,116.712c-5.138-0.703-7.06-3.61-12.995-12.048l-28.418-40.653l22.501-30.658
				c3.09-3.25,7.226-5.308,11.682-5.813c2.006-0.775,3.41-2.606,3.638-4.744h-31.455c0.043,2.288,1.483,4.315,3.628,5.11
				c3.356,1.313,5.26,4.285,2.1,8.682l-16.464,21.93l-14.204-21.236c-4.519-6.76-1.875-9.319,2.325-9.947
				c1.991-0.625,3.353-2.461,3.375-4.547h-41.703c0.015,2.255,1.503,4.235,3.666,4.875c4.643,1.23,8.621,4.228,11.082,8.354
				l23.495,35.44l-22.651,31.361c-2.372,4.181-5.485,7.895-9.188,10.96c-2.043,1.479-4.79,1.535-6.891,0.141l0,0
				c-2.887-2.712-5.091-6.07-6.432-9.797c-5.55-13.51-23.72-59.788-32.721-82.993h-9.76c-12.61,30.94-30.94,76.674-36.321,87.193
				c-2.275,4.703-6.801,7.913-11.991,8.504c0,0-11.091,1.828-12.254-6.244c-0.169-1.669-0.169-3.441-0.169-5.925V40.901
				c0-7.997,2.569-12.545,10.163-13.566l0,0c2.034-0.56,3.407-2.458,3.3-4.566H256.08l-37.831,72.998l-36.152-72.998h-29.064
				c0,0-0.084,4.163,2.963,4.407l0,0c5.841,0.394,10.519,2.475,11.345,12.432v60.941c-0.059,3.108-0.291,6.209-0.694,9.291
				c-0.544,3.638-2.944,5.625-7.575,6.563l0,0c-2.407,0.359-4.185,2.432-4.172,4.866h31.877v-0.394
				c-0.32-2.2-1.972-3.971-4.144-4.444c-4.688-0.891-7.238-2.869-7.697-6.563c-0.546-3.066-0.781-6.178-0.703-9.291V48.814h0.291
				l35.309,72.445h3.366l36.293-70.186h0.422v53.591c0.131,2.872-0.058,5.749-0.563,8.579c-0.413,1.875-3.216,2.766-7.238,3.253
				c-2.261,0.469-3.886,2.454-3.9,4.763h72.192c-0.147-2.326-1.713-4.321-3.938-5.016c-3.675-1.425-4.603-5.035-2.972-9.61
				l5.991-16.735h36.64l6.15,16.454c1.819,4.688,1.491,8.297-2.334,9.797c-2.426,0.562-4.211,2.628-4.416,5.11h59.066
				c0.116-2.467-1.53-4.671-3.928-5.26l0,0c-2.522-1.519-2.878-5.072,1.875-11.71l19.539-27.011l19.829,28.699
				c4.941,7.369,2.813,9.844-0.797,10.632c-2.141,0.59-3.672,2.472-3.816,4.688h41.074c0.117-1.868-0.849-3.637-2.485-4.547
				 M312.202,83.597l16.154-41.121h0.291l14.879,41.074L312.202,83.597z"/>
		</g>
		<g transform="translate(0.708 25.991)">
			<rect x="158.577" y="239.352" fill="#143A72" width="6.244" height="34.446"/>
			<path fill="#143A72" d="M200.533,267.385h-0.094l-10.313-27.799l-0.094-0.253h-9.938v34.446h6.254v-28.042h0.047l10.529,27.808
				l0.084,0.244h9.685v-34.437h-6.16V267.385z"/>
			<path fill="#143A72" d="M233.891,253.932c-5.71-1.781-6.938-2.738-6.938-5.391c0-3.272,3.028-3.947,5.569-3.947
				c2.813,0,9.376,0.666,9.451,0.675h0.394l0.225-5.354l-0.309-0.056c-3.315-0.661-6.681-1.04-10.06-1.134
				c-7.369,0-11.429,3.497-11.429,9.816s3.066,8.344,9.957,10.585c4.913,1.5,6.563,2.381,6.563,4.763
				c0,3.216-1.744,4.585-5.85,4.585c-3.01,0-9.376-0.722-9.46-0.722l-0.384-0.047l-0.347,5.504l0.337,0.056
				c3.409,0.587,6.855,0.931,10.313,1.031c8.035,0,11.616-3.272,11.616-10.604c0-5.991-2.916-7.585-9.601-9.807"/>
			<path fill="#143A72" d="M274.703,262.698c0,3.985-1.828,5.625-6.3,5.625s-6.15-1.622-6.15-5.625v-23.345h-6.207v23.345
				c0,8.007,3.816,11.579,12.357,11.579s12.498-3.572,12.498-11.579v-23.345h-6.197V262.698z"/>
			<path fill="#143A72" d="M320.287,250.51c0-7.397-3.928-11.138-11.673-11.138h-12.488v34.446h6.16v-11.832h5.86h0.806
				l4.753,11.879h6.816l-5.494-13.388c3.624-1.912,5.71-5.847,5.26-9.92 M302.296,245.175h6.328c2.731-0.212,5.117,1.83,5.328,4.561
				c0.023,0.301,0.019,0.604-0.013,0.905c0.391,2.769-1.537,5.33-4.306,5.721c-0.304,0.043-0.61,0.058-0.916,0.045h-6.432
				L302.296,245.175z"/>
			<path fill="#143A72" d="M350.974,239.353h-10.97l-8.232,33.987l-0.112,0.46h6.216l1.753-6.957h11.41l1.988,6.957h6.216
				l-8.194-34.155L350.974,239.353z M346.052,244.875l3.75,16.154h-8.841l3.863-16.154H346.052z"/>
			<path fill="#143A72" d="M392.536,267.385h-0.15l-10.313-27.799v-0.234h-9.938v34.446h6.244v-28.042l10.557,27.808l0.094,0.244
				h9.704v-34.456h-6.207L392.536,267.385z"/>
			<path fill="#143A72" d="M434.398,267.742c-0.056,0-5.888,0.628-8.129,0.628c-5.504,0-7.172-2.738-7.172-11.748
				c0-9.01,1.641-11.841,7.032-11.841c2.531,0,8.213,0.666,8.279,0.675l0.394,0.047l0.234-5.541l-0.309-0.056
				c-3.088-0.638-6.224-1.017-9.376-1.134c-10.529,0-12.685,7.144-12.685,17.814c0,10.932,2.128,17.701,12.685,17.701
				c3.108-0.112,6.205-0.425,9.273-0.938l0.328-0.056l-0.178-5.625L434.398,267.742z"/>
			<path fill="#143A72" d="M469.716,245.118v-5.766h-21.245v34.446h21.245v-5.813H454.63v-8.494h12.188v-5.625H454.63v-8.71
				L469.716,245.118z"/>
		</g>
	</g>
</g>
</svg>
