<?xml version="1.0" encoding="utf-8"?>
<!-- Generator: Adobe Illustrator 27.1.1, SVG Export Plug-In . SVG Version: 6.00 Build 0)  -->
<svg version="1.1" id="Layer_1" xmlns="http://www.w3.org/2000/svg" xmlns:xlink="http://www.w3.org/1999/xlink" x="0px" y="0px"
	 viewBox="0 0 464.11 160.72" style="enable-background:new 0 0 464.11 160.72;" xml:space="preserve">
<style type="text/css">
	.st0{fill:#EF4135;}
</style>
<g>
	<g>
		<polygon class="st0" points="211.59,70.48 179.03,70.48 179.03,42.68 158.39,42.68 158.39,118.15 179.03,118.15 179.03,87.92 
			211.59,87.92 211.59,118.15 232.19,118.15 232.19,42.68 211.59,42.68 		"/>
		<path class="st0" d="M278.5,40.69c-22.71,0-37.94,15.68-37.94,39.19c0,24.46,15.06,40,38.59,40c18.81,0,31.71-8.62,36.54-24.95
			h-22.28c-2.02,5.96-6.73,8.96-13.82,8.96c-10.65,0-17.04-6.31-17.58-17.28h53.67c0-2.64,0.15-3.58,0.15-4.84
			C315.84,56.36,301.44,40.69,278.5,40.69z M261.9,71.56c1.74-10.19,7.37-15.52,16.49-15.52c9.24,0,15.52,6.28,15.82,15.52H261.9z"
			/>
		<path class="st0" d="M350.94,42.03c-7.3,1.45-26.04,7.08-26.04,35.66v40.47h20.87V84.73c0-12.38,1.72-18.18,6.89-21.93
			c3.15-2.52,7.72-3.92,13.02-3.92c2.2,0,3.14,0.16,5.66,0.62V42.36C371.34,42.36,363,39.66,350.94,42.03z"/>
		<path class="st0" d="M412.62,40.68c-23.4,0.01-38.45,15.52-38.45,39.66c0,23.99,15.05,39.54,38.45,39.54
			c23.19,0,38.27-15.55,38.27-39.54C450.88,56.2,435.8,40.68,412.62,40.68z M412.62,104.18c-11,0-17.41-8.93-17.41-23.83
			c0-15.05,6.28-23.83,17.41-23.83c10.97,0,17.26,8.63,17.26,23.69C429.88,95.42,423.59,104.18,412.62,104.18z"/>
	</g>
	<g>
		<polygon points="101.88,33.39 69.59,9.55 69.59,77.48 101.88,55.1 		"/>
		<polygon points="101.88,130.53 101.88,83.86 69.59,107.08 		"/>
		<polygon class="st0" points="13.23,127.82 45.52,151.28 45.52,54.14 13.23,30.29 		"/>
	</g>
</g>
</svg>
