<?xml version="1.0" encoding="utf-8"?>
<!-- Generator: Adobe Illustrator 27.1.1, SVG Export Plug-In . SVG Version: 6.00 Build 0)  -->
<svg version="1.1" id="Layer_1" xmlns="http://www.w3.org/2000/svg" xmlns:xlink="http://www.w3.org/1999/xlink" x="0px" y="0px"
	 viewBox="0 0 306.4 124.1" style="enable-background:new 0 0 306.4 124.1;" xml:space="preserve">
<style type="text/css">
	.st0{fill-rule:evenodd;clip-rule:evenodd;fill:#007CC3;}
	.st1{fill:#007CC3;}
</style>
<g>
	<path class="st0" d="M290.5,24.8c4.8,0,8.8-3.9,8.8-8.8c0-4.8-4-8.8-8.8-8.8c-4.8,0-8.8,4-8.8,8.8
		C281.7,20.9,285.7,24.8,290.5,24.8L290.5,24.8z M283,16.1c0-4.1,3.4-7.5,7.5-7.5c4.1,0,7.5,3.4,7.5,7.5c0,4.1-3.4,7.5-7.5,7.5
		C286.4,23.5,283,20.2,283,16.1L283,16.1z M287.2,20.5h1.7v-3.7h2l1.5,3.7h1.9l-1.7-4c0.6-0.3,1.6-0.6,1.6-2.3c0-2.7-2-3-3.8-3h-3.1
		V20.5L287.2,20.5z M288.8,12.8h1.9c1,0,1.6,0.4,1.6,1.2c0,0.8-0.6,1.2-1.4,1.2h-2V12.8L288.8,12.8z"/>
	<polygon class="st1" points="9.3,20 9.3,19.9 9.3,9.5 19.7,9.5 19.7,19.9 19.7,20 19.7,85.3 19.7,85.5 19.7,95.7 9.3,95.7 
		9.3,85.4 9.3,85.3 9.3,20 	"/>
	<path class="st1" d="M114.8,64.3c0.3,15.7,10,28.2,21.8,28c11.8-0.2,21.1-13.1,20.8-28.7c-0.3-15.7-10-28.2-21.8-28
		C123.9,35.8,114.5,48.7,114.8,64.3L114.8,64.3z M200.7,45.4c0.3,0.6-0.4-0.9-0.4-0.9L200.7,45.4L200.7,45.4z M207.8,110.3
		c0.5-0.8,1.1-2,1.9-3.6L207.8,110.3L207.8,110.3z M208.4,40c0.1,0.3,0.3,0.7,0.4,1.1l3.5,8.5L208.4,40L208.4,40z M164.9,83
		c6.4,5.8,12.2,8.8,19.6,8.8c7.6,0.1,14.3-3.6,14.3-10.7c0-5.9-5.3-9.4-14.7-13.4c-8-3.4-13.9-5.9-17-10.8c0.4,2.2,0.6,4.4,0.6,6.7
		c0,19.2-14,34.8-31.2,34.8c-17.2,0-31.2-15.6-31.2-34.8c0-11.6,5.1-21.9,12.9-28.2H97.1v49.9l0,0.2v10.3h-9.4v-9.9
		c0-0.2,0-0.4,0-0.5V35.4h-8.3v-6.3h8.4c1.1-12.7,8.9-19.8,19.8-19.8c7.1,0,10.9,0.7,13.2,1.8v8.6c0,0.6,0,1,0,1c-0.1,0-0.3,0-0.3,0
		c-3.4-3.1-6.7-5.5-14.6-5.5c-6.2,0-10.3,5.1-8.9,13.9H132c1.4-0.2,2.9-0.3,4.4-0.3c12.5,0,23.3,8.2,28.2,20.1
		c0-0.7-0.1-1.3-0.1-2.1c0-12.4,12-17.6,24.4-17.6c0.5,0,0.9,0,1.4,0c4.4-0.1,10.6,1.4,14.4,2.4l3.5,8.5l3.9,9.6l10.6,25.7l1.2,4.1
		l1.4-4.1l13.3-33c2.5-9.1,12.2-13,23-13c5.4,0,9.3,0.6,14,2.3v10c-5.8-4.2-10-6.7-16.6-6.7c-5.8,0-12.8,2.6-12.8,11.1
		c-0.1,6.4,3.8,7.6,15.1,13.2c9.3,4,17.9,8.5,18,18.8c0,17.2-17,20.2-25.3,20.2c-7.4,0-14.1-1.8-17.9-4.9V82l0.6,0.5
		c6.7,6.3,12.6,9.5,20.3,9.5c7.6,0.1,14.3-3.6,14.3-10.7c0-5.9-5.3-9.4-14.7-13.4c-9-3.9-14.9-6.5-17.3-12.9
		c-3.7,8.9-20.7,50.4-24.7,59.3h-9.2l2.2-4.1l1.9-3.6l0.1-0.1c2.3-4.5,5.7-11.6,8.6-18.5l-17.7-42.7c-0.1-0.3-0.4-0.9-1-2.3
		c-1.4-3.1-2.6-5.9-6.4-7.4c-2-0.7-4.2-1-6.8-1c-5.8,0-13.3,2.6-13.3,11.1c-0.1,6.4,4.2,7.6,15.5,13.2c9.3,4,17.9,8.5,18,18.8
		c0,17.2-17,20.2-25.3,20.2c-6.6,0-12.6-1.4-16.6-4V83L164.9,83z"/>
	<path class="st1" d="M39.1,29.7l0.1,7.5l0,0.5h0.1c0.1-0.3,0.3-0.6,0.4-0.8c3.8-4.1,8.6-8.1,20-8.1c10.9,0,18,9.3,18.3,15.1l0,41.3
		l0,0.2v10.2h-9.4l0-12.3l0-35.2c0-7.3-6.4-12.5-14.2-12.5c-6.5,0-14.9,5.8-15.1,11.8v37.8l0,0.3v10.2H30V85.3V38.4l0-8.7h1.7h5.1
		H39.1L39.1,29.7z"/>
</g>
</svg>
