<?xml version="1.0" encoding="utf-8"?>
<!-- Generator: Adobe Illustrator 27.1.1, SVG Export Plug-In . SVG Version: 6.00 Build 0)  -->
<svg version="1.1" id="Layer_1" xmlns="http://www.w3.org/2000/svg" xmlns:xlink="http://www.w3.org/1999/xlink" x="0px" y="0px"
	 viewBox="0 0 380.04 103.7" style="enable-background:new 0 0 380.04 103.7;" xml:space="preserve">
<path d="M139.96,59.04l-10.46-7.13c-4.08-2.88-5.87-5.51-5.87-8.63c0-4.01,3.32-6.5,8.03-6.5c6,0,8.8,2.75,12.37,2.75
	c2.8,0,4.72-1.88,4.72-4.63c0-2-1.02-3.63-3.7-4.88c-4.21-2-8.8-2.75-13.77-2.75c-5.23,0-9.82,1.5-13.13,4.01
	c-0.64,0.5-1.27,1-1.91,1.62c-3.83,4.01-7.01,9.88-9.57,18.14l-2.94,9.51c-5.23,16.77-13.52,24.77-26.4,24.77
	c-14.16,0-23.08-9.64-23.08-23.89c0-14.26,8.93-24.02,21.81-24.02c0.56,0,1.11,0.02,1.65,0.05c0.06,0.01,0.13,0.01,0.19,0.01
	c0.48,0.03,0.96,0.07,1.43,0.12c0.08,0.01,0.16,0.02,0.24,0.03c0.47,0.05,0.92,0.12,1.37,0.19c0.07,0.01,0.14,0.02,0.2,0.03
	c0.48,0.08,0.94,0.17,1.4,0.27c0.04,0.01,0.07,0.02,0.11,0.02c2.01,0.45,3.88,1.11,5.66,1.92c1.66,0.75,3.06,1,4.33,1
	c3.06,0,5.1-2,5.1-5c0-1.88-1.15-3.75-3.83-5c-4.85-2.38-11.1-3.75-17.86-3.75c-20.15,0-34.05,14.01-34.05,34.4
	c0,5.37,0.97,10.29,2.8,14.63c-2.65,5.65-6.69,8.64-11.98,8.64c-6.38,0-10.59-3.63-10.59-11.89V37.78h14.92c3.44,0,5.74-2,5.74-4.88
	c0-2.88-2.3-4.88-5.74-4.88H22.24V15.26c0-3.75-2.55-6.26-6.12-6.26S10,11.5,10,15.26v24.77v34.4c0,13.76,8.03,21.02,21.68,21.02
	c3.06,0,5.87-0.5,8.42-1.38c4.47-1.65,8.06-4.54,10.6-8.68c6.06,6.42,15.05,10.19,26.26,10.19c5.87,0,10.97-1.13,15.56-3.5
	c9.31-4.76,15.94-14.39,20.54-29.15l2.68-8.63c1.79,2.34,4.29,4.58,7.65,6.88l9.57,6.5c4.33,3,6.12,5.51,6.12,9.13
	c0,5.38-4.33,9.01-10.59,9.01c-6,0-11.1-3-13.9-3c-2.8,0-4.72,1.88-4.72,4.63c0,2,1.02,3.63,3.7,4.88c3.7,1.75,9.69,3.25,15.05,3.25
	c6.76,0,12.37-2,16.33-5.51c3.57-3.25,5.74-7.88,5.74-13.26C150.67,69.3,147.61,64.3,139.96,59.04z"/>
<path d="M174.1,30.56h8.6V15.21h6.1V9H168v6.21h6.1V30.56z"/>
<path d="M195.13,30.56l4.38-12.89l4.37,12.89h8.41L204.06,9h-9.09l-8.24,21.56H195.13z"/>
<path d="M216.33,30.56h8.6V15.21h6.1V9h-20.79v6.21h6.1V30.56z"/>
<path d="M237.35,30.56l4.38-12.89l4.38,12.89h8.41L246.28,9h-9.1l-8.24,21.56H237.35z"/>
<path d="M319.85,45.98c1.06,2.44,2.46,5.08,3.86,7.44l5.62,9.48h4.08V41.34h-3.64v7.52c0,3.3,0.07,6.07,0.36,8.93l-0.08,0.02
	c-0.99-2.34-2.24-4.85-3.67-7.22l-5.56-9.25h-4.5V62.9h3.63v-7.71c0-3.54-0.05-6.39-0.21-9.19L319.85,45.98z"/>
<path d="M300.35,56.81h6.84l1.95,6.09h4.22l-6.99-21.56h-5l-6.91,21.56h4.07L300.35,56.81z M302.65,48.51
	c0.38-1.28,0.71-2.77,1.02-4.04h0.07c0.33,1.25,0.68,2.72,1.09,4.05l1.7,5.32h-5.55L302.65,48.51z"/>
<path d="M236.22,59.97c-2,0-3.93-0.64-5.2-1.38l-0.87,3.26c1.17,0.72,3.54,1.38,5.82,1.38c5.56,0,8.17-3.01,8.17-6.48
	c0-3.1-1.8-4.98-5.54-6.41c-2.87-1.1-4.12-1.88-4.12-3.53c0-1.27,1.06-2.59,3.56-2.59c2.02,0,3.52,0.62,4.3,1.02l0.94-3.18
	c-1.12-0.57-2.83-1.06-5.16-1.06c-4.67,0-7.62,2.66-7.62,6.19c0,3.09,2.27,5,5.83,6.27c2.72,0.99,3.82,1.95,3.82,3.58
	C240.13,58.8,238.72,59.97,236.22,59.97z"/>
<path d="M179.7,44.26c1.76,0,3.19,0.39,4.19,0.84l0.85-3.14c-0.8-0.43-2.62-0.96-5.22-0.96c-6.58,0-11.53,4.28-11.53,11.37
	c0,6.56,4.16,10.87,10.99,10.87c2.6,0,4.66-0.52,5.58-0.98l-0.65-3.1c-1.04,0.47-2.7,0.78-4.29,0.78c-4.74,0-7.49-3.01-7.49-7.76
	C172.14,47,175.3,44.26,179.7,44.26z"/>
<path d="M289.65,62.9V44.65h6.21v-3.31h-16.29v3.31h6.15V62.9H289.65z"/>
<path d="M368.27,41.34l-2.59,5.52c-0.73,1.56-1.33,2.9-1.86,4.28h-0.07c-0.59-1.46-1.15-2.69-1.88-4.27l-2.56-5.53h-4.5l6.81,12.58
	v8.97h3.93v-9.08l7.15-12.47L368.27,41.34L368.27,41.34z"/>
<path d="M196.13,40.99c-6.08,0-10.25,4.67-10.25,11.29c0,6.31,3.85,10.97,9.94,10.97h0.03c5.9,0,10.27-4.13,10.27-11.35
	C206.1,45.74,202.4,40.99,196.13,40.99z M195.97,60.1h-0.03c-3.76,0-5.96-3.62-5.94-7.91c-0.01-4.3,2.06-8.05,5.99-8.05
	s5.94,3.84,5.94,7.91C201.92,56.56,199.77,60.1,195.97,60.1z"/>
<path d="M348.51,44.26c1.75,0,3.19,0.39,4.19,0.84l0.85-3.14c-0.8-0.43-2.62-0.96-5.22-0.96c-6.58,0-11.53,4.28-11.53,11.37
	c0,6.56,4.16,10.87,10.99,10.87c2.6,0,4.66-0.51,5.58-0.98l-0.65-3.1c-1.04,0.47-2.7,0.78-4.3,0.78c-4.74,0-7.49-3.01-7.49-7.76
	C340.95,47,344.11,44.26,348.51,44.26z"/>
<path d="M272.87,41.34h-3.93V62.9h12.79v-3.3h-8.86V41.34z"/>
<path d="M264.46,53.65V41.34h-3.93v12.57c0,4.23-1.7,6.17-4.53,6.17c-2.67,0-4.42-1.96-4.42-6.17V41.34h-3.93v12.34
	c0,6.78,3.24,9.58,8.2,9.58C261.05,63.25,264.46,60.29,264.46,53.65z"/>
<path d="M226.6,41.34h-3.64v7.52c0,3.3,0.07,6.07,0.35,8.93l-0.07,0.02c-1-2.34-2.24-4.85-3.67-7.22l-5.56-9.25h-4.5V62.9h3.64
	v-7.71c0-3.54-0.05-6.39-0.21-9.18l0.1-0.02c1.06,2.44,2.46,5.08,3.86,7.44l5.62,9.48h4.07L226.6,41.34L226.6,41.34z"/>
<path d="M243.41,73.67h-3.93v21.56h3.93V73.67z"/>
<path d="M212.42,85.12v-0.09c2.01-0.72,3.88-2.59,3.88-5.34c0-1.83-0.67-3.32-1.84-4.29c-1.44-1.2-3.93-1.73-6.59-1.73
	c-2.67,0-4.43,0.19-5.92,0.46v21.1h3.87v-8.79h1.96c2.22,0.05,3.23,0.96,3.85,3.74c0.59,2.66,1.11,4.43,1.44,5.05h4.01
	c-0.43-0.84-1.01-3.29-1.68-5.96C214.87,87.19,213.97,85.71,212.42,85.12z M208.14,83.57h-2.31v-6.76c0.39-0.1,1.19-0.19,2.42-0.19
	c2.52,0.01,4.16,1.1,4.16,3.43C212.41,82.17,210.79,83.57,208.14,83.57z"/>
<path d="M229.85,83.53c-0.84,2.61-1.62,5.25-2.19,7.79h-0.07c-0.56-2.61-1.3-5.13-2.11-7.85l-2.94-9.8h-4.29l6.97,21.56h4.51
	l7.44-21.56h-4.19L229.85,83.53z"/>
<path d="M270.64,85.66h8.12v-3.21h-8.12v-5.54h8.6v-3.24H266.7v21.55h13v-3.24h-9.07V85.66z"/>
<path d="M258.48,76.58c1.76,0,3.19,0.39,4.19,0.84l0.86-3.14c-0.8-0.43-2.62-0.96-5.22-0.96c-6.58,0-11.53,4.28-11.53,11.37
	c0,6.56,4.16,10.87,11,10.87c2.6,0,4.65-0.51,5.58-0.98l-0.65-3.1c-1.04,0.47-2.7,0.78-4.3,0.78c-4.73,0-7.49-3.01-7.49-7.76
	C250.93,79.32,254.09,76.58,258.48,76.58z"/>
<path d="M176.45,82.67c-2.88-1.1-4.12-1.88-4.12-3.53c0-1.27,1.06-2.59,3.55-2.59c2.02,0,3.53,0.62,4.3,1.02l0.94-3.18
	c-1.12-0.57-2.83-1.06-5.16-1.06c-4.67,0-7.62,2.66-7.62,6.19c0,3.09,2.27,5,5.83,6.27c2.72,0.99,3.81,1.95,3.81,3.58
	c0,1.77-1.4,2.94-3.91,2.94c-2,0-3.93-0.64-5.2-1.38l-0.87,3.26c1.18,0.72,3.54,1.38,5.82,1.38c5.56,0,8.17-3.01,8.17-6.48
	C181.98,85.98,180.19,84.09,176.45,82.67z"/>
<path d="M189.46,85.66h8.12v-3.21h-8.12v-5.54h8.6v-3.24h-12.54v21.55h13.01v-3.24h-9.08V85.66z"/>
<path d="M290.65,82.67c-2.87-1.1-4.12-1.88-4.12-3.53c0-1.27,1.06-2.59,3.55-2.59c2.02,0,3.53,0.62,4.3,1.02l0.94-3.18
	c-1.12-0.57-2.83-1.06-5.16-1.06c-4.67,0-7.62,2.66-7.62,6.19c0,3.09,2.27,5,5.83,6.27c2.72,0.99,3.81,1.95,3.81,3.58
	c0,1.77-1.4,2.94-3.91,2.94c-2,0-3.93-0.64-5.2-1.38l-0.87,3.26c1.17,0.72,3.54,1.38,5.82,1.38c5.56,0,8.17-3.01,8.17-6.48
	C296.19,85.98,294.39,84.09,290.65,82.67z"/>
</svg>
