<?xml version="1.0" encoding="utf-8"?>
<!-- Generator: Adobe Illustrator 27.1.1, SVG Export Plug-In . SVG Version: 6.00 Build 0)  -->
<svg version="1.1" id="Layer_1" xmlns="http://www.w3.org/2000/svg" xmlns:xlink="http://www.w3.org/1999/xlink" x="0px" y="0px"
	 viewBox="0 0 564 112" style="enable-background:new 0 0 564 112;" xml:space="preserve">
<style type="text/css">
	.st0{clip-path:url(#SVGID_00000036241526567979461540000004602916528813943688_);}
	.st1{clip-path:url(#SVGID_00000049942686857904193200000005165052887040571027_);fill:#000048;}
	
		.st2{clip-path:url(#SVGID_00000177459182054259965030000009183921987629067147_);fill:url(#SVGID_00000005249722770725086470000010441498643628155566_);}
	
		.st3{clip-path:url(#SVGID_00000147901088623928163160000018342017675440066745_);fill:url(#SVGID_00000057841477288525810720000002194788539722475651_);}
	
		.st4{clip-path:url(#SVGID_00000106837004105939623150000009185069900024537220_);fill:url(#SVGID_00000007387136977695189170000002975045481750821800_);}
	
		.st5{clip-path:url(#SVGID_00000027566217582216433370000007076112450788911749_);fill:url(#SVGID_00000050625829041570163330000016952935406135350674_);}
	.st6{fill:#000048;}
</style>
<g>
	<defs>
		<rect id="SVGID_1_" x="6" y="8.56" width="121.54" height="96.72"/>
	</defs>
	<clipPath id="SVGID_00000096028275303479263430000013091104671495686537_">
		<use xlink:href="#SVGID_1_"  style="overflow:visible;"/>
	</clipPath>
	<g style="clip-path:url(#SVGID_00000096028275303479263430000013091104671495686537_);">
		<defs>
			<rect id="SVGID_00000002366049961314435890000001574287259322248587_" x="136.18" y="14.38" width="421.16" height="89.71"/>
		</defs>
		<clipPath id="SVGID_00000067917923372438610920000005785635812399049096_">
			<use xlink:href="#SVGID_00000002366049961314435890000001574287259322248587_"  style="overflow:visible;"/>
		</clipPath>
		<path style="clip-path:url(#SVGID_00000067917923372438610920000005785635812399049096_);fill:#000048;" d="M557.34,19.81
			c0,2.96-2.42,5.39-5.4,5.39c-2.95,0-5.38-2.43-5.38-5.39c0-2.96,2.42-5.39,5.38-5.39C554.91,14.42,557.34,16.84,557.34,19.81
			 M556.61,19.81c0-2.58-2.1-4.69-4.66-4.69c-2.56,0-4.64,2.11-4.64,4.69c0,2.57,2.08,4.68,4.64,4.68
			C554.51,24.49,556.61,22.38,556.61,19.81 M552.92,20.27l1.63,2.5h-1.26l-1.47-2.38h-0.84v2.38h-1.03v-5.96h2.25
			c1,0,1.84,0.78,1.84,1.78C554.04,19.42,553.61,20.03,552.92,20.27 M550.99,19.49h1.11c0.51,0,0.9-0.38,0.9-0.86
			c0-0.48-0.39-0.84-0.9-0.84h-1.11V19.49z M355.19,31.92h8.11v48.63h-8.11V31.92z M325.51,30.84c-5.39,0-10.33,1.91-14.19,5.09
			v-4.01h-8.11v48.63h8.11V53.13c0-7.84,6.35-14.19,14.19-14.19c7.83,0,14.19,6.35,14.19,14.19v27.42h8.11V53.13
			C347.81,40.82,337.83,30.84,325.51,30.84 M287.01,31.91h8.11v46.8v0.01c0,14.02-12.24,25.38-25.38,25.38
			c-12.11,0-21-7.39-24.17-17.59h8.71c2.69,5.63,7.95,9.49,15.46,9.49c8.65,0,17.27-7.73,17.27-17.27V74.8
			c-4.53,4.21-10.6,6.79-17.27,6.79c-14.02,0-25.38-11.36-25.38-25.38s11.36-25.38,25.38-25.38c6.67,0,12.74,2.58,17.27,6.79V31.91z
			 M287.01,56.22c0-9.54-7.73-17.27-17.27-17.27c-9.54,0-17.27,7.73-17.27,17.27c0,9.54,7.73,17.27,17.27,17.27
			C279.28,73.49,287.01,65.76,287.01,56.22 M161.56,38.94c6.92,0,12.9,4.08,15.65,9.96h8.65c-3.14-10.45-12.84-18.07-24.3-18.07
			c-14.02,0-25.38,11.36-25.38,25.38c0,14.02,11.36,25.38,25.38,25.38c11.47,0,21.16-7.62,24.3-18.07h-8.65
			c-2.76,5.88-8.73,9.96-15.65,9.96c-9.54,0-17.27-7.73-17.27-17.27C144.29,46.68,152.02,38.94,161.56,38.94 M240.46,56.22
			c0,14.02-11.36,25.38-25.38,25.38c-14.02,0-25.38-11.36-25.38-25.38c0-14.02,11.36-25.38,25.38-25.38
			C229.1,30.84,240.46,42.2,240.46,56.22 M232.35,56.22c0-9.54-7.73-17.27-17.27-17.27c-9.54,0-17.27,7.73-17.27,17.27
			c0,9.54,7.73,17.27,17.27,17.27C224.62,73.49,232.35,65.76,232.35,56.22 M497.51,30.84c-5.39,0-10.33,1.91-14.19,5.09v-4h-8.11
			v48.62h8.11V53.13c0-7.84,6.35-14.19,14.19-14.19c7.84,0,14.19,6.35,14.19,14.19v27.42h8.11V53.13
			C519.81,40.82,509.83,30.84,497.51,30.84 M459.01,31.94h8.11v48.62h-8.11v-5.75c-4.53,4.21-10.6,6.79-17.27,6.79
			c-14.02,0-25.38-11.36-25.38-25.38c0-14.02,11.36-25.38,25.38-25.38v0.01c6.67,0,12.74,2.58,17.27,6.79V31.94z M459.01,56.22
			c0-9.54-7.73-17.27-17.27-17.27c-9.54,0-17.27,7.73-17.27,17.27c0,9.54,7.73,17.27,17.27,17.27
			C451.28,73.5,459.01,65.76,459.01,56.22 M546.91,40.03v-8.11h-12.16V18.65h-8.11v13.26v8.11v24.32c0,8.95,7.26,16.21,16.21,16.21
			h4.06v-8.11h-4.06l0.01,0.01c-4.47,0-8.11-3.64-8.11-8.11V40.03H546.91z M359.26,14.38c-2.97,0-5.38,2.41-5.38,5.39
			c0,2.97,2.41,5.38,5.38,5.38c2.98,0,5.39-2.41,5.39-5.38C364.64,16.79,362.23,14.38,359.26,14.38 M412.01,31.93h-40.53v8.11h30.02
			l-30.02,32.41v8.11h40.53v-8.11h-30.04L412,40.04L412.01,31.93z"/>
	</g>
</g>
<g>
	<defs>
		<polygon id="SVGID_00000081607897769281988110000013978600068868012702_" points="6,56.92 39.61,105.27 74.44,84.46 54.92,56.92 
					"/>
	</defs>
	<clipPath id="SVGID_00000031916529258089378270000004944238324203795133_">
		<use xlink:href="#SVGID_00000081607897769281988110000013978600068868012702_"  style="overflow:visible;"/>
	</clipPath>
	
		<linearGradient id="SVGID_00000031895068533091642110000008235890136076387712_" gradientUnits="userSpaceOnUse" x1="-341.6086" y1="418.1489" x2="-340.6086" y2="418.1489" gradientTransform="matrix(68.4382 0 0 48.3577 23385.0918 -20139.627)">
		<stop  offset="0" style="stop-color:#3D54CE"/>
		<stop  offset="1" style="stop-color:#35CACF"/>
	</linearGradient>
	
		<rect x="6" y="56.92" style="clip-path:url(#SVGID_00000031916529258089378270000004944238324203795133_);fill:url(#SVGID_00000031895068533091642110000008235890136076387712_);" width="68.44" height="48.36"/>
</g>
<g>
	<defs>
		<polygon id="SVGID_00000137836308721335855020000010756978813152959917_" points="39.61,105.27 87.72,105.27 120.67,56.92 
			120.67,56.92 		"/>
	</defs>
	<clipPath id="SVGID_00000080893716519659936060000004172729354887600042_">
		<use xlink:href="#SVGID_00000137836308721335855020000010756978813152959917_"  style="overflow:visible;"/>
	</clipPath>
	
		<linearGradient id="SVGID_00000048466398404258760440000012491292087874085278_" gradientUnits="userSpaceOnUse" x1="-341.358" y1="418.1489" x2="-340.358" y2="418.1489" gradientTransform="matrix(81.0693 0 0 48.3577 27713.2617 -20139.627)">
		<stop  offset="0" style="stop-color:#13457D"/>
		<stop  offset="1" style="stop-color:#279698"/>
	</linearGradient>
	
		<rect x="39.61" y="56.92" style="clip-path:url(#SVGID_00000080893716519659936060000004172729354887600042_);fill:url(#SVGID_00000048466398404258760440000012491292087874085278_);" width="81.07" height="48.36"/>
</g>
<g>
	<defs>
		<polygon id="SVGID_00000028324958410285956050000011373513848511488670_" points="6,56.92 54.92,56.92 74.5,29.37 39.61,8.56 		
			"/>
	</defs>
	<clipPath id="SVGID_00000175313532823477046780000007353924361722050747_">
		<use xlink:href="#SVGID_00000028324958410285956050000011373513848511488670_"  style="overflow:visible;"/>
	</clipPath>
	
		<linearGradient id="SVGID_00000081635701492240619180000012624339490112865414_" gradientUnits="userSpaceOnUse" x1="-341.6073" y1="418.1488" x2="-340.6073" y2="418.1488" gradientTransform="matrix(68.4933 0 0 48.3578 23403.8184 -20188.0234)">
		<stop  offset="0" style="stop-color:#090086"/>
		<stop  offset="1" style="stop-color:#2F96A9"/>
	</linearGradient>
	
		<rect x="6" y="8.56" style="clip-path:url(#SVGID_00000175313532823477046780000007353924361722050747_);fill:url(#SVGID_00000081635701492240619180000012624339490112865414_);" width="68.49" height="48.36"/>
</g>
<g>
	<defs>
		<polygon id="SVGID_00000137129451534613950320000016554847309396233613_" points="39.61,8.56 120.67,56.91 120.67,56.91 
			87.72,8.56 		"/>
	</defs>
	<clipPath id="SVGID_00000001650171285081700390000004361771222478755762_">
		<use xlink:href="#SVGID_00000137129451534613950320000016554847309396233613_"  style="overflow:visible;"/>
	</clipPath>
	
		<linearGradient id="SVGID_00000169532450507341023230000013590822948770327181_" gradientUnits="userSpaceOnUse" x1="-341.358" y1="418.1488" x2="-340.358" y2="418.1488" gradientTransform="matrix(81.0693 0 0 48.3578 27713.2617 -20188.0234)">
		<stop  offset="0" style="stop-color:#3B62CA"/>
		<stop  offset="1" style="stop-color:#93DFE3"/>
	</linearGradient>
	
		<rect x="39.61" y="8.56" style="clip-path:url(#SVGID_00000001650171285081700390000004361771222478755762_);fill:url(#SVGID_00000169532450507341023230000013590822948770327181_);" width="81.07" height="48.36"/>
</g>
<path class="st6" d="M411.97,31.91h-40.54v8.11h30.03l-30.03,32.42v8.11h40.54v-8.11h-30.05l30.03-32.42L411.97,31.91z
	 M359.19,14.36c-2.97,0-5.38,2.41-5.38,5.39c0,2.97,2.41,5.38,5.38,5.38c2.98,0,5.39-2.41,5.39-5.38
	C364.58,16.76,362.17,14.36,359.19,14.36 M546.91,40.01V31.9h-12.16V18.63h-8.11V31.9v8.11v24.32c0,8.96,7.26,16.21,16.21,16.21
	h4.06v-8.11h-4.06l0.01,0.01c-4.47,0-8.11-3.64-8.11-8.11V40.01H546.91z M458.98,56.21c0-9.54-7.74-17.28-17.28-17.28
	s-17.28,7.74-17.28,17.28c0,9.54,7.74,17.28,17.28,17.28S458.98,65.75,458.98,56.21 M458.98,31.92h8.11v48.63h-8.11V74.8
	c-4.53,4.21-10.6,6.79-17.28,6.79c-14.02,0-25.39-11.36-25.39-25.39c0-14.02,11.36-25.39,25.39-25.39v0.01
	c6.67,0,12.75,2.58,17.28,6.79V31.92z M497.49,30.82c-5.39,0-10.33,1.91-14.19,5.1v-4h-8.11v48.64h8.11V53.11
	c0-7.84,6.35-14.19,14.19-14.19c7.84,0,14.19,6.35,14.19,14.19v27.43h8.11V53.12C519.8,40.8,509.81,30.82,497.49,30.82
	 M232.25,56.21c0-9.54-7.74-17.28-17.28-17.28c-9.54,0-17.28,7.74-17.28,17.28c0,9.54,7.73,17.28,17.28,17.28
	C224.51,73.48,232.25,65.75,232.25,56.21 M240.36,56.21c0,14.02-11.36,25.39-25.39,25.39c-14.02,0-25.39-11.36-25.39-25.39
	c0-14.02,11.36-25.39,25.39-25.39C228.99,30.82,240.36,42.18,240.36,56.21 M161.44,38.93c6.93,0,12.9,4.08,15.66,9.97h8.65
	c-3.14-10.45-12.84-18.07-24.31-18.07c-14.02,0-25.39,11.36-25.39,25.39c0,14.02,11.36,25.39,25.39,25.39
	c11.47,0,21.17-7.62,24.31-18.07h-8.65c-2.76,5.89-8.73,9.96-15.66,9.96c-9.54,0-17.28-7.74-17.28-17.28
	C144.16,46.66,151.9,38.93,161.44,38.93 M286.93,56.21c0-9.54-7.74-17.28-17.28-17.28c-9.54,0-17.28,7.74-17.28,17.28
	c0,9.54,7.74,17.28,17.28,17.28C279.19,73.48,286.93,65.75,286.93,56.21 M286.93,31.89h8.11V78.7v0.01
	c0,14.02-12.25,25.39-25.39,25.39c-12.11,0-21.01-7.39-24.18-17.6h8.71c2.69,5.63,7.95,9.49,15.47,9.49
	c8.65,0,17.28-7.74,17.28-17.28V74.8c-4.53,4.22-10.61,6.79-17.28,6.79c-14.02,0-25.39-11.36-25.39-25.39
	c0-14.02,11.36-25.39,25.39-25.39c6.67,0,12.75,2.58,17.28,6.79V31.89z M325.44,30.82c-5.4,0-10.33,1.91-14.19,5.1V31.9h-8.11v48.65
	h8.11V53.11c0-7.84,6.35-14.19,14.19-14.19c7.84,0,14.19,6.35,14.19,14.19v27.43h8.11V53.12C347.74,40.8,337.76,30.82,325.44,30.82
	 M355.13,31.9h8.11v48.65h-8.11V31.9z M550.99,19.47h1.11c0.51,0,0.9-0.38,0.9-0.86c0-0.48-0.39-0.84-0.9-0.84h-1.11V19.47z
	 M552.92,20.25l1.63,2.5h-1.26l-1.47-2.38h-0.84v2.38h-1.03v-5.96h2.25c1,0,1.84,0.78,1.84,1.78
	C554.04,19.39,553.61,20.01,552.92,20.25 M556.6,19.78c0-2.58-2.1-4.69-4.66-4.69c-2.56,0-4.65,2.11-4.65,4.69
	c0,2.58,2.08,4.69,4.65,4.69C554.51,24.47,556.6,22.36,556.6,19.78 M557.34,19.78c0,2.96-2.43,5.39-5.41,5.39
	c-2.95,0-5.38-2.43-5.38-5.39c0-2.97,2.43-5.39,5.38-5.39C554.91,14.39,557.34,16.82,557.34,19.78"/>
</svg>
