<?xml version="1.0" encoding="utf-8"?>
<!-- Generator: Adobe Illustrator 27.1.1, SVG Export Plug-In . SVG Version: 6.00 Build 0)  -->
<svg version="1.1"
	 id="svg2" xmlns:sodipodi="http://sodipodi.sourceforge.net/DTD/sodipodi-0.dtd" xmlns:cc="http://creativecommons.org/ns#" xmlns:rdf="http://www.w3.org/1999/02/22-rdf-syntax-ns#" xmlns:svg="http://www.w3.org/2000/svg" xmlns:dc="http://purl.org/dc/elements/1.1/" xmlns:inkscape="http://www.inkscape.org/namespaces/inkscape" inkscape:output_extension="org.inkscape.output.svg.inkscape" sodipodi:docname="tata steel.svg" sodipodi:version="0.32"
	 xmlns="http://www.w3.org/2000/svg" xmlns:xlink="http://www.w3.org/1999/xlink" x="0px" y="0px"
	 viewBox="762.67 -9.638 642.83 93.617" enable-background="new 762.67 -9.638 642.83 93.617" xml:space="preserve">
<defs>
	
		<inkscape:perspective  id="perspective29" inkscape:persp3d-origin="1117.5 : 97.083333 : 1" inkscape:vp_x="0 : 145.625 : 1" inkscape:vp_y="0 : 1000 : 0" inkscape:vp_z="2235 : 145.625 : 1" sodipodi:type="inkscape:persp3d">
		</inkscape:perspective>
</defs>
<sodipodi:namedview  bordercolor="#666666" borderopacity="1.0" gridtolerance="10.0" guidetolerance="10.0" id="base" inkscape:current-layer="svg2" inkscape:cx="1117.5" inkscape:cy="145.625" inkscape:pageopacity="0.0" inkscape:pageshadow="2" inkscape:window-height="669" inkscape:window-width="640" inkscape:window-x="138" inkscape:window-y="95" inkscape:zoom="0.24340045" objecttolerance="10.0" pagecolor="#ffffff" showgrid="false">
	</sodipodi:namedview>
<g id="_x23_ffffffff">
</g>
<g id="_x23_3c78bbff">
	<path id="path6" fill="#0081C9" d="M1123.073,4.072c4.7-3.016,10.337-4.22,15.86-4.381c6.385-0.075,12.931,0.8,18.715,3.64
		c-1.07,3.654-2.158,7.297-3.245,10.945c-4.656-2.388-9.901-3.558-15.123-3.53c-3.108,0.079-6.371,0.741-8.845,2.73
		c-2.285,1.822-3.507,4.94-2.865,7.819c0.388,2.467,2.173,4.443,4.193,5.778c4.706,3.142,10.312,4.443,15.305,7.022
		c3.801,1.897,7.435,4.381,9.979,7.84c3.16,4.257,4.072,9.863,3.301,15.03c-0.652,4.741-3.063,9.229-6.718,12.331
		c-3.451,2.998-7.805,4.799-12.255,5.702c-5.181,1.046-10.542,1.118-15.761,0.312c-4.525-0.676-9.01-1.907-13.062-4.069
		c0.858-3.801,1.987-7.544,2.968-11.318c5.445,3.071,11.695,4.667,17.937,4.742c3.695-0.062,7.691-0.749,10.509-3.339
		c2.261-2.003,3.184-5.197,2.762-8.141c-0.271-2.553-1.863-4.776-3.877-6.282c-4.165-3.191-9.384-4.357-14.077-6.515
		c-4.905-2.258-9.709-5.369-12.56-10.087c-2.453-3.969-2.965-8.879-2.131-13.404C1115.079,11.589,1118.523,6.913,1123.073,4.072z"/>
	<path id="path8" fill="#0081C9" d="M781.294,0.504c23.913-0.017,47.826,0,71.738-0.011c-0.007,7.28-0.003,14.56,0,21.837
		c-6.865,0.017-13.727,0-20.588,0.01c0,17.456-0.004,34.915,0.003,52.375c-9.959-0.011-19.922,0.004-29.882-0.011
		c0.021-17.452-0.003-34.905,0.014-52.357c-7.091-0.024-14.183,0-21.278-0.014C781.298,15.057,781.315,7.78,781.294,0.504z"/>
	<path id="path10" fill="#0081C9" d="M873.731,0.476c10.389,0.048,20.777,0.014,31.165,0.014
		c9.61,24.75,19.233,49.493,28.857,74.236c-9.699-0.03-19.401-0.014-29.101-0.006c-5.098-14.623-10.142-29.265-15.202-43.901
		c-0.274,0.34-0.44,0.741-0.57,1.153c-4.848,14.248-9.74,28.479-14.581,42.731c-9.585,0.024-19.167,0.003-28.753,0.01
		C854.896,49.949,864.296,25.202,873.731,0.476z"/>
	<path id="path12" fill="#0081C9" d="M926.881,0.476c23.909,0.048,47.818,0.007,71.728,0.021c0.007,7.28,0.003,14.56,0.003,21.84
		c-6.861,0.003-13.723-0.003-20.584,0c-0.004,17.46,0.006,34.919-0.004,52.375c-9.96,0.01-19.916-0.024-29.875,0.017
		c-0.083-17.46-0.01-34.926-0.034-52.389c-7.092-0.007-14.18,0-21.271-0.007C926.868,15.05,926.792,7.764,926.881,0.476z"/>
	<path id="path14" fill="#0081C9" d="M1019.239,0.487c10.385,0.02,20.77,0.01,31.156,0.006
		c9.641,24.736,19.257,49.483,28.863,74.233c-9.702-0.034-19.405-0.003-29.107-0.014c-5.087-14.687-10.145-29.381-15.26-44.059
		c-5.098,14.664-10.038,29.381-15.099,44.062c-9.581,0.004-19.164-0.02-28.747,0.01C1000.428,49.973,1009.801,25.219,1019.239,0.487
		z"/>
	<path id="path16" fill="#0081C9" d="M1161.927,0.836c18.653,0.003,37.311,0.014,55.964-0.007c0.041,3.784,0.004,7.568,0.018,11.352
		c-7.105-0.007-14.208,0.021-21.312-0.014c-0.062,20.849,0,41.698-0.028,62.547c-4.511-0.017-9.019,0.017-13.527-0.017
		c0.027-20.839,0.011-41.674,0.007-62.509c-7.04-0.011-14.084-0.004-21.124-0.004C1161.92,8.401,1161.909,4.617,1161.927,0.836z"/>
	<path id="path18" fill="#0081C9" d="M1226.398,0.816c14.354,0.068,28.709-0.021,43.063,0.044c-0.037,3.688-0.02,7.373-0.01,11.061
		c-9.825,0.003-19.652,0.028-29.474-0.014c-0.096,6.33-0.004,12.66-0.048,18.99c9.301,0.061,18.602-0.034,27.906,0.048
		c-0.09,3.681,0.071,7.369-0.083,11.05c-9.27-0.086-18.543-0.017-27.813-0.034c-0.014,7.174,0.014,14.351-0.014,21.525
		c10.385,0.048,20.773,0.003,31.158,0.024c0.024,3.712-0.048,7.428,0.038,11.143c-14.913,0.145-29.834,0.007-44.752,0.069
		c-0.041-19.635-0.007-39.269-0.017-58.904C1226.382,10.817,1226.293,5.815,1226.398,0.816z"/>
	<path id="path20" fill="#0081C9" d="M1284.984,0.898c14.374-0.13,28.76-0.034,43.139-0.048c-0.024,3.691-0.018,7.379-0.004,11.071
		c-9.825,0.003-19.654,0.024-29.478-0.01c-0.089,6.327,0,12.656-0.048,18.983c9.297,0.055,18.596-0.007,27.896,0.031
		c0,3.664-0.035,7.325,0.017,10.989c-9.298,0.106-18.599,0.014-27.899,0.048c-0.01,7.177,0.007,14.354-0.01,21.531
		c10.385,0.035,20.77,0,31.154,0.018c0.017,3.719-0.034,7.438,0.028,11.157c-14.903,0.116-29.814-0.014-44.718,0.065
		C1284.942,50.124,1285.097,25.508,1284.984,0.898z"/>
	<path id="path22" fill="#0081C9" d="M1343.716,0.823c4.522,0.044,9.044-0.003,13.565,0.024
		c-0.021,20.839-0.007,41.678-0.004,62.517c10.129,0.01,20.256,0.003,30.388,0.003c0.003,3.785,0.006,7.565-0.004,11.35
		c-14.646,0.007-29.289-0.027-43.936,0.017C1343.657,50.096,1343.675,25.46,1343.716,0.823z"/>
</g>
</svg>
