<svg width="45" height="49" viewBox="0 0 45 49" fill="none" xmlns="http://www.w3.org/2000/svg">
<path d="M39.1028 5.71582H6.08414C3.47904 5.71582 1.36719 7.82767 1.36719 10.4328V43.4515C1.36719 46.0566 3.47904 48.1684 6.08414 48.1684H39.1028C41.7079 48.1684 43.8198 46.0566 43.8198 43.4515V10.4328C43.8198 7.82767 41.7079 5.71582 39.1028 5.71582Z" stroke="white" stroke-width="1.15126" stroke-linecap="round" stroke-linejoin="round"/>
<path d="M29.7734 1V10.4339" stroke="white" stroke-width="1.15126" stroke-linecap="round" stroke-linejoin="round"/>
<path d="M15.3828 1V10.4339" stroke="white" stroke-width="1.15126" stroke-linecap="round" stroke-linejoin="round"/>
<path d="M1 16.4297H43.4526" stroke="white" stroke-width="1.15126" stroke-linecap="round" stroke-linejoin="round"/>
<path d="M12.0531 31.1969C12.0531 28.7409 12.584 26.8733 13.6457 25.5942C14.1062 25.0313 14.6371 24.6412 15.2383 24.4237C15.8395 24.2063 16.5686 24.0975 17.4257 24.0975C18.0013 24.0975 18.513 24.1487 18.9607 24.251C19.4212 24.3406 19.8305 24.4941 20.1887 24.7115C20.5597 24.929 20.8986 25.2232 21.2056 25.5942C22.2674 26.8733 22.7982 28.7409 22.7982 31.1969C22.7982 32.425 22.6639 33.5123 22.3953 34.4588C22.1267 35.3926 21.7301 36.1729 21.2056 36.7997C20.8986 37.1707 20.5597 37.4649 20.1887 37.6824C19.8305 37.8998 19.4212 38.0533 18.9607 38.1429C18.513 38.2452 18.0013 38.2964 17.4257 38.2964C16.5686 38.2964 15.8395 38.1876 15.2383 37.9702C14.6371 37.7399 14.1062 37.3498 13.6457 36.7997C12.584 35.5206 12.0531 33.653 12.0531 31.1969ZM20.6492 31.1969C20.6492 30.0841 20.5788 29.1247 20.4381 28.3188C20.2974 27.5001 20.08 26.8414 19.7858 26.3425C19.5427 25.9331 19.2357 25.6325 18.8648 25.4407C18.5066 25.236 18.0269 25.1337 17.4257 25.1337C16.8245 25.1337 16.3384 25.236 15.9674 25.4407C15.6093 25.6325 15.3086 25.9331 15.0656 26.3425C14.7714 26.8414 14.5539 27.5001 14.4132 28.3188C14.2725 29.1247 14.2022 30.0841 14.2022 31.1969C14.2022 32.3098 14.2725 33.2756 14.4132 34.0943C14.5539 34.9002 14.7714 35.5525 15.0656 36.0514C15.3086 36.448 15.6093 36.7486 15.9674 36.9532C16.3384 37.1579 16.8245 37.2602 17.4257 37.2602C18.0269 37.2602 18.5066 37.1579 18.8648 36.9532C19.2357 36.7486 19.5427 36.448 19.7858 36.0514C20.08 35.5525 20.2974 34.9002 20.4381 34.0943C20.5788 33.2756 20.6492 32.3098 20.6492 31.1969ZM26.4214 36.2817H32.4655L32.926 33.8257H33.9813V38.1045H24.8672V36.8381C24.8672 36.1601 25.0335 35.5461 25.3661 34.9961C25.7114 34.4461 26.1464 33.928 26.6708 33.4419C27.2081 32.943 27.7709 32.4633 28.3593 32.0028C28.9605 31.5423 29.5234 31.0754 30.0478 30.6021C30.5851 30.1288 31.02 29.6236 31.3526 29.0863C31.698 28.5491 31.8707 27.9606 31.8707 27.321C31.8707 26.6047 31.634 26.0611 31.1607 25.6901C30.6874 25.3063 30.0031 25.1145 29.1076 25.1145C28.3273 25.1145 27.7133 25.268 27.2656 25.575C26.8179 25.882 26.5237 26.3489 26.383 26.9757C26.7923 26.9757 27.1057 27.078 27.3232 27.2827C27.5407 27.4873 27.6494 27.7752 27.6494 28.1461C27.6494 28.5043 27.5407 28.7921 27.3232 29.0096C27.1057 29.2142 26.7987 29.3166 26.4022 29.3166C25.9673 29.3166 25.6411 29.1886 25.4236 28.9328C25.219 28.6642 25.1166 28.2612 25.1166 27.724C25.1166 26.9949 25.2957 26.3617 25.6539 25.8244C26.0248 25.2744 26.5365 24.8458 27.1889 24.5388C27.8541 24.2318 28.6216 24.0783 29.4914 24.0783C30.3612 24.0783 31.116 24.2318 31.7555 24.5388C32.4079 24.8458 32.9132 25.2808 33.2714 25.8436C33.6295 26.3936 33.8086 27.046 33.8086 27.8007C33.8086 28.581 33.6295 29.2718 33.2714 29.873C32.9132 30.4742 32.4527 31.0115 31.8899 31.4848C31.3398 31.9453 30.745 32.3738 30.1054 32.7703C29.4786 33.1541 28.8838 33.5314 28.321 33.9024C27.7709 34.2606 27.3168 34.6315 26.9586 35.0153C26.6005 35.399 26.4214 35.8212 26.4214 36.2817Z" fill="white"/>
</svg>
