<svg xmlns="http://www.w3.org/2000/svg" width="34" height="28" viewBox="0 0 34 28" fill="none">
<path d="M0.000868872 4.36835C0.279777 3.74862 0.766345 3.58042 1.39975 3.58222C6.77546 3.59661 12.1503 3.58761 17.526 3.59661C17.844 3.59661 17.9987 3.53724 18.1168 3.17926C18.7294 1.32095 20.3942 0.170533 22.35 0.195718C24.1077 0.219104 25.7473 1.49005 26.3112 3.29439C26.3885 3.54264 26.4988 3.59391 26.7221 3.59301C28.4886 3.58582 30.255 3.58582 32.0214 3.59301C32.2343 3.59301 32.4593 3.6146 32.6574 3.68925C33.1205 3.86375 33.3786 4.38544 33.2882 4.88645C33.197 5.39555 32.7591 5.76253 32.2047 5.76613C31.1968 5.77422 30.1889 5.76883 29.181 5.76883C28.3356 5.76883 27.4902 5.77332 26.6448 5.76523C26.4632 5.76343 26.3859 5.82279 26.3277 6.00719C25.716 7.92935 24.1155 9.14903 22.2092 9.16162C20.3029 9.17332 18.6755 7.94914 18.0595 6.00898C17.9743 5.74184 17.8266 5.76883 17.6459 5.76883C14.0801 5.76883 10.5151 5.76883 6.94923 5.76883C5.08551 5.76883 3.22091 5.75354 1.35718 5.77692C0.725508 5.78502 0.266744 5.57814 0 4.9728V4.36655L0.000868872 4.36835ZM22.184 6.9993C23.4274 7.0011 24.4422 5.95682 24.4405 4.67687C24.4387 3.40412 23.4091 2.34275 22.1814 2.34815C20.9598 2.35354 19.9597 3.39243 19.9545 4.66338C19.9493 5.96131 20.9381 6.9975 22.184 6.9993Z" fill="#1A325D"/>
<path d="M0.00111301 23.0152C0.263512 22.4045 0.726621 22.2102 1.35568 22.212C6.78526 22.2255 12.2148 22.2183 17.6444 22.2255C17.8825 22.2255 17.9998 22.1751 18.0797 21.9188C18.6601 20.0623 20.2927 18.839 22.1738 18.8282C24.0463 18.8174 25.698 20.0299 26.2906 21.8855C26.3827 22.1751 26.5139 22.2264 26.7719 22.2255C28.5705 22.2165 30.3699 22.2165 32.1693 22.2228C32.9956 22.2255 33.5291 22.9927 33.2215 23.7267C33.0747 24.0766 32.8193 24.3087 32.4448 24.3671C32.2849 24.3923 32.1216 24.3995 31.9591 24.3995C30.2248 24.4013 28.4914 24.4058 26.7571 24.3959C26.5069 24.3941 26.3853 24.4508 26.2975 24.7233C25.7023 26.5906 24.0532 27.8022 22.1565 27.7959C20.3066 27.7896 18.6636 26.5591 18.0841 24.7206C17.9989 24.4517 17.8738 24.3959 17.6244 24.3968C12.2166 24.404 6.80872 24.3959 1.40087 24.4103C0.766589 24.4121 0.283496 24.2358 0.000244141 23.6233V23.017L0.00111301 23.0152ZM22.2103 20.9905C20.9557 20.986 19.9591 22.0069 19.9556 23.2995C19.9521 24.5875 20.9557 25.6408 22.1895 25.6417C23.4163 25.6426 24.4477 24.5731 24.4416 23.3049C24.4355 22.0348 23.4328 20.995 22.2112 20.9905H22.2103Z" fill="#1A325D"/>
<path d="M0.000976562 13.7285C0.240785 13.1195 0.675221 12.9019 1.30776 12.9118C3.04116 12.9396 4.77629 12.9145 6.51056 12.9288C6.78947 12.9315 6.91546 12.8668 7.00843 12.5727C7.59318 10.735 9.27965 9.48928 11.126 9.50007C12.9871 9.51086 14.6441 10.7557 15.2201 12.6023C15.3035 12.8695 15.4226 12.9279 15.6746 12.9279C21.1806 12.9198 26.6866 12.9216 32.1935 12.9225C33.0146 12.9225 33.5446 13.7051 33.2119 14.4364C33.0146 14.8699 32.6705 15.0786 32.1953 15.0768C29.9188 15.0705 27.6433 15.0741 25.3668 15.0741C22.1363 15.0741 18.9068 15.0768 15.6772 15.0687C15.4278 15.0687 15.3044 15.1217 15.2201 15.3916C14.6415 17.249 12.9585 18.5056 11.0956 18.4966C9.24403 18.4876 7.56537 17.231 6.99713 15.3943C6.91111 15.1173 6.79208 15.0678 6.54445 15.0696C4.79975 15.0795 3.05419 15.057 1.3095 15.0849C0.677827 15.0948 0.244261 14.8726 0.00184543 14.2682V13.7294L0.000976562 13.7285ZM11.1025 11.6804C9.86093 11.6849 8.84609 12.7409 8.86086 14.0136C8.87563 15.2864 9.87049 16.309 11.1017 16.3144C12.3529 16.3207 13.3468 15.2953 13.3468 13.9974C13.3468 12.6986 12.3563 11.6759 11.1034 11.6804H11.1025Z" fill="#1A325D"/>
</svg>