<svg xmlns="http://www.w3.org/2000/svg" width="30" height="30" viewBox="0 0 30 30" fill="none">
<path d="M6.00047 9.26793C6.15205 8.93113 6.41649 8.83971 6.76073 8.84069C9.68228 8.84851 12.6034 8.84362 15.5249 8.84851C15.6977 8.84851 15.7818 8.81625 15.846 8.62169C16.1789 7.61176 17.0837 6.98653 18.1466 7.00022C19.1019 7.01293 19.9929 7.70366 20.2994 8.68426C20.3414 8.81918 20.4014 8.84705 20.5228 8.84656C21.4828 8.84265 22.4428 8.84265 23.4028 8.84656C23.5184 8.84656 23.6408 8.85829 23.7484 8.89886C24.0001 8.9937 24.1403 9.27722 24.0912 9.5495C24.0417 9.82619 23.8037 10.0256 23.5024 10.0276C22.9546 10.032 22.4069 10.0291 21.8591 10.0291C21.3997 10.0291 20.9402 10.0315 20.4807 10.0271C20.382 10.0261 20.34 10.0584 20.3084 10.1586C19.9759 11.2032 19.1061 11.8661 18.0701 11.8729C17.0341 11.8793 16.1496 11.214 15.8148 10.1596C15.7686 10.0144 15.6883 10.0291 15.5901 10.0291C13.6521 10.0291 11.7147 10.0291 9.77672 10.0291C8.76383 10.0291 7.75048 10.0207 6.73759 10.0335C6.39429 10.0379 6.14497 9.92542 6 9.59643V9.26696L6.00047 9.26793ZM18.0564 10.6978C18.7321 10.6988 19.2837 10.1312 19.2827 9.43561C19.2818 8.7439 18.7222 8.16707 18.055 8.17001C17.3911 8.17294 16.8476 8.73755 16.8447 9.42827C16.8419 10.1337 17.3793 10.6968 18.0564 10.6978Z" fill="#1A325D"/>
<path d="M6.00047 19.4031C6.14308 19.0712 6.39477 18.9656 6.73664 18.9666C9.68747 18.9739 12.6383 18.97 15.5891 18.9739C15.7185 18.9739 15.7823 18.9466 15.8257 18.8072C16.1411 17.7983 17.0284 17.1335 18.0508 17.1276C19.0684 17.1217 19.966 17.7807 20.2881 18.7892C20.3381 18.9466 20.4094 18.9744 20.5497 18.9739C21.5271 18.9691 22.5051 18.9691 23.483 18.9725C23.9321 18.9739 24.222 19.3909 24.0549 19.7898C23.9751 19.98 23.8362 20.1061 23.6327 20.1379C23.5458 20.1515 23.4571 20.1555 23.3688 20.1555C22.4262 20.1564 21.4842 20.1589 20.5416 20.1535C20.4057 20.1525 20.3395 20.1833 20.2919 20.3314C19.9684 21.3463 19.0721 22.0047 18.0413 22.0013C17.036 21.9979 16.143 21.3292 15.8281 20.33C15.7818 20.1838 15.7138 20.1535 15.5783 20.154C12.6392 20.1579 9.70022 20.1535 6.7612 20.1613C6.41649 20.1623 6.15394 20.0665 6 19.7336V19.4041L6.00047 19.4031ZM18.0706 18.3028C17.3887 18.3003 16.8471 18.8552 16.8452 19.5576C16.8433 20.2576 17.3887 20.8301 18.0592 20.8305C18.726 20.831 19.2865 20.2498 19.2832 19.5605C19.2799 18.8703 18.735 18.3052 18.0711 18.3028H18.0706Z" fill="#1A325D"/>
<path d="M6.00073 14.3557C6.13106 14.0247 6.36717 13.9064 6.71093 13.9118C7.65299 13.927 8.59599 13.9133 9.53852 13.9211C9.69009 13.9226 9.75856 13.8874 9.80909 13.7275C10.1269 12.7288 11.0434 12.0518 12.0469 12.0577C13.0584 12.0635 13.9589 12.7401 14.2719 13.7437C14.3173 13.8888 14.382 13.9206 14.5189 13.9206C17.5113 13.9162 20.5037 13.9172 23.4965 13.9177C23.9428 13.9177 24.2308 14.343 24.0499 14.7404C23.9428 14.976 23.7558 15.0894 23.4975 15.0884C22.2603 15.085 21.0236 15.087 19.7864 15.087C18.0307 15.087 16.2755 15.0884 14.5203 15.084C14.3848 15.084 14.3177 15.1129 14.2719 15.2595C13.9574 16.269 13.0428 16.9519 12.0304 16.947C11.0241 16.9421 10.1118 16.2592 9.80295 15.261C9.7562 15.1104 9.69151 15.0836 9.55693 15.0845C8.60874 15.0899 7.66007 15.0777 6.71188 15.0928C6.36858 15.0982 6.13295 14.9775 6.0012 14.649V14.3562L6.00073 14.3557ZM12.0341 13.2426C11.3593 13.245 10.8078 13.8189 10.8158 14.5106C10.8239 15.2023 11.3645 15.7581 12.0337 15.7611C12.7136 15.7645 13.2538 15.2072 13.2538 14.5018C13.2538 13.796 12.7155 13.2402 12.0346 13.2426H12.0341Z" fill="#1A325D"/>
<rect x="-0.5" y="0.5" width="29" height="29" rx="7.5" transform="matrix(-1 0 0 1 29 0)" stroke="#1A325D"/>
</svg>