<?xml version="1.0" encoding="utf-8"?>
<!-- Generator: Adobe Illustrator 27.1.1, SVG Export Plug-In . SVG Version: 6.00 Build 0)  -->
<svg version="1.1" id="layer" xmlns="http://www.w3.org/2000/svg" xmlns:xlink="http://www.w3.org/1999/xlink" x="0px" y="0px"
	 viewBox="0 0 625.899 353.957" enable-background="new 0 0 625.899 353.957" xml:space="preserve">
<path fill="#AB1F24" d="M64.426,301.655h-11.2v40.8h11.2c13,0,21.4-8,21.4-20.4S77.426,301.655,64.426,301.655 M60.926,309.055h3.2
	c8.9,0,13.8,4.6,13.8,13s-4.9,13-13.8,13h-3.2V309.055z"/>
<rect x="94.326" y="301.655" fill="#AB1F24" width="7.8" height="40.8"/>
<polygon fill="#AB1F24" points="109.426,309.055 120.826,309.055 120.826,342.455 128.526,342.455 128.526,309.055 139.826,309.055 
	139.826,301.655 109.426,301.655 "/>
<polygon fill="#AB1F24" points="169.926,301.655 160.526,317.955 151.026,301.655 142.226,301.655 156.626,326.255 156.626,342.455 
	164.326,342.455 164.326,326.255 178.526,301.655 "/>
<path fill="#AB1F24" d="M259.726,320.855c1.9-1.9,2.9-4.5,2.9-7.7c0-7-4.9-11.5-12.6-11.5h-14.4v40.8h15.2c8.3,0,13.6-4.8,13.6-12.2
	C264.426,326.155,262.826,322.855,259.726,320.855 M249.726,308.955c3.5,0,5.2,1.4,5.2,4.4s-1.4,4.4-4.6,4.4h-7v-8.8H249.726z
	 M243.426,324.955h7c4.1,0,6.3,1.7,6.3,5.1s-2,5.1-6.2,5.1h-7.1L243.426,324.955L243.426,324.955z"/>
<rect x="272.826" y="301.655" fill="#AB1F24" width="7.8" height="40.8"/>
<path fill="#AB1F24" d="M318.726,314.655c0-7.8-5.7-13-14.3-13h-13v40.8h7.7v-14.9h4.9l9.2,14.9h8.9l-10.3-16.5
	C316.226,323.855,318.726,319.855,318.726,314.655 M299.026,309.055h5.1c4.5,0,6.7,1.9,6.7,5.7c0,2.4-0.7,5.5-6.7,5.5h-5.1V309.055z
	"/>
<polygon fill="#AB1F24" points="335.626,301.655 327.826,301.655 327.826,342.455 352.526,342.455 352.526,335.155 335.626,335.155 
	"/>
<path fill="#AB1F24" d="M433.926,327.555h11v5.2c-2.3,1.7-5.3,2.5-9,2.5c-7.7,0-13.3-5.6-13.3-13.4s5.3-13.4,12.7-13.4
	c5.4,0,8,2.1,9.8,4.1l1.4,1.6l5.5-5.2l-1.4-1.5c-3.9-4.3-8.9-6.4-15.3-6.4c-11.6,0-20.7,9.1-20.7,20.8c0,11.9,9.1,20.8,21.2,20.8
	c6.5,0,11.5-1.8,15.9-5.6l0.7-0.6v-16.2h-18.6v7.3"/>
<path fill="#AB1F24" d="M488.726,314.455c0-7.8-5.7-13-14.3-13h-13v40.8h7.7v-14.9h4.9l9.2,14.9h8.9l-10.3-16.5
	C486.226,323.655,488.726,319.555,488.726,314.455 M469.126,308.755h5.1c4.5,0,6.6,1.9,6.6,5.7c0,2.4-0.7,5.5-6.6,5.5h-5.1V308.755z
	"/>
<path fill="#AB1F24" d="M516.326,301.055c-11.7,0-20.8,9.1-20.8,20.8s9.1,20.8,20.8,20.8c11.7,0,20.9-9.1,20.9-20.8
	S528.026,301.055,516.326,301.055 M516.326,335.255c-7.5,0-13-5.6-13-13.4s5.5-13.4,13-13.4c7.5,0,13,5.6,13,13.4
	S523.826,335.255,516.326,335.255"/>
<path fill="#AB1F24" d="M567.326,327.455c0,5.2-2.5,7.8-7.3,7.8s-7.3-2.7-7.3-7.8v-26h-7.7v26.2c0,9.1,5.9,14.9,15,14.9
	s15-5.9,15-14.9v-26.2h-7.7V327.455"/>
<path fill="#AB1F24" d="M598.126,301.455h-12.9v40.8h7.7v-14.6h5.1c8.7,0,14.3-5.1,14.3-13.1
	C612.426,306.655,606.826,301.455,598.126,301.455 M593.026,308.755h4.9c4.5,0,6.6,1.9,6.6,5.8s-2.2,5.7-6.6,5.7h-4.9V308.755z"/>
<path fill="#AB1F24" d="M12.426,342.355h7.6l3.4-8.4h12.8l3.4,8.4h7.7l-17.4-42.2L12.426,342.355z M26.226,327.055l3.6-8.9l3.6,8.9
	H26.226z"/>
<path fill="#AB1F24" d="M175.726,342.455h7.6l3.3-8.4h12.8l3.4,8.4h7.7l-17.4-42.2L175.726,342.455z M189.426,327.255l3.6-8.9
	l3.6,8.9H189.426z"/>
<path fill="#AB1F24" d="M357.426,342.355h7.6l3.4-8.4h12.8l3.4,8.4h7.7l-17.4-42.2L357.426,342.355z M371.126,327.055l3.6-8.9
	l3.6,8.9H371.126z"/>
<polygon fill="#AB1F24" points="520.526,175.255 464.326,201.155 402.626,124.255 471.526,11.955 520.526,11.955 "/>
<polygon fill="#EF7032" points="520.526,271.155 520.526,175.255 464.326,201.155 "/>
<polygon fill="#EF7032" points="402.626,124.255 312.426,11.955 471.526,11.955 "/>
<path fill="#FFD35D" d="M377.826,164.655l24.7-40.3l-90.1-112.3v134.5h0.6C336.826,146.455,359.026,153.155,377.826,164.655"/>
<path fill="#AB1F24" d="M313.026,146.455h-0.6v124.7l65.4-106.5C358.926,153.155,336.826,146.455,313.026,146.455"/>
<path fill="#EF7032" d="M426.226,218.755l38.1-17.6l-61.7-76.9l-24.8,40.4C398.826,177.455,415.726,196.255,426.226,218.755"/>
<path fill="#D31F26" d="M377.826,164.655l-65.4,106.6l113.8-52.5C415.726,196.255,398.826,177.455,377.826,164.655"/>
<path fill="#FFD35D" d="M464.326,201.155l-38.1,17.6c7.4,15.9,11.6,33.7,11.6,52.5h82.7L464.326,201.155"/>
<path fill="#AB1F24" d="M312.426,271.155h125.3c0-18.7-4.1-36.5-11.5-52.5L312.426,271.155"/>
<polygon fill="#AB1F24" points="104.426,175.255 160.626,201.155 222.326,124.255 153.426,11.955 104.426,11.955 "/>
<polygon fill="#EF7032" points="104.426,271.155 104.426,175.255 160.626,201.155 "/>
<polygon fill="#EF7032" points="222.326,124.255 312.426,11.955 153.426,11.955 "/>
<path fill="#D31F26" d="M247.026,164.655l-24.7-40.3l90.1-112.3v134.5h-0.6C288.126,146.455,265.926,153.155,247.026,164.655"/>
<path fill="#EF7032" d="M311.826,146.455h0.6v124.7l-65.3-106.5C265.926,153.155,288.126,146.455,311.826,146.455"/>
<path fill="#EF7032" d="M198.726,218.755l-38.1-17.6l61.7-76.9l24.7,40.3C226.026,177.455,209.126,196.255,198.726,218.755"/>
<path fill="#D31F26" d="M247.026,164.655l65.4,106.6l-113.7-52.5C209.126,196.255,226.026,177.455,247.026,164.655"/>
<path fill="#FFD35D" d="M160.626,201.155l38.1,17.6c-7.4,15.9-11.6,33.7-11.6,52.5h-82.7L160.626,201.155"/>
<path fill="#AB1F24" d="M312.426,271.155h-125.3c0-18.7,4.1-36.5,11.6-52.5L312.426,271.155"/>
</svg>
