<?xml version="1.0" encoding="utf-8"?>
<!-- Generator: Adobe Illustrator 27.1.1, SVG Export Plug-In . SVG Version: 6.00 Build 0)  -->
<svg version="1.1" id="Layer_1" xmlns="http://www.w3.org/2000/svg" xmlns:xlink="http://www.w3.org/1999/xlink" x="0px" y="0px"
	 viewBox="0 0 50 50" style="enable-background:new 0 0 50 50;" xml:space="preserve">
<style type="text/css">
	.st0{fill:#417ABE;}
	.st1{fill:#FFFFFF;}
</style>
<path class="st0" d="M25,0C11.19,0,0,11.19,0,25s11.19,25,25,25s25-11.19,25-25S38.81,0,25,0z M37.66,31.61l-1.19,5.15
	c-0.12,0.54-0.61,0.92-1.16,0.92c-12.69,0-23-10.28-23-23c0-0.55,0.38-1.03,0.92-1.16l5.15-1.19c0.56-0.13,1.13,0.16,1.36,0.69
	l2.38,5.55c0.21,0.49,0.07,1.05-0.34,1.39l-3,2.46c1.82,3.86,4.92,6.96,8.78,8.78l2.46-3c0.33-0.41,0.9-0.55,1.39-0.34l5.55,2.38
	C37.49,30.47,37.79,31.05,37.66,31.61z"/>
<g>
	<circle class="st0" cx="-74.42" cy="25" r="25"/>
	<path class="st1" d="M-62.46,30.24l-5.55-2.38c-0.49-0.21-1.05-0.07-1.39,0.34l-2.46,3c-3.86-1.82-6.96-4.92-8.78-8.78l3-2.46
		c0.41-0.33,0.55-0.9,0.34-1.39l-2.38-5.55c-0.23-0.53-0.8-0.82-1.36-0.69l-5.15,1.19c-0.54,0.12-0.92,0.61-0.92,1.16
		c0,12.71,10.3,23,23,23c0.55,0,1.04-0.38,1.16-0.92l1.19-5.15C-61.64,31.05-61.93,30.47-62.46,30.24L-62.46,30.24z"/>
</g>
</svg>
