<svg width="55" height="55" viewBox="0 0 55 55" fill="none" xmlns="http://www.w3.org/2000/svg">
<g id="Group 48100137">
<path id="Vector" d="M17.7809 28.0666C17.7809 26.0347 19.4326 24.383 21.4646 24.383H26.2177V22.1252H21.4646C18.1849 22.1252 15.5232 24.787 15.5232 28.0666C15.5232 31.3462 18.1849 34.008 21.4646 34.008H26.2177V31.7503H21.4646C19.4326 31.7503 17.7809 30.0986 17.7809 28.0666ZM22.6528 29.2549H32.159V26.8783H22.6528V29.2549ZM33.3473 22.1252H28.5942V24.383H33.3473C35.3792 24.383 37.0309 26.0347 37.0309 28.0666C37.0309 30.0986 35.3792 31.7503 33.3473 31.7503H28.5942V34.008H33.3473C36.6269 34.008 39.2887 31.3462 39.2887 28.0666C39.2887 24.787 36.6269 22.1252 33.3473 22.1252Z" fill="#1A325D"/>
<path id="BG" fill-rule="evenodd" clip-rule="evenodd" d="M1 27.4061C1 12.8224 12.8224 1 27.4061 1C41.9897 1 53.8121 12.8224 53.8121 27.4061C53.8121 41.9897 41.9897 53.8121 27.4061 53.8121C12.8224 53.8121 1 41.9897 1 27.4061Z" stroke="#1A325D" stroke-width="1.3203"/>
</g>
</svg>
