<svg width="62" height="62" viewBox="0 0 62 62" fill="none" xmlns="http://www.w3.org/2000/svg">
<g id="Group 48099586">
<path id="BG" fill-rule="evenodd" clip-rule="evenodd" d="M1 31C1 14.4315 14.4315 1 31 1C47.5685 1 61 14.4315 61 31C61 47.5685 47.5685 61 31 61C14.4315 61 1 47.5685 1 31Z" stroke="#1A325D" stroke-width="1.5"/>
<path id="Vector" d="M26.4188 22.7285V26.4459H23.5V30.9912H26.4188V44.5H32.4101V30.9926H36.4319C36.4319 30.9926 36.8087 28.8132 36.9913 26.4297H32.4348V23.321C32.4348 22.857 33.087 22.232 33.7333 22.232H37V17.5H32.5594C26.2696 17.5 26.4188 22.0494 26.4188 22.7285Z" fill="#1A325D"/>
</g>
</svg>
