<svg width="62" height="62" viewBox="0 0 62 62" fill="none" xmlns="http://www.w3.org/2000/svg">
<g id="Group 48099587">
<path id="BG" fill-rule="evenodd" clip-rule="evenodd" d="M1 31C1 14.4315 14.4315 1 31 1C47.5685 1 61 14.4315 61 31C61 47.5685 47.5685 61 31 61C14.4315 61 1 47.5685 1 31Z" stroke="#1A325D" stroke-width="1.5"/>
<g id="Path">
<path d="M25.4768 22.3722C25.4438 20.8837 24.3714 19.75 22.6299 19.75C20.8885 19.75 19.75 20.8837 19.75 22.3722C19.75 23.8299 20.8548 24.9963 22.5639 24.9963H22.5964C24.3714 24.9963 25.4768 23.8299 25.4768 22.3722Z" fill="#1A325D"/>
<path d="M25.1416 27.0685H20.051V42.2496H25.1416V27.0685Z" fill="#1A325D"/>
<path d="M37.6389 26.7119C40.9887 26.7119 43.5 28.8822 43.5 33.5452L43.4998 42.2496H38.4095V34.1277C38.4095 32.0876 37.6728 30.6955 35.83 30.6955C34.4237 30.6955 33.586 31.634 33.2181 32.5404C33.0835 32.8653 33.0504 33.3179 33.0504 33.7716V42.25H27.9593C27.9593 42.25 28.0264 28.4933 27.9593 27.0688H33.0504V29.2191C33.7261 28.1854 34.9361 26.7119 37.6389 26.7119Z" fill="#1A325D"/>
</g>
</g>
</svg>
