<svg xmlns="http://www.w3.org/2000/svg" width="30" height="28" viewBox="0 0 30 28" fill="none">
<path d="M21.4408 17.6101H20.0858L19.6055 17.1778C21.3446 15.2952 22.3003 12.8917 22.2985 10.4059C22.2985 8.34785 21.6446 6.33597 20.4195 4.62472C19.1944 2.91347 17.4531 1.57971 15.4159 0.79211C13.3786 0.0045087 11.1369 -0.201564 8.97412 0.199952C6.81139 0.601468 4.82478 1.59254 3.26554 3.04783C1.70629 4.50313 0.64443 6.35729 0.214234 8.37585C-0.215961 10.3944 0.00483079 12.4867 0.848689 14.3881C1.69255 16.2896 3.12157 17.9148 4.95505 19.0582C6.78853 20.2016 8.94412 20.8119 11.1492 20.8119C13.9108 20.8119 16.4494 19.8674 18.4048 18.2985L18.8679 18.7467V20.0114L27.4443 28L30 25.6146L21.4408 17.6101ZM11.1492 17.6101C6.87822 17.6101 3.43054 14.3922 3.43054 10.4059C3.43054 6.41967 6.87822 3.20183 11.1492 3.20183C15.4202 3.20183 18.8679 6.41967 18.8679 10.4059C18.8679 14.3922 15.4202 17.6101 11.1492 17.6101Z" fill="#1A325D"/>
</svg>