<svg width="62" height="62" viewBox="0 0 62 62" fill="none" xmlns="http://www.w3.org/2000/svg">
<g id="Group 48100139">
<path id="BG" fill-rule="evenodd" clip-rule="evenodd" d="M1 31C1 14.4315 14.4315 1 31 1C47.5685 1 61 14.4315 61 31C61 47.5685 47.5685 61 31 61C14.4315 61 1 47.5685 1 31Z" stroke="#1A325D" stroke-width="1.5"/>
<g id="Group 48100138">
<path id="Subtract" fill-rule="evenodd" clip-rule="evenodd" d="M19 30.9947C19.0024 24.3809 24.3852 19 31.0041 19C32.5805 18.9963 34.142 19.3053 35.5982 19.9091C37.0544 20.5129 38.3763 21.3996 39.4875 22.5178C40.6049 23.6299 41.4906 24.9526 42.0933 26.4093C42.696 27.866 43.0038 29.4279 42.9988 31.0043C42.9963 37.6186 37.6135 43 30.9996 43H30.9951C28.8414 42.9988 26.7296 42.4208 24.8877 41.3277L24.4491 41.0679L19.9075 42.2587L21.1199 37.8325L20.8344 37.3786C19.6327 35.4664 18.9968 33.2532 19 30.9947ZM26.58 24.3372C26.8369 24.3476 27.1214 24.3597 27.3918 24.9604C27.5759 25.3702 27.8856 26.1332 28.1329 26.7427C28.3161 27.1943 28.4651 27.5616 28.5035 27.6383C28.5938 27.8186 28.6536 28.0298 28.5336 28.2701C28.5151 28.3071 28.4981 28.3419 28.4818 28.3751C28.3923 28.5582 28.3262 28.6934 28.1733 28.8715C28.1122 28.9427 28.049 29.0195 27.9859 29.0962C27.8624 29.2464 27.7391 29.3963 27.6319 29.5033C27.451 29.6831 27.2627 29.8785 27.4734 30.2394C27.6841 30.6002 28.408 31.781 29.4803 32.7372C30.6345 33.7663 31.6367 34.2008 32.1441 34.4208C32.2426 34.4635 32.3225 34.4981 32.3812 34.5275C32.7422 34.7078 32.9523 34.6776 33.1629 34.4368C33.3734 34.196 34.0639 33.3839 34.3047 33.0229C34.5454 32.6618 34.7858 32.7217 35.1164 32.8422C35.447 32.9626 37.2202 33.8352 37.5813 34.0157C37.6523 34.0512 37.7186 34.0832 37.7801 34.1129C38.0311 34.2339 38.2006 34.3156 38.2729 34.4368C38.363 34.5877 38.3628 35.3094 38.0624 36.1517C37.762 36.9941 36.2894 37.8066 35.6277 37.8667C35.5641 37.8724 35.5007 37.8799 35.4356 37.8875C34.8242 37.9594 34.0527 38.05 31.299 36.9641C27.9073 35.6266 25.6718 32.3106 25.2131 31.6301C25.1759 31.575 25.1504 31.5371 25.1369 31.5191L25.1326 31.5134C24.9372 31.2522 23.6641 29.5498 23.6641 27.7884C23.6641 26.128 24.48 25.2573 24.8557 24.8563C24.8816 24.8287 24.9054 24.8033 24.9267 24.78C25.2571 24.419 25.648 24.3287 25.8886 24.3287L26.58 24.3372Z" fill="#1A325D"/>
</g>
</g>
</svg>
