<svg width="62" height="62" viewBox="0 0 62 62" fill="none" xmlns="http://www.w3.org/2000/svg">
<g id="Group 48099584">
<path id="BG" fill-rule="evenodd" clip-rule="evenodd" d="M1 31C1 14.4315 14.4315 1 31 1C47.5685 1 61 14.4315 61 31C61 47.5685 47.5685 61 31 61C14.4315 61 1 47.5685 1 31Z" stroke="#1A325D" stroke-width="1.5"/>
<path id="Path" fill-rule="evenodd" clip-rule="evenodd" d="M30.595 26.6567L30.6546 27.5759L29.6611 27.4633C26.0447 27.0319 22.8853 25.5688 20.2029 23.1116L18.8914 21.8923L18.5536 22.7927C17.8383 24.7997 18.2953 26.9193 19.7856 28.3449C20.5804 29.1327 20.4016 29.2453 19.0305 28.7763C18.5536 28.6263 18.1363 28.5137 18.0966 28.57C17.9575 28.7013 18.4344 30.4083 18.8119 31.0835C19.3286 32.0214 20.3817 32.9405 21.5342 33.4845L22.5078 33.9159L21.3553 33.9347C20.2426 33.9347 20.2029 33.9534 20.3221 34.3474C20.7195 35.5666 22.2892 36.8609 24.0378 37.4236L25.2698 37.8175L24.1968 38.4178C22.6072 39.2806 20.7394 39.7683 18.8715 39.8058C17.9774 39.8246 17.2422 39.8996 17.2422 39.9559C17.2422 40.1435 19.6664 41.1939 21.0771 41.6065C25.3095 42.8258 30.3367 42.3006 34.112 40.2185C36.7945 38.7366 39.477 35.7917 40.7288 32.9405C41.4044 31.4212 42.08 28.645 42.08 27.3133C42.08 26.4504 42.1396 26.3379 43.2524 25.3062C43.9081 24.7059 44.5241 24.0494 44.6433 23.8619C44.842 23.5055 44.8221 23.5055 43.8087 23.8243C42.1198 24.3871 41.8813 24.312 42.7159 23.4679C43.3318 22.8677 44.067 21.7798 44.067 21.4609C44.067 21.4046 43.769 21.4984 43.4312 21.6672C43.0735 21.8548 42.2787 22.1362 41.6826 22.305L40.6096 22.6239L39.636 22.0049C39.0995 21.6672 38.3444 21.2921 37.947 21.1795C36.9336 20.9169 35.3837 20.9544 34.4697 21.2546C31.9859 22.0986 30.4162 24.2745 30.595 26.6567Z" fill="#1A325D"/>
</g>
</svg>
