<?xml version="1.0" encoding="utf-8"?>
<!-- Generator: Adobe Illustrator 27.1.1, SVG Export Plug-In . SVG Version: 6.00 Build 0)  -->
<svg version="1.1" id="Layer_1" xmlns="http://www.w3.org/2000/svg" xmlns:xlink="http://www.w3.org/1999/xlink" x="0px" y="0px"
	 viewBox="827.894 205.615 920.672 263.356" enable-background="new 827.894 205.615 920.672 263.356" xml:space="preserve">
<linearGradient id="SVGID_1_" gradientUnits="userSpaceOnUse" x1="1619.0729" y1="374.9228" x2="1619.0729" y2="568.1648" gradientTransform="matrix(1 0 0 1 -8.2197 -110.4912)">
	<stop  offset="0" style="stop-color:#F7E830"/>
	<stop  offset="1" style="stop-color:#FDCB06"/>
</linearGradient>
<path fill="url(#SVGID_1_)" stroke="#FCD109" stroke-width="0.0938" d="M1727.979,265.418c-0.098-0.329-0.198-0.657-0.328-0.986
	c-77.887,0.033-155.74,0-233.595,0.033c-0.196,0.23-0.328,0.46-0.361,0.756c0,60.396,0,120.759-0.034,181.155
	c0.493,3.222,2.27,6.147,4.637,8.35c0.099,0.033,0.329,0.064,0.428,0.098c1.217,1.282,2.958,1.908,4.603,2.499
	c1.217-0.065,2.4,0.461,3.617,0.329c32.219,0,64.439,0,96.659,0c0.92-0.032,1.873,0.132,2.761-0.229
	c0.033-0.131,0.066-0.362,0.099-0.494c0.033-0.164,0.065-0.525,0.099-0.722c2.071-11.573,4.076-23.18,6.279-34.752
	c0.066-0.493,0.131-0.986,0.197-1.479c-8.941-0.034-17.918,0-26.86-0.034c-2.17-0.065-4.405,0-6.575-0.264
	c-3.715-0.164-7.463-0.032-11.178-0.394c-4.604,0-9.174-0.428-13.775-0.428c-3.617-0.362-7.267-0.231-10.916-0.396
	c-2.366-0.294-4.8-0.164-7.2-0.264c-3.912-0.426-7.891-0.13-11.803-0.558c-4.143,0.033-8.285-0.328-12.427-0.428
	c0.032-0.032,0.064-0.164,0.064-0.196c1.381,0.032,2.729-0.066,4.11-0.1c3.057-0.395,6.148-0.132,9.206-0.56
	c3.189,0,6.345-0.426,9.534-0.426c2.827-0.396,5.688-0.164,8.515-0.56c3.32,0,6.575-0.428,9.896-0.46
	c2.729-0.362,5.49-0.164,8.22-0.527c3.188,0.033,6.345-0.46,9.534-0.426c3.124-0.362,6.312-0.265,9.435-0.594
	c-0.296-1.215-0.526-2.432-0.789-3.649c-0.229-0.755-1.15-0.591-1.742-0.689c-7.135-1.021-14.236-2.038-21.338-3.024
	c0.461-0.363,1.086-0.199,1.611-0.264c5.524-0.428,11.015-0.921,16.537-1.315c1.25-0.065,2.467-0.296,3.716-0.329
	c-0.56-1.709-0.889-3.582-1.645-5.161c-11.802-1.808-23.605-3.419-35.376-5.359c3.059-0.493,6.149-0.723,9.205-1.052l0.264-0.099
	c9.765-1.021,19.562-2.171,29.327-3.124c12.395-0.064,24.757-0.033,37.151,0c0.394-0.064,1.085,0.131,1.15-0.428
	c1.019-5.326,2.006-10.651,3.024-15.978c1.414-7.397,3.649-14.696,7.102-21.436c5.425-10.85,14.006-20.055,24.46-26.17
	c9.764-5.72,21.075-8.482,32.319-9.008c3.649-0.329,7.331-0.23,10.948,0.229c2.367,0.559,4.8,1.217,6.674,2.828
	c1.545,1.249,2.466,3.09,3.156,4.932c1.513,4.373,2.367,8.91,3.091,13.48c0.032,1.841,0.36,3.912-0.625,5.589
	c-0.92,1.644-2.761,2.433-4.504,2.926c-6.346,1.644-12.986,0.099-19.332,1.644c-5.228,1.118-10.093,4.011-13.414,8.186
	c-3.912,4.865-5.984,10.914-7.135,16.964c-0.887,5.393-2.005,10.784-2.892,16.21c6.246,0.033,12.527-0.034,18.806,0.033
	c2.498,0,5.064,1.379,6.083,3.746c1.313,3.025,1.018,6.445,0.591,9.634c-0.526,3.584-1.381,7.135-2.991,10.422
	c-1.35,2.795-3.585,5.359-6.642,6.345c-1.578,0.626-3.288,0.494-4.965,0.494c-5.523,0-11.047,0.065-16.57,0
	c-0.887,4.045-1.479,8.186-2.269,12.296c-1.446,7.989-2.86,16.012-4.307,24.034c-0.033,0.263-0.065,0.821-0.065,1.118
	c2.597,0.131,5.194,0,7.791,0.065c19.267,0,38.566-0.033,57.865,0c2.07,0.066,4.175-0.427,5.983-1.446
	c1.085-0.395,1.742-1.348,2.696-1.874c0.921-0.525,1.184-1.61,1.973-2.302c0.854-1.512,1.742-3.089,1.809-4.866
	c0.098,0,0.361-0.032,0.493-0.064C1727.945,386.407,1728.045,325.913,1727.979,265.418z"/>
<path fill="#F8F3B5" stroke="#F8F3B5" stroke-width="0.0938" d="M1524.336,225.636c2.795-0.888,5.721-0.296,8.582-0.493
	c53.688,0.033,107.378,0,161.065,0c3.19-0.131,5.984,1.677,8.943,2.597c2.368,0.954,4.833,1.71,7.201,2.729
	c0.493,0.197,0.854,0.625,1.215,0.986c-0.032,4.34,0,8.712,0,13.085c0.034,1.15-0.164,2.335,0.231,3.452
	c0.691,0.098,1.052,0.625,1.513,1.052c2.171,0.986,4.011,2.598,5.983,3.913c2.959,2.104,6.116,3.945,9.008,6.115
	c0.132,0.855,0.033,1.743-0.229,2.532c-0.296,0.92-0.099,1.907-0.197,2.827c-77.888,0.033-155.74,0-233.595,0.033
	c-0.164-1.085,0.132-2.17-0.328-3.189c-0.066-0.854-0.362-1.973,0.46-2.564c3.288-2.301,6.773-4.373,9.994-6.806
	c2.007-1.282,3.945-2.597,5.885-3.912c0.395-0.657,0.263-1.479,0.263-2.203c0-4.767,0-9.534,0.033-14.301
	c1.118-1.447,3.058-1.611,4.603-2.335C1518.089,227.971,1521.246,226.82,1524.336,225.636 M1524.533,226.195
	c-4.208,1.611-8.449,3.156-12.658,4.767c-0.559,0.099-0.855,0.592-1.15,1.02c0.033,0.263,0.065,0.723,0.065,0.986
	c-0.033,3.945,0,7.89-0.033,11.836c0.033,0.986-0.099,1.973,0.263,2.86c-0.428,0.427-0.887,0.855-1.413,1.184
	c-4.768,3.09-9.371,6.444-14.138,9.502c-0.822,0.493-1.742,1.151-1.479,2.235c-0.164,0.592,0.132,1.086,0.756,0.921
	c10.324-0.066,20.614,0.065,30.939-0.099c15.354,0,30.675,0.032,46.028,0l0.231-0.099c0.69,0.164,1.381,0.099,2.104,0.099
	c27.813,0,55.628,0.032,83.476,0c8.746,0.032,17.523,0,26.302,0c14.466,0,28.966,0.131,43.432,0.065
	c0.427-0.099,0.559-0.395,0.394-0.92c-0.033-0.526,0.164-1.249-0.394-1.578c-2.301-1.085-4.273-2.762-6.478-4.077
	c-0.788-0.657-1.808-1.019-2.399-1.907c-2.269-1.282-4.372-2.86-6.608-4.274c-0.428-0.263-0.757-0.69-1.117-1.052
	c0.196-0.69,0.263-1.446,0.263-2.17c-0.033-4.175,0-8.351-0.033-12.526c0.099-0.658,0.064-1.414-0.527-1.841
	c-3.945-1.414-7.856-2.926-11.77-4.373c-1.216-0.591-2.565-0.92-3.879-1.118c-56.024,0-112.014,0-168.037,0
	C1525.947,225.669,1525.256,226.031,1524.533,226.195z"/>
<path fill="#F7B402" stroke="#F7B402" stroke-width="0.0938" d="M1510.79,232.968c2.894,1.216,5.983,1.907,8.91,3.09
	c1.578,0.625,2.071,2.334,2.762,3.715c-0.69,0.69-1.513,1.249-2.335,1.775c-3.025,2.039-6.115,4.011-9.107,6.115
	c-0.361-0.888-0.229-1.874-0.263-2.86C1510.79,240.858,1510.758,236.913,1510.79,232.968z"/>
<path fill="#F7B402" stroke="#F7B402" stroke-width="0.0938" d="M1701.972,236.059c2.927-1.151,5.984-1.94,8.911-3.09
	c0.033,4.175,0,8.351,0.033,12.526c0,0.724-0.067,1.48-0.264,2.17c-2.564-1.775-5.162-3.452-7.727-5.195
	c-1.249-0.92-2.63-1.611-3.748-2.728C1699.868,238.36,1700.395,236.684,1701.972,236.059z"/>
<path fill="#BDA727" stroke="#BDA727" stroke-width="0.0938" d="M1560.962,237.406c3.616-0.854,7.659,2.368,7.364,6.149
	c0.032,3.715-3.881,6.74-7.464,5.885c-1.446-0.493-2.828-1.249-3.715-2.531c-1.151-1.743-1.414-4.077-0.493-5.984
	C1557.313,239.083,1559.087,237.834,1560.962,237.406z"/>
<path fill="#BDA727" stroke="#BDA727" stroke-width="0.0938" d="M1654.761,239.478c1.513-1.676,3.913-2.63,6.148-2.038
	c1.677,0.493,3.32,1.578,4.043,3.222c1.447,2.828,0.33,6.642-2.498,8.121c-2.5,1.381-5.655,0.723-7.561-1.282
	C1652.953,245.297,1652.82,241.681,1654.761,239.478z"/>
<path fill="#F7E62D" stroke="#F7E62D" stroke-width="0.0938" d="M1520.128,241.549c0.822-0.526,1.644-1.085,2.334-1.775l0.229,0.23
	c0.232,1.71,0.066,3.452,0.132,5.162c-0.099,5.129,0.1,10.29-0.132,15.419c-9.566,0-19.133-0.066-28.701,0
	c-0.263-1.084,0.657-1.742,1.479-2.235c4.768-3.058,9.371-6.411,14.138-9.502c0.526-0.329,0.986-0.757,1.414-1.184
	C1514.012,245.56,1517.103,243.587,1520.128,241.549z"/>
<path fill="#F7E62D" stroke="#F7E62D" stroke-width="0.0938" d="M1698.849,240.892c0-0.427,0.1-0.789,0.328-1.151
	c1.118,1.118,2.5,1.808,3.749,2.728c2.564,1.743,5.162,3.42,7.727,5.195c0.361,0.362,0.689,0.789,1.117,1.052
	c2.236,1.414,4.339,2.992,6.608,4.274c0.592,0.888,1.611,1.25,2.399,1.907c2.204,1.315,4.177,2.992,6.478,4.077
	c0.559,0.329,0.361,1.052,0.394,1.578c-9.568,0.033-19.102-0.033-28.669,0.033c-0.164-1.315-0.066-2.63-0.1-3.912
	C1698.883,251.412,1698.817,246.152,1698.849,240.892z"/>
<radialGradient id="SVGID_00000179607114289654383690000013206677087403433390_" cx="1618.0652" cy="463.0615" r="157.1815" gradientTransform="matrix(1 0 0 1 -8.2197 -110.4912)" gradientUnits="userSpaceOnUse">
	<stop  offset="0.5962" style="stop-color:#F29405"/>
	<stop  offset="0.7362" style="stop-color:#F7D01E"/>
	<stop  offset="1" style="stop-color:#FDCB06"/>
</radialGradient>
<path fill="url(#SVGID_00000179607114289654383690000013206677087403433390_)" stroke="#FCD109" stroke-width="0.0938" d="
	M1727.651,260.552c-9.568,0.033-19.103-0.033-28.669,0.033c-0.165-1.315-0.066-2.63-0.099-3.912c0-5.261-0.066-10.521-0.034-15.781
	c0-0.427,0.1-0.789,0.328-1.151c0.691-1.381,1.217-3.057,2.795-3.682c2.927-1.151,5.984-1.94,8.911-3.09
	c0.098-0.658,0.066-1.414-0.526-1.841c-3.945-1.414-7.858-2.926-11.771-4.373c-1.216-0.591-2.563-0.92-3.879-1.118
	c-56.024,0-112.014,0-168.036,0c-0.725,0.033-1.414,0.395-2.138,0.559c-4.208,1.611-8.449,3.156-12.657,4.767
	c-0.56,0.099-0.856,0.592-1.151,1.02c0.033,0.263,0.065,0.723,0.065,0.986c2.893,1.216,5.983,1.907,8.91,3.09
	c1.578,0.625,2.072,2.334,2.762,3.715l0.229,0.23c0.23,1.71,0.066,3.452,0.132,5.162c-0.098,5.129,0.099,10.29-0.132,15.419
	c-9.567,0-19.134-0.066-28.701,0c-0.165,0.592,0.131,1.086,0.755,0.921c10.324-0.066,20.614,0.065,30.939-0.099
	c15.353,0,30.674,0.032,46.027,0l0.23-0.099c0.691,0.164,1.38,0.099,2.104,0.099c27.815,0,55.629,0.032,83.476,0
	c8.746,0.032,17.524,0,26.302,0c14.467,0,28.966,0.131,43.432,0.065C1727.683,261.374,1727.815,261.078,1727.651,260.552z
	 M1556.655,240.924c0.658-1.841,2.432-3.09,4.307-3.518c3.616-0.854,7.659,2.368,7.364,6.149c0.032,3.715-3.881,6.74-7.464,5.885
	c-1.446-0.493-2.828-1.249-3.715-2.531C1555.996,245.166,1555.734,242.831,1556.655,240.924z M1654.761,239.478
	c1.513-1.676,3.913-2.63,6.148-2.038c1.677,0.493,3.32,1.578,4.043,3.222c1.447,2.828,0.33,6.642-2.498,8.121
	c-2.5,1.381-5.655,0.723-7.561-1.282C1652.953,245.297,1652.82,241.681,1654.761,239.478z"/>
<linearGradient id="SVGID_00000017513328078562479340000004888997959546145414_" gradientUnits="userSpaceOnUse" x1="1672.8438" y1="381.8973" x2="1672.8987" y2="391.0479" gradientTransform="matrix(1 0 0 1 -8.2197 -110.4912)">
	<stop  offset="0" style="stop-color:#FADA1C"/>
	<stop  offset="1" style="stop-color:#FDCB06"/>
</linearGradient>
<path fill="url(#SVGID_00000017513328078562479340000004888997959546145414_)" stroke="#FCD109" stroke-width="0.0938" d="
	M1663.141,275.001c0.46,0.099-2.396-2.744-1.837-2.875c0.525,0.066,2.521-1.482,4.931-0.219c2.411,1.263,1.813,4.219,1.54,5.315
	c-0.325,1.304-1.155,2.137-1.813,2.794c-0.362,0.296-1.173,0.756-1.666,0.723c0.296-1.611-0.657-1.874-0.723-3.518L1663.141,275.001
	z"/>
<linearGradient id="SVGID_00000123437375910566844950000009838063684969943735_" gradientUnits="userSpaceOnUse" x1="3080.3826" y1="381.4587" x2="3080.4375" y2="390.6094" gradientTransform="matrix(-1 0 0 1 4637.3716 -110.4912)">
	<stop  offset="0" style="stop-color:#FADA1C"/>
	<stop  offset="1" style="stop-color:#FDCB06"/>
</linearGradient>
<path fill="url(#SVGID_00000123437375910566844950000009838063684969943735_)" stroke="#FCD109" stroke-width="0.0938" d="
	M1558.041,276.783c-0.066,1.644-1.019,1.907-0.724,3.518c-0.493,0.033-1.305-0.427-1.666-0.724c-0.657-0.657-1.487-1.49-1.813-2.794
	c-0.273-1.096-0.871-4.052,1.539-5.316c2.412-1.263,4.406,0.285,4.933,0.22c0.559,0.131-2.297,2.974-1.838,2.875L1558.041,276.783z"
	/>
<path fill="#BDA727" stroke="#BDA727" stroke-width="0.0938" d="M1658.836,296.062c0.495-0.429,0.824-0.429,1.48-0.429
	c-3.945,8.548-8.548,17.096-15.468,23.751c-0.734,0.656-1.512,1.266-2.342,1.833c-0.792,0.58-1.567,1.124-2.34,1.678
	c-0.756,0.525-1.508,1.053-2.239,1.604c-1.875,1.018-3.519,2.433-5.59,3.058c-3.781,1.808-7.857,3.024-11.967,3.879
	c-1.611,0.263-3.255,0.657-4.898,0.69c-2.039,0.592-4.208,0.165-6.28,0.296c-1.15,0.197-2.17-0.46-3.287-0.329
	c-0.971-0.137-1.938-0.301-2.899-0.493c-0.972-0.199-1.938-0.427-2.906-0.69c-15.072-4.702-29.866-16.209-34.177-31.771
	c-0.191-1.034-0.293-2.092-0.293-3.178c0.46,0.921,0.938,1.835,1.431,2.74c6.132,13.37,18.295,23.891,32.667,27.063
	c1.167,0.532,2.43,0.346,3.548,0.806c1.019,0,2.005-0.033,2.991,0.296c3.386,0.065,6.773,0.033,10.16,0.033
	c0.458,0.033,0.886-0.197,1.347-0.296c5.645-0.191,11.174-1.73,16.322-4.065c1.031-0.467,2.046-0.966,3.043-1.492
	c0.883-0.465,1.733-0.963,2.554-1.492c0.821-0.529,1.61-1.087,2.372-1.676c6.088-4.821,11.349-11.068,14.92-18.251
	C1657.664,298.335,1658.287,297.138,1658.836,296.062z"/>
<path fill="#0D69B3" stroke="#0D69B3" stroke-width="0.0938" d="M1653.479,325.288c9.764-5.721,21.075-8.483,32.319-9.008
	c3.648-0.329,7.331-0.23,10.948,0.23c2.366,0.559,4.799,1.216,6.673,2.827c-0.953,0.066-1.874-0.361-2.827-0.493
	c-2.696-0.526-5.49-0.329-8.219-0.394c-7.925,0-15.914,0.624-23.573,2.794c-4.012,1.217-8.022,2.63-11.672,4.735
	c-6.312,3.485-12.001,8.088-16.604,13.611c-8.219,9.436-13.052,21.403-15.386,33.602c-1.118,6.541-2.401,13.051-3.42,19.626
	c-1.644,0.164-3.32,0.066-4.964,0.066c-7.233-0.032-14.467-0.066-21.7-0.131c-1.545,0.064-3.058-0.296-4.602-0.198
	c-13.151,0.065-26.303-0.033-39.453-0.033l0.263-0.098c9.765-1.021,19.562-2.172,29.326-3.125c12.395-0.064,24.758-0.033,37.151,0
	c0.394-0.064,1.086,0.131,1.151-0.428c1.02-5.324,2.006-10.65,3.023-15.978c1.415-7.396,3.651-14.696,7.103-21.435
	C1634.443,340.608,1643.024,331.403,1653.479,325.288z"/>
<path fill="#107BD4" stroke="#107BD4" stroke-width="0.0938" d="M1668.8,321.244c7.659-2.169,15.649-2.794,23.573-2.794
	c2.729,0.065,5.522-0.132,8.219,0.394c0.953,0.132,1.874,0.559,2.827,0.493c1.546,1.25,2.467,3.09,3.156,4.932
	c1.514,4.373,2.368,8.91,3.091,13.48c0.033,1.841,0.361,3.912-0.625,5.589c-0.92,1.644-2.76,2.433-4.504,2.926
	c-6.346,1.644-12.986,0.098-19.331,1.644c-5.228,1.118-10.094,4.011-13.415,8.186c-3.912,4.865-5.983,10.914-7.135,16.965
	c-0.887,5.392-2.005,10.783-2.893,16.209c-0.395,1.216-0.625,2.531-0.854,3.814c6.213,0.099,12.428,0,18.642,0.065
	c2.366-0.065,4.732,0.065,7.101-0.1c1.315,3.024,1.019,6.445,0.592,9.634c-0.525,3.583-1.381,7.134-2.991,10.422
	c-1.35,2.794-3.584,5.358-6.641,6.346c-1.579,0.625-3.289,0.493-4.966,0.493c-5.523,0-11.047,0.064-16.57,0
	c-0.887,4.044-1.479,8.187-2.269,12.296c-1.445,7.988-2.859,16.011-4.307,24.033c-0.032,0.264-0.065,0.821-0.065,1.118v0.033
	c-14.367,0-28.702,0.033-43.069,0c0.032-0.131,0.066-0.362,0.099-0.494c0.033-0.164,0.065-0.525,0.099-0.722
	c0.033,0.264,0.066,0.756,0.1,0.985c0.887,0.1,2.498,0.559,2.729-0.722c2.235-12.1,4.307-24.265,6.608-36.364
	c-0.888-0.197-1.808-0.197-2.729-0.032c-0.13,0.46-0.263,0.92-0.427,1.38c0.065-0.493,0.131-0.986,0.197-1.479
	c-8.941-0.034-17.918,0-26.86-0.034c-2.17-0.064-4.405,0-6.576-0.262c-3.714-0.164-7.463-0.032-11.178-0.396
	c-4.603,0-9.173-0.427-13.775-0.427c-3.616-0.361-7.266-0.23-10.916-0.395c-2.366-0.296-4.8-0.165-7.199-0.264
	c-3.912-0.428-7.891-0.13-11.803-0.559c-4.142,0.034-8.286-0.329-12.428-0.427c0.032-0.033,0.065-0.165,0.065-0.197
	c1.382,0.032,2.73-0.065,4.109-0.099c3.057-0.395,6.148-0.132,9.206-0.56c3.189,0,6.346-0.428,9.535-0.428
	c2.827-0.394,5.688-0.164,8.514-0.558c3.321,0,6.576-0.428,9.897-0.461c2.729-0.361,5.49-0.164,8.22-0.526
	c3.188,0.033,6.345-0.46,9.534-0.428c3.123-0.362,6.312-0.263,9.434-0.592c-0.295-1.217-0.525-2.432-0.788-3.649
	c-0.23-0.756-1.15-0.592-1.742-0.69c-7.135-1.021-14.236-2.038-21.338-3.024c0.461-0.363,1.085-0.198,1.61-0.263
	c5.524-0.429,11.016-0.922,16.538-1.315c1.249-0.065,2.466-0.297,3.715-0.329c-0.559-1.709-0.888-3.584-1.644-5.162
	c-11.803-1.809-23.606-3.419-35.376-5.358c3.057-0.493,6.147-0.724,9.205-1.052c13.151,0,26.303,0.099,39.453,0.032
	c1.545-0.099,3.058,0.264,4.603,0.198c7.234,0.065,14.467,0.099,21.7,0.131c1.644,0,3.32,0.099,4.964-0.065
	c1.019-6.576,2.301-13.085,3.419-19.628c2.335-12.198,7.167-24.165,15.387-33.601c4.604-5.523,10.291-10.126,16.604-13.612
	C1660.778,323.874,1664.788,322.46,1668.8,321.244z"/>
<path fill="#0D69B3" stroke="#0D69B3" stroke-width="0.0938" d="M1661.764,389.268c6.247,0.033,12.527-0.033,18.806,0.033
	c2.499,0,5.063,1.381,6.082,3.747c-2.366,0.165-4.734,0.034-7.101,0.1c-6.214-0.065-12.429,0.033-18.642-0.065
	C1661.139,391.799,1661.368,390.483,1661.764,389.268z"/>
<path fill="#0D69B3" stroke="#0D69B3" stroke-width="0.0938" d="M1613.27,420.074c0.921-0.165,1.842-0.165,2.729,0.032
	c-2.302,12.1-4.372,24.265-6.608,36.364c-0.229,1.28-1.841,0.821-2.729,0.722c-0.034-0.229-0.066-0.722-0.099-0.985
	c2.071-11.573,4.076-23.18,6.279-34.752C1613.006,420.994,1613.138,420.534,1613.27,420.074z"/>
<path fill="#FFFFFF" stroke="#FFFFFF" stroke-width="0.0938" d="M1664.64,275.921c-0.264-0.493-0.296-1.085-0.296-1.644
	l-0.264,0.033c-0.395-1.446-1.61-2.828-3.19-2.893c-1.183-0.099-2.663-0.066-3.352,1.052c-1.314,1.775-0.691,4.044-0.757,6.049
	c0,0.132,0.034,0.362,0.034,0.493c0,1.348-0.165,2.663-0.396,3.978c-0.196,0.395-0.296,0.822-0.296,1.282
	c-0.558,3.09-1.677,6.148-3.188,8.943c-0.296,0.395-0.526,0.821-0.624,1.282c-0.986,1.709-2.171,3.288-3.387,4.865
	c-0.198,0.165-0.362,0.362-0.526,0.559c-0.854,1.052-1.775,1.94-2.729,2.861c-0.229,0.131-0.394,0.295-0.592,0.427
	c-1.117,1.084-2.366,2.104-3.715,2.926c-0.164,0.099-0.328,0.23-0.527,0.361c-8.416,5.556-18.64,7.858-28.603,7.957
	c-8.449,0.263-16.965-1.545-24.592-5.195c-0.132-0.066-0.46-0.197-0.593-0.263c-1.282-0.69-2.597-1.283-3.78-2.137
	c-0.264-0.132-0.526-0.296-0.822-0.427c-1.217-0.724-2.367-1.513-3.452-2.433c-0.362-0.329-0.756-0.592-1.15-0.888
	c-1.185-0.954-2.4-1.973-3.419-3.124c-0.263-0.295-0.526-0.559-0.789-0.822c-3.582-3.715-6.377-8.252-7.857-13.184
	c-1.414-3.912-1.216-8.186-1.38-12.296c-1.186-1.808-3.683-2.828-5.656-1.71c-0.821,0.592-0.92,1.677-1.545,2.433
	c-1.019,10.85,3.617,21.667,11.015,29.491c0,0.263,0.132,0.428,0.362,0.526c1.315,1.217,2.597,2.466,3.911,3.649
	c0.23,0.23,0.494,0.46,0.79,0.658c1.315,1.085,2.729,2.071,4.109,3.09c0.263,0.197,0.525,0.362,0.821,0.526
	c1.809,1.052,3.518,2.302,5.458,3.025c0.132,0.099,0.361,0.263,0.493,0.329c6.247,2.992,12.987,5.031,19.891,5.688
	c0.756,0,1.513,0.066,2.269,0.23c3.289,0.197,6.576,0.099,9.863,0.033c10.158-0.888,20.648-3.354,29.13-9.337l0.099,0.132
	c0.263-0.23,0.492-0.428,0.756-0.625c1.349-0.986,2.664-2.038,3.979-3.123c0.296-0.23,0.624-0.493,0.921-0.789
	c1.446-1.578,3.123-3.025,4.34-4.833l0.197,0.099c0.099-0.165,0.263-0.493,0.363-0.658c1.116-1.512,2.137-3.091,3.123-4.668
	c0.064-0.099,0.229-0.263,0.294-0.362l-0.13-0.131c0.099-0.131,0.328-0.395,0.428-0.526c1.808-3.682,3.418-7.529,3.978-11.605
	c0.23-0.099,0.362-0.296,0.362-0.526c0.033-1.315,0.493-2.564,0.361-3.879C1664.671,279.209,1664.704,277.565,1664.64,275.921z"/>
<g>
	<g>
		<g>
			<defs>
				<path id="SVGID_00000023277963354936431420000013986295602700365194_" d="M1664.64,275.921
					c-0.264-0.493-0.296-1.085-0.296-1.644l-0.264,0.033c-0.395-1.446-1.61-2.828-3.19-2.893c-1.183-0.099-2.663-0.066-3.352,1.052
					c-1.314,1.775-0.691,4.044-0.757,6.049c0,0.132,0.034,0.362,0.034,0.493c0,1.348-0.165,2.663-0.396,3.978
					c-0.196,0.395-0.296,0.822-0.296,1.282c-0.558,3.09-1.677,6.148-3.188,8.943c-0.296,0.395-0.526,0.821-0.624,1.282
					c-0.986,1.709-2.171,3.288-3.387,4.865c-0.198,0.165-0.362,0.362-0.526,0.559c-0.854,1.052-1.775,1.94-2.729,2.861
					c-0.229,0.131-0.394,0.295-0.592,0.427c-1.117,1.084-2.366,2.104-3.715,2.926c-0.164,0.099-0.328,0.23-0.527,0.361
					c-8.416,5.556-18.64,7.858-28.603,7.957c-8.449,0.263-16.965-1.545-24.592-5.195c-0.132-0.066-0.46-0.197-0.593-0.263
					c-1.282-0.69-2.597-1.283-3.78-2.137c-0.264-0.132-0.526-0.296-0.822-0.427c-1.217-0.724-2.367-1.513-3.452-2.433
					c-0.362-0.329-0.756-0.592-1.15-0.888c-1.185-0.954-2.4-1.973-3.419-3.124c-0.263-0.295-0.526-0.559-0.789-0.822
					c-3.582-3.715-6.377-8.252-7.857-13.184c-1.414-3.912-1.216-8.186-1.38-12.296c-1.186-1.808-3.683-2.828-5.656-1.71
					c-0.821,0.592-0.92,1.677-1.545,2.433c-1.019,10.85,3.617,21.667,11.015,29.491c0,0.263,0.132,0.428,0.362,0.526
					c1.315,1.217,2.597,2.466,3.911,3.649c0.23,0.23,0.494,0.46,0.79,0.658c1.315,1.085,2.729,2.071,4.109,3.09
					c0.263,0.197,0.525,0.362,0.821,0.526c1.809,1.052,3.518,2.302,5.458,3.025c0.132,0.099,0.361,0.263,0.493,0.329
					c6.247,2.992,12.987,5.031,19.891,5.688c0.756,0,1.513,0.066,2.269,0.23c3.289,0.197,6.576,0.099,9.863,0.033
					c10.158-0.888,20.648-3.354,29.13-9.337l0.099,0.132c0.263-0.23,0.492-0.428,0.756-0.625c1.349-0.986,2.664-2.038,3.979-3.123
					c0.296-0.23,0.624-0.493,0.921-0.789c1.446-1.578,3.123-3.025,4.34-4.833l0.197,0.099c0.099-0.165,0.263-0.493,0.363-0.658
					c1.116-1.512,2.137-3.091,3.123-4.668c0.064-0.099,0.229-0.263,0.294-0.362l-0.13-0.131c0.099-0.131,0.328-0.395,0.428-0.526
					c1.808-3.682,3.418-7.529,3.978-11.605c0.23-0.099,0.362-0.296,0.362-0.526c0.033-1.315,0.493-2.564,0.361-3.879
					C1664.671,279.209,1664.704,277.565,1664.64,275.921z"/>
			</defs>
			<clipPath id="SVGID_00000073706325980962405590000002686314327346923710_">
				<use xlink:href="#SVGID_00000023277963354936431420000013986295602700365194_"  overflow="visible"/>
			</clipPath>
			<g clip-path="url(#SVGID_00000073706325980962405590000002686314327346923710_)">
				<path fill="none" stroke="#D1D1D1" stroke-width="2" d="M1554.671,274.811c2.665,0.836,8.788-1.268,10.52,0.658"/>
				<path fill="none" stroke="#D1D1D1" stroke-width="2" d="M1556.205,282.92c2.555-0.889,8.03-2.993,10.302-1.753"/>
				<path fill="none" stroke="#D1D1D1" stroke-width="2" d="M1558.836,291.03c1.234,0.399,3.667-1.77,4.877-2.405
					c1.798-0.945,3.644-1.67,5.644-1.979"/>
				<path fill="none" stroke="#D1D1D1" stroke-width="2" d="M1562.781,299.578c1.273-1.81,2.798-3.312,4.638-4.598
					c1.823-1.274,6.81-4.677,8.952-3.513"/>
				<path fill="none" stroke="#D1D1D1" stroke-width="2" d="M1566.507,305.715c1.445-1.149,2.033-3.182,3.552-4.389
					c1.836-1.46,4.648-1.722,6.531-2.625"/>
				<path fill="none" stroke="#D1D1D1" stroke-width="2" d="M1572.698,310.263c0.433-3.179,3.66-7.014,6.74-6.74"/>
				<path fill="none" stroke="#D1D1D1" stroke-width="2" d="M1577.466,314.702c1.627-0.163,3.005-3.806,4.104-5.04
					c1.649-1.85,3.358-2.418,5.539-3.07"/>
				<path fill="none" stroke="#D1D1D1" stroke-width="2" d="M1586.891,318.647c-0.105-2.3,2.271-8.895,5.041-8.548"/>
				<path fill="none" stroke="#D1D1D1" stroke-width="2" d="M1593.905,320.839c-0.115-2.718,1.291-10.895,4.603-11.178"/>
				<path fill="none" stroke="#D1D1D1" stroke-width="2" d="M1601.138,325.223c-0.628-3.802-0.587-9.3,2.41-12.055"/>
				<path fill="none" stroke="#D1D1D1" stroke-width="2" d="M1610.124,326.099c-0.335-3.168-3.483-9.574,0-12.055"/>
				<path fill="none" stroke="#D1D1D1" stroke-width="2" d="M1619.768,323.907c-1.503-1.743-2.377-8.617-1.754-10.521"/>
				<path fill="none" stroke="#D1D1D1" stroke-width="2" d="M1628.974,322.373c-1.159-2.105-2.596-4.082-3.035-6.526
					c-0.263-1.46,0.197-3.541-0.034-4.653"/>
				<path fill="none" stroke="#D1D1D1" stroke-width="2" d="M1636.646,319.085c-2.516-1.645-3.213-7.69-2.411-10.302"/>
				<path fill="none" stroke="#D1D1D1" stroke-width="2" d="M1644.097,315.797c-1.788-3.837-3.695-6.812-3.727-11.178"/>
				<path fill="none" stroke="#D1D1D1" stroke-width="2" d="M1651.33,308.784c-2.779-1.87-6.326-5.269-5.918-8.986"/>
				<path fill="none" stroke="#D1D1D1" stroke-width="2" d="M1659.002,302.866c-4.224-0.936-9.292-4.714-11.835-8.11"/>
				<path fill="none" stroke="#D1D1D1" stroke-width="2" d="M1662.509,295.633c-3.047-0.653-13.112-4.581-12.493-8.548"/>
				<path fill="none" stroke="#D1D1D1" stroke-width="2" d="M1665.797,287.961c-4.245-1.556-10.42-2.955-13.81-5.918"/>
				<path fill="none" stroke="#D1D1D1" stroke-width="2" d="M1667.989,280.947c-2.674,0.229-6.504-1.065-9.222-1.534
					c-3.018-0.52-5.815-1.537-8.752-2.192"/>
				<path fill="none" stroke="#D1D1D1" stroke-width="2" d="M1665.358,274.153c-5.156,0.309-9.995-1.456-14.684-3.068"/>
			</g>
		</g>
	</g>
</g>
<g>
	<path fill="#107BD4" stroke="#107BD4" stroke-width="0.1009" d="M1005.522,289.961c4.765-0.719,10.248-1.168,14.293,1.798
		c2.517,1.887,3.416,5.303,3.235,8.36c0.18,5.034-2.157,10.427-6.65,13.034c-3.956,2.158-8.72,2.336-13.125,1.887
		c-2.966-0.359-5.933-1.977-7.461-4.674C992.398,302.546,996.623,291.489,1005.522,289.961z"/>
	<path fill="#107BD4" stroke="#107BD4" stroke-width="0.1009" d="M862.955,295.625c0.269-2.697,2.696-5.124,5.483-5.034
		c20.765,0,41.44,0.089,62.115,0c2.247-0.18,4.674,0.809,5.753,2.786c1.528,2.697,0.18,5.663,0,8.45
		c-0.628,3.775-0.449,8.809-4.853,10.247c-15.103,0.45-30.204,0-45.306,0.18c-1.438,9.528-2.786,18.966-4.225,28.405
		c0,0.359,0.091,1.169,0.091,1.527c11.056-0.089,22.112,0,33.169-0.089c3.057-0.18,6.292,2.428,6.023,5.663
		c-0.27,3.327-0.989,6.562-1.438,9.889c-0.36,2.246-2.158,4.314-4.495,4.764c-12.315,0.27-24.81-0.27-37.124,0.27
		c-1.978,13.573-4.316,27.146-6.383,40.721c-0.268,2.696-2.427,5.034-5.123,5.123c-5.124,0.091-10.247,0.091-15.371,0
		c-3.325,0.091-6.023-3.597-5.124-6.742C851.63,366.368,857.292,331.042,862.955,295.625z"/>
	<path fill="#107BD4" stroke="#107BD4" stroke-width="0.1009" d="M954.284,290.77c4.674-0.359,9.438-0.089,14.113-0.179
		c2.877-0.18,5.753,2.067,6.021,5.034c0,2.336-0.629,4.674-0.898,7.011c-3.776,24.091-7.641,48.182-11.417,72.273
		c-0.539,3.864-1.527,8-0.358,11.955c1.348,3.955,7.37,2.246,8.809,6.381c0.898,3.326-0.091,6.832-0.36,10.248
		c-0.269,4.495-5.393,5.483-8.898,6.474c-7.641,1.438-16.9,0.358-22.384-5.934c-3.955-4.585-4.225-11.058-3.415-16.81
		c4.764-30.562,9.528-61.125,14.383-91.778C950.15,293.197,951.946,291.13,954.284,290.77z"/>
	<path fill="#107BD4" stroke="#107BD4" stroke-width="0.1009" d="M1132.717,295.625c0.269-2.697,2.697-5.034,5.393-5.034
		c4.585,0,9.17,0,13.664,0c3.415-0.09,6.203,3.595,5.394,6.831c-3.146,19.957-6.382,39.912-9.528,59.867
		c4.764-0.719,10.158-1.617,13.483-5.482c5.573-6.293,10.158-13.573,13.574-21.213c1.168-2.967,1.798-7.282,5.663-7.821
		c5.124-0.18,10.337-0.09,15.461,0c3.506-0.09,6.113,3.865,4.944,7.1c-1.348,4.766-3.596,9.169-5.933,13.395
		c-5.213,8.45-10.966,16.809-18.518,23.461c3.326,9.978,7.552,19.686,11.237,29.483c1.078,3.236,3.686,7.011,1.259,10.159
		c-2.788,3.774-8.002,1.886-11.866,2.336c-4.045-0.45-9.888,1.618-12.135-2.967c-4.225-9.798-7.73-19.864-12.046-29.663
		c-2.517,0.09-5.123,0.18-7.641-0.09c-0.179,0.359-0.539,1.078-0.719,1.438c-1.349,8.99-2.787,17.978-4.225,26.968
		c-0.54,2.157-2.248,4.045-4.584,4.225c-4.764,0.18-9.619,0.09-14.473,0.09c-2.068,0-3.955-1.349-4.854-3.146
		c-0.899-1.798-0.36-3.864-0.089-5.843C1121.75,365.02,1127.233,330.321,1132.717,295.625z"/>
	<path fill="#107BD4" stroke="#107BD4" stroke-width="0.1009" d="M1382.522,305.422c0.631-2.518,3.057-4.225,5.574-4.136
		c3.596,0.09,7.281-0.089,10.967,0.09c2.966,0.089,5.303,3.056,4.942,5.933c-0.539,5.124-1.798,10.248-2.157,15.371
		c3.507,0,7.101-0.089,10.607,0c3.146,0,5.754,3.236,5.214,6.292c-0.449,2.787-1.078,5.484-1.528,8.27
		c-0.449,2.338-2.427,4.226-4.673,4.585c-4.316,0.27-8.54-0.18-12.765,0.27c-1.798,12.044-3.775,24.089-5.664,36.136
		c-0.27,2.786-0.449,5.932,1.169,8.358c2.427,2.968,6.651,1.889,10.068,2.248c2.696,0.809,4.403,3.775,3.954,6.473
		c-0.449,3.057-0.539,6.112-1.258,9.078c-1.079,3.326-4.944,3.956-7.911,4.765c-8.18,2.158-17.618,2.158-24.898-2.608
		c-6.742-4.584-7.821-13.483-7.103-21.034c1.888-14.563,4.854-29.035,6.472-43.687c-2.516,0.089-5.573,0.449-7.459-1.798
		c-2.158-2.247-1.079-5.573-0.72-8.36c0.54-2.966,0.449-6.831,3.686-8.45c2.606-0.989,5.573-0.27,8.359-0.629
		C1379.107,316.838,1380.725,311.085,1382.522,305.422z"/>
	<path fill="#107BD4" stroke="#107BD4" stroke-width="0.1009" d="M1331.734,334.546c5.664-5.663,12.495-10.337,20.315-12.673
		c3.416-1.529,7.821,1.348,7.731,5.123c-0.629,4.945-1.798,9.798-2.607,14.652c-0.36,2.427-2.427,4.495-4.855,4.765
		c-8.809,1.527-16.448,6.83-22.562,13.123c-1.528,1.889-3.775,3.686-4.045,6.293c-1.887,12.585-3.866,25.169-5.843,37.754
		c-0.269,2.696-2.607,5.304-5.393,5.124c-4.585,0-9.169,0-13.665,0c-3.145,0.18-5.933-2.967-5.572-6.113
		c3.954-24.9,7.911-49.708,11.775-74.609c0.18-2.517,1.979-4.943,4.585-5.213c3.326-0.18,6.651-0.09,10.068-0.09
		c2.696,0,5.212,2.427,5.212,5.214c0,3.865-0.358,7.82-0.449,11.775C1328.589,338.322,1329.937,336.165,1331.734,334.546z"/>
	<path fill="#107BD4" stroke="#107BD4" stroke-width="0.1009" d="M995.723,323.13c4.854-0.988,9.888-0.179,14.742-0.45
		c2.787-0.359,5.753,1.439,6.202,4.226c0.36,2.516-0.36,4.944-0.629,7.371c-3.685,23.102-7.371,46.204-10.967,69.306
		c-0.269,2.607-2.426,5.214-5.213,5.123c-4.854,0-9.708,0.091-14.651-0.089c-3.057-0.36-5.305-3.864-4.495-6.833
		c3.866-23.999,7.552-47.91,11.417-71.912C992.308,327.266,993.028,324.209,995.723,323.13z"/>
	<path fill="#107BD4" stroke="#107BD4" stroke-width="0.1009" d="M1286.609,324.3c-13.394-2.518-27.057-4.316-40.631-2.967
		c-12.135,1.528-24.36,7.012-31.82,16.99c-10.338,13.124-13.844,30.742-11.507,47.104c1.259,7.818,4.674,15.73,11.057,20.584
		c5.933,4.584,13.933,5.214,21.125,4.045c10.067-1.978,18.606-8.449,25.618-15.641c0.358,3.056-0.36,6.112-0.18,9.08
		c0.18,2.784,2.696,5.392,5.483,5.212c3.057,0,6.112,0,9.17,0c2.696,0,4.944-2.516,5.124-5.124
		c3.865-24.359,7.73-48.631,11.506-72.9C1292.092,327.625,1289.666,324.659,1286.609,324.3z M1261.351,366.637
		c-3.596,6.743-8.63,12.855-14.294,18.068c-3.236,2.696-7.372,5.484-11.775,4.584c-4.315-0.898-6.383-5.393-7.371-9.258
		c-2.248-10.067-0.18-21.035,5.482-29.753c2.517-4.046,6.562-7.101,11.236-8.36c6.562-1.618,13.484-0.809,19.867,0.989l0.358,0.36
		C1264.048,351.086,1262.519,358.816,1261.351,366.637z"/>
	<path fill="#107BD4" stroke="#107BD4" stroke-width="0.1009" d="M1110.155,353.154c-0.09-8.989-2.517-18.428-8.809-25.17
		c-4.314-4.764-10.787-7.191-17.079-7.102c-10.428-0.358-20.226,4.766-27.866,11.597c-1.709,1.349-2.877,3.326-4.765,4.405
		c0-2.967,0.27-5.933,0.179-8.989c0.09-2.787-2.517-5.214-5.213-5.214c-3.056,0-6.112,0-9.169,0c-2.875,0-5.213,2.518-5.393,5.303
		c-5.663,35.957-11.416,71.913-17.079,107.87c-0.809,3.325,2.068,6.741,5.484,6.651c5.034-0.089,10.157,0.359,15.101-0.36
		c3.956-1.078,3.865-5.663,4.495-8.989c1.438-7.91,2.428-15.82,3.326-23.82c17.709,3.416,38.293,1.079,51.507-12.315
		C1105.66,385.245,1110.694,368.975,1110.155,353.154z M1084.985,362.232c-0.539,8.27-3.505,16.631-9.258,22.652
		c-7.461,7.102-18.788,6.112-27.957,3.686c-0.179-0.269-0.449-0.81-0.539-1.078c1.438-7.82,2.157-15.73,3.955-23.461
		c5.035-8.27,11.146-16.63,19.865-21.214c3.236-1.528,7.641-1.168,9.979,1.798C1084.985,349.559,1085.345,356.211,1084.985,362.232z
		"/>
</g>
</svg>
