<?xml version="1.0" encoding="utf-8"?>
<!-- Generator: Adobe Illustrator 27.1.1, SVG Export Plug-In . SVG Version: 6.00 Build 0)  -->
<svg version="1.1" id="Layer_1" xmlns="http://www.w3.org/2000/svg" xmlns:xlink="http://www.w3.org/1999/xlink" x="0px" y="0px"
	 viewBox="0 0 318.957 115.106" enable-background="new 0 0 318.957 115.106" xml:space="preserve">
<g>
	<path fill="none" d="M-34.021-32.447h387v180h-387V-32.447z	">
<animate  accumulate="none" additive="replace" attributeName="visibility" begin="0;a.end" calcMode="linear" dur="8s" fill="remove" from="hide" id="a" restart="always" to="hide">
			</animate>
	</path>
	<path fill="#1F36C7" d="M6.339,91.375c0.385,2.261,0.497,5.134,0.683,7.453c0.674,0.33,7.069-0.517,7.107-0.799
		c0.236-1.769,0.256-3.609,0.678-5.806c0.422-2.198,4.372-2.004,3.605,0.18c-1.781,5.068-0.827,12.307-0.346,13.653
		s1.948,1.682,2.926,1.008c0.977-0.673,1.916-2.18,2.111-2.86c0.054-2.006,0.594-4.868,2.218-4.868c1.137,0,1.679,2.541,0.865,4.762
		c0,2.65,0.863,3.257,1.996,3.21c1.134-0.046,2.152-1.143,2.54-1.96c0.032-0.112,0.062-0.216,0.087-0.309
		c0.092-0.346,0.183-0.7,0.27-1.047l0.13-0.516c0.274-1.1,0.51-2.068,0.664-2.462c0.223-0.58,0.824-0.994,1.306-0.95
		c0.243,0.023,0.316,0.476,0.392,0.85c0.272,1.338,0.654,2.703,1.085,2.703c0.76,0,3.271-4.817,4.73-4.817
		c1.788,0,2.185,7.85,4.618,7.85c0.799,0,2.14-1.068,2.367-2.238c0.387-1.993,1.981-5.282,4.099-5.66
		c1.226-0.22,1.831,1.006,2.075,0.526c0.128-1.87,0.407-6.417,0.747-8.244c0.201-0.673,2.379-0.037,2.341,0.65
		c-0.23,4.128-0.247,8.913,0.18,11.3c0.428,2.386,1.557,5.498,3.291,4.083c2.015-1.644,2.041-7.41,2.719-8.244
		c0.396-0.3,1.706,0.162,1.728,0.62c0.289,1.26-0.674,4.443-0.687,5.438c-0.016,1.274,1.153,1.326,2.967-0.295
		c0.963-0.862,2.075-2.508,2.774-3.88c0.616-1.212,0.989-2.163,1.491-1.914c0.503,0.25,0.678,0.476,0.801,0.945
		c0.18,0.684,0.19,1.559,0.174,2.448l-0.008,0.382l-0.004,0.19l-0.009,0.38c-0.037,1.88,0.033,3.543,1.601,3.254
		c1.922-0.353,4.113-4.718,4.382-5.505c0.269-0.787-0.551-1.562,0.245-2.036s1.855-0.029,2.549,0.501
		c0.826,0.631,1.714,1.661,2.256,2.627c0.542,0.965,0.827,2.397,0.86,3.694c0.022,0.822,2.174-0.344,2.556-2.023
		c0.278-1.222,0.413-3.826,1.036-6.62c-0.55-0.039-4.41,0.065-3.102-1.734c0.318-0.437,1.892-0.378,3.336-0.42
		c0.237-0.79,0.718-2.809,1.29-3.92c0.205-0.398,1.761-0.12,1.875,0.431c0.116,0.558-0.264,2.94-0.342,3.531
		c1.147,0.042,2.234-0.199,3.323,0.17c1.012,0.342,1.008,1.611-0.255,1.826c-1.13,0.193-2.346,0.043-3.493,0.085
		c-0.415,1.838-0.962,5.001-0.74,7.022s1.237,2.99,1.765,3.107c0.484,0.108,0.884-0.136,1.362-0.602l0.142-0.142
		c0.06-0.06,0.119-0.127,0.178-0.195c0.423-0.533,0.725-1.409,0.828-1.83c0.482-1.966,1.963-4.957,3.998-5.162
		c1.284-0.13,1.922,1.436,2.253,1.18c0.261-0.203,0.123-0.937,0.328-1.19c0.299-0.372,1.934-0.05,1.967,0.786
		c0.044,1.101,0.144,2.171,0.317,3.362s0.511,4.46,2.539,3.791c0.287-0.095,0.929-0.617,1.161-0.944
		c0.131-0.442,0.253-0.852,0.337-1.154c0.092-0.346,0.183-0.7,0.27-1.047l0.407-1.624c0.155-0.61,0.287-1.1,0.386-1.354
		c0.223-0.58,0.825-0.994,1.306-0.949c0.244,0.023,0.316,0.476,0.392,0.85c0.272,1.338,0.655,2.702,1.085,2.702
		c0.76,0,3.271-4.817,4.731-4.817c1.788,0,2.003,7.578,4.436,7.578c0.883,0,1.76-1.367,2.112-1.84
		c0.353-0.473,1.033,0.586,0.651,1.646c-0.383,1.06-2.057,3.602-3.409,3.602c-1.04,0-1.706-1.255-2.314-2.617l-0.226-0.514
		c-0.636-1.457-1.25-2.874-2.224-2.874c-1.57,0-6.527,6.1-7.873,5.96c-0.542-0.057-0.769-0.46-0.712-1.002l0.001-0.01
		c-0.937,0.602-1.866,1.248-2.945,0.881c-1.08-0.366-1.733-1.803-1.93-2.33c-0.197-0.527-0.406-0.538-0.611-0.21
		c-0.737,1.18-1.551,1.826-2.5,2.297c-0.948,0.47-2.092,0.355-2.555,0.175c-0.594-0.232-1.016-0.725-1.287-1.249
		c-0.072-0.139-0.133-0.284-0.181-0.433c-0.56,0.773-1.09,1.702-2.923,1.912s-3.332-1.605-3.787-2.93
		c-0.171-0.499-0.352-0.528-0.508-0.362c-0.7,0.765-1.476,1.456-2.317,2.063c-1.045,0.758-2.07,1.154-3.367,1.286
		c-1.297,0.131-2.522-0.252-3.064-0.922s-0.496-1.26,0.009-1.909c0.504-0.648,0.979,0.462,2.468,0.126
		c1.49-0.337,1.445-3.324,0.126-4.59c-0.484-0.466-0.808-0.423-1.119,0.036c-1.445,2.634-2.88,4.523-5.216,6.477
		c-0.853,0.54-1.674,0.752-2.335,0.462c-1.445-1.19-0.845-4.538-1.716-4.558c-0.872-0.02-3.4,4.11-5.01,4.56
		c-1.609,0.45-2.272-0.273-2.618-0.79s-0.435-1.057-0.845-0.755c-0.815,0.602-2.605,2.08-3.993,1.632
		c-1.387-0.447-2.296-2.129-2.503-2.656c-0.208-0.527-0.485-0.229-0.704,0.13c-0.737,1.204-1.604,1.877-2.574,2.368
		c-0.971,0.491-2.172,0.434-2.659,0.254c-0.626-0.23-1.07-0.724-1.355-1.249c-0.11-0.202-0.146-1.086-0.199-1.299
		c-0.612,1.238-2.505,2.652-3.227,2.652c-1.04,0-1.706-1.255-2.314-2.617l-0.225-0.514c-0.636-1.457-1.251-2.874-2.225-2.874
		c-1.569,0-6.526,6.1-7.873,5.96c-0.541-0.057-0.769-0.46-0.712-1.002c0.025-0.198,0.061-0.394,0.108-0.587
		c-1.007,0.888-1.834,1.582-2.7,1.582c-2.597,0-2.817-3.822-3.482-3.19c-0.464,0.44-1.519,1.937-2.495,2.618
		c-0.975,0.68-2.329,0.736-3.329,0.574c-1-0.163-2.148-0.718-2.806-2.454c-0.658-1.737-0.956-5.723-0.921-6.28
		c0.034-0.559-7.113,0.495-7.055,1.26c0.058,0.764-0.061,4.505-0.516,6.782c-0.242,1.215-3.521,1.346-3.31-0.274
		c0.445-5.767,1.215-11.202-0.303-16.665C2.571,90.495,6.097,89.949,6.339,91.375L6.339,91.375z M50.964,101.082
		c-0.991,0.687-1.775,2.703-1.968,3.711c-0.194,1.008-0.192,2.932,1.073,2.758c1.264-0.174,2.06-1.285,2.481-2.539
		c0.421-1.254,0.385-2.976,0.105-3.526C52.374,100.936,51.494,100.716,50.964,101.082L50.964,101.082z M96.825,101.873
		c-0.939,0.69-1.403,1.835-1.668,2.843s-0.136,2.92,1.104,2.764c1.24-0.155,1.918-1.416,2.16-2.19
		c0.242-0.775,0.369-2.025,0.11-2.833S97.251,101.56,96.825,101.873L96.825,101.873z M25.779,90.801c0.921,0,1.6,0.593,1.677,1.46
		c0.108,1.247-0.756,2.6-1.943,2.6c-1.034,0-1.56-0.735-1.626-1.627C23.785,91.879,24.752,90.801,25.779,90.801z M239.517,92.523
		c-1.78,5.07-1.448,13.291-0.603,14.352c0.844,1.061,4.59,0.39,6.2-0.379c1.611-0.768,1.917-1.49,2.111-2.17
		c0.055-2.007,0.595-4.869,2.219-4.869c1.137,0,1.679,2.541,0.864,4.762c0,2.65,0.863,3.257,1.997,3.211
		c1.134-0.047,2.152-1.144,2.539-1.962l0.088-0.308c0.438-1.646,0.84-3.45,1.064-4.025c0.223-0.58,0.824-0.994,1.305-0.949
		c0.244,0.023,0.317,0.476,0.392,0.85c0.273,1.338,0.537,2.702,0.968,2.702c0.76,0,3.006-4.779,4.466-4.779
		c1.523,0,1.518,4.047,2.25,4.658c0.732,0.612,4.011-4.817,5.47-4.817c1.909,0,2.194,6.922,2.468,7.705
		c0.274,0.782,0.98,0.775,1.756,0.332c1.555-0.886,1.725-1.833,1.92-2.514c0.054-2.006,0.595-4.868,2.218-4.868
		c1.138,0,1.68,2.541,0.865,4.762c0,2.65,1.156,3.245,1.997,3.211c0.84-0.034,1.452-0.663,1.945-1.46
		c0.427-0.676,0.738-1.419,0.92-2.198c0.278-1.22,0.414-3.826,1.037-6.62c-0.551-0.038-4.41,0.065-3.102-1.734
		c0.317-0.437,1.891-0.378,3.336-0.42c0.237-0.79,0.718-2.809,1.29-3.92c0.204-0.398,1.76-0.119,1.874,0.431
		c0.116,0.558-0.264,2.94-0.341,3.531c1.147,0.043,2.233-0.199,3.323,0.17c1.011,0.342,1.008,1.611-0.255,1.826
		c-1.131,0.193-2.346,0.043-3.494,0.086c-0.415,1.837-0.961,5-0.74,7.021c0.222,2.021,1.124,3.054,1.766,3.33
		c0.759,0.328,1.69,0.164,2.375-0.276c-0.086-0.344-0.233-0.886-0.233-1.46c0-3.789,2.436-6.982,4.546-6.982
		c1.678,0,2.652,2.22,2.652,3.683c0,1.73-1.463,3.14-3.625,4.491c0.38,0.377,1.08,0.65,1.678,0.65c2.07,0,3.69-1.907,4.512-3.965
		s2.076-4.367,3.954-4.703c1.227-0.219,1.831,1.007,2.075,0.526c0.128-1.869,0.407-6.416,0.747-8.243
		c0.201-0.673,2.379-0.038,2.341,0.65c-0.23,4.128-0.247,8.913,0.18,11.3c0.428,2.386,1.258,4.87,3.291,3.935
		c0.593-0.273,1.046-0.786,1.302-1.043c0.303-0.304,0.828,0.848,0.381,1.57c-0.739,1.19-2.879,2.588-4.39,2.14
		c-1.51-0.447-2.296-2.129-2.503-2.656c-0.208-0.527-0.485-0.23-0.704,0.128c-0.737,1.206-1.604,1.88-2.574,2.37
		c-0.971,0.491-2.172,0.434-2.659,0.254c-0.626-0.232-0.987-0.63-1.265-1.159c-0.195-0.374-0.327-0.777-0.392-1.193
		c-0.041-0.312-0.218-0.572-0.536-0.259c-1.248,1.232-2.736,2.53-5.654,2.511c-0.871,0-1.788-0.359-2.544-1.226
		c-0.906,0.693-2.049,1.306-3.458,1.367c-1.759,0.077-3.224-1.407-3.709-2.722c-0.281-0.76-0.927,0.606-1.552,1.281
		c-0.625,0.674-1.517,1.414-2.743,1.414c-2.597,0-2.841-3.847-3.481-3.19c-0.997,1.02-3.941,3.434-5.528,3.241
		c-2.205-0.269-0.646-6.124-2.637-6.124c-1.569,0-4.749,6.217-6.096,6.078c-0.541-0.057-0.768-0.46-0.711-1.002
		c0.017-0.173,0.369-4.03-0.094-4.729c-0.627-0.948-2.356,0.743-4.08,2.53l-0.535,0.555c-1.358,1.411-2.641,2.717-3.299,2.65
		c-0.541-0.058-0.769-0.462-0.712-1.003c0.016-0.15,0.054-0.352,0.108-0.587c-1.007,0.888-1.834,1.582-2.7,1.582
		c-2.598,0-2.817-3.766-3.482-3.135c-0.464,0.44-1.053,1.165-2.916,1.965c-2.683,1.152-7.496,1.756-8.641,0.615
		c-2.65-2.642-1.454-12.064-0.515-16.956C236.226,90.147,240.284,90.341,239.517,92.523L239.517,92.523z M305.983,101.24
		c-0.991,0.687-1.775,2.703-1.968,3.711c-0.194,1.008-0.192,2.932,1.073,2.758c1.264-0.174,2.06-1.285,2.481-2.539
		s0.385-2.976,0.105-3.526C307.393,101.094,306.513,100.874,305.983,101.24L305.983,101.24z M295.509,101.353
		c-0.491,0-1.624,0.538-1.624,2.271c0,1.357,0.482,2.001,0.703,2.276c1.567-0.487,2.002-1.789,2.002-2.872
		C296.59,102.11,296.101,101.353,295.509,101.353L295.509,101.353z M249.835,90.923c0.921,0,1.601,0.592,1.677,1.46
		c0.109,1.246-0.756,2.6-1.943,2.6c-1.033,0-1.559-0.736-1.626-1.628C247.841,92,248.808,90.923,249.835,90.923z M279.667,90.921
		c0.921,0,1.601,0.593,1.677,1.46c0.109,1.246-0.756,2.6-1.943,2.6c-1.033,0-1.559-0.736-1.626-1.628
		C277.673,91.999,278.64,90.921,279.667,90.921z M223.052,98.677c1.762,0.011,2.911,0.984,2.903,2.222
		c-0.005,0.864-0.67,1.613-1.605,1.608c-1.983-0.012-1.48-1.465-2.304-1.47c-1.836-0.011-3.271,2.847-4.665,5.878l-0.246,0.537
		l-0.238,0.522l-0.358,0.777c-0.672,1.446-1.062,1.712-1.611,1.709c-1.384-0.009-1.685-3.722-2.229-5.339
		c-1.172,2.411-3.396,5.304-7.036,5.282c-2.094-0.013-4.174-1.103-4.154-4.38c0.024-3.657,2.461-6.28,4.942-6.265
		c1.875,0.012,3.13,1.905,3.122,3.247c-0.024,3.606-4.879,3.68-4.883,4.435c-0.005,0.699,1.262,0.977,1.977,0.982
		c3.09,0.019,5.188-4.036,5.89-6.797c0.12-0.48,0.56-1.502,1.443-1.497c0.994,0.006,0.514,6.081,1.893,6.09
		C216.721,106.223,217.869,98.645,223.052,98.677L223.052,98.677z M205.718,101.909c-2.094-0.013-1.95,3.319-1.622,4.13
		c1.545-0.26,2.541-1.171,2.823-1.975c0.282-0.808-0.042-2.148-1.2-2.155H205.718z M177.818,94.297
		c0.365,6.499-1.87,9.197-2.997,11.53c0.182,0.909,1.75,2.462,3.238,2.471c0.55,0.004,1.215-0.261,1.383-0.478
		c-0.149-0.506-0.221-1.032-0.213-1.56c0.025-3.765,2.527-6.924,4.677-6.911c1.709,0.01,2.687,2.222,2.678,3.677
		c-0.012,1.718-1.51,3.11-3.722,4.442c0.384,0.375,1.096,0.652,1.705,0.656c3.144,0.02,4.814-3.683,6.054-7.066
		c0.224-0.645,0.618-1.555,1.389-1.55c1.323,0.008,1.82,8.51,4.02,8.523c0.94,0.006,1.723-1.874,1.732-3.322
		c0.007-1.077-0.378-1.188-0.368-2.748c0.011-1.719,0.959-3.164,2.23-3.156c0.77,0.004,1.044,0.756,1.038,1.668
		c-0.023,3.444-2.603,9.83-6.347,9.807c-2.817-0.018-2.566-4.75-3.557-4.756c-1.108-0.007-2.682,4.77-8.134,4.737
		c-0.886-0.006-1.819-0.441-2.583-1.309c-1.328,0.855-2.435,1.224-3.703,1.217c-2.038-0.013-2.909-2.063-3.734-2.068
		c-0.994-0.006-2.107,2.085-5.418,2.065c-2.646-0.017-3.065-3.458-4-3.464c-0.829-0.005-2.118,3.426-3.495,3.418
		c-1.126-0.007-1.812-1.42-2.454-2.872l-0.226-0.512c-0.6-1.358-1.201-2.609-2.135-2.615c-0.8-0.005-2.471,1.5-4.115,2.989
		l-0.491,0.444c-1.466,1.323-2.836,2.507-3.453,2.441c-0.55-0.06-0.78-0.463-0.718-1c0.082-0.743,0.752-2.732,1.024-3.672
		l0.142-0.52l0.14-0.52c0.343-1.293,0.644-2.503,0.827-2.953c0.23-0.576,0.846-0.983,1.336-0.936
		c0.248,0.025,0.32,0.475,0.394,0.848l0.08,0.38c0.262,1.198,0.611,2.31,1.008,2.313c0.775,0.004,3.363-4.768,4.85-4.759
		c1.823,0.011,1.992,7.544,4.471,7.56c0.829,0.005,1.444-0.958,2-2.141c0.07-1.993,0.639-4.834,2.292-4.823
		c1.159,0.007,1.695,2.536,0.85,4.738c-0.016,2.633,1.742,3.29,2.902,3.296c0.826,0.006,2.249-0.247,3.378-1.987
		c-0.63-1.39-1.069-4.192-1.126-5.212c-0.295-5.217,1.796-10.108,4.05-10.23c1.653-0.088,2.966,1.446,3.102,3.92H177.818z
		 M183.066,101.927c-0.502-0.003-1.659,0.526-1.67,2.248c-0.008,1.349,0.479,1.992,0.702,2.267c1.598-0.475,2.05-1.767,2.058-2.843
		C184.162,102.689,183.667,101.931,183.066,101.927z M174.741,93.602c-1.099,0.058-1.627,3.425-1.426,6.968
		c0.128,2.312,0.478,2.67,0.807,2.65c0.608-0.031,2.09-4.15,1.902-7.482C175.938,94.233,175.569,93.552,174.741,93.602z
		 M165.381,91.062c0.937,0.006,1.627,0.598,1.699,1.461c0.102,1.24-0.788,2.58-1.997,2.572c-1.053-0.007-1.584-0.74-1.645-1.627
		C163.342,92.121,164.334,91.056,165.381,91.062L165.381,91.062z M144.888,93.409c0.485,1.725,0.527,3.98,0.338,7.208
		c-0.245,4.408-2.542,9.721-8.163,9.576c-4.852-0.134-6.98-3.213-7.172-7.894c-0.092-2.206,0.084-4.41,1.041-7.522
		c0.507-1.667,0.954-2.258,2.497-2.568c1.213-0.209,1.096,1.026,0.812,2.481c-0.624,3.222-0.915,4.778-0.716,8.438
		c0.192,3.874,2.005,5.392,3.99,5.404c2.976,0.074,4.313-2.338,4.89-5.834c0.456-2.792,0.135-4.139-0.138-5
		c-0.153-0.49-0.606-1.591-0.726-2.403c-0.264-1.799,0.706-2.976,1.592-3.243C144.128,91.788,144.512,92.277,144.888,93.409
		L144.888,93.409z"/>
	<path fill="#1F36C7" d="M176.321,70.159c1.264,0.414,2.708,1.569,3.061,2.162c0.501-0.177,1.089-0.267,1.766-0.268
		c0.942,0,2.002,0.176,3.268,0.561c0.059-0.386,0.117-0.861,0.706-0.861c0.558,0,0.67,0.39,0.75,0.818l0.04,0.216
		c0.034,0.18,0.075,0.357,0.153,0.504c0.148,0.296,0.886,0.474,0.886,1.067c0,0.564-0.473,0.772-0.766,0.773
		c-0.121-0.003-0.24-0.023-0.355-0.059c-0.587,0.208-0.613,4.474-3.086,4.476c-1.825,0.002-3.503-1.508-4.242-3.402
		c-0.207-0.563-0.647-0.919-1.06-0.919c-0.47,0-0.735,0.09-1.293,0.714c-1.587,1.748-4.236,3.26-7.503,3.263
		c-1.002,0.001-1.796-0.086-2.002-0.086c-0.119,0-0.119,0.03-0.119,0.058c0,0.209,1.002,1.009,3.18,1.007
		c5.18-0.005,6.446-2.941,7.269-2.942c0.118,0,0.47,0,0.676,0.475c1.21,2.84,3.845,3.49,5.494,3.489
		c0.966-0.001,1.237-0.057,1.453-0.091l0.098-0.015c0.076-0.009,0.153-0.014,0.23-0.014c0.441,0,0.471,0.266,0.471,0.444
		c0,0.653-1.443,1.456-4.001,1.458c-1.502,0.002-2.416-0.8-2.682-1.689c-1.47,0.95-3.706,1.812-5.915,1.815
		c-6.033,0.005-7.566-2.633-9.45-3.488c-1.445-0.652-3.65,0.626-6.744-2.84c0.412,0.089,0.973,0.118,1.414,0.118
		c2.706-0.003,4.147-1.336,4.145-3.472c0-0.267-0.03-0.56-0.059-0.826c0.825,0.325,2.71,1.744,3.155,4.262
		c0.059,0.296,1.265,0.562,2.03,0.561c1.06,0,2.414-0.447,2.618-2.194C173.439,74.934,175.823,72.829,176.321,70.159L176.321,70.159
		z M182.033,74.096c-0.655,0.001-1.186,0.532-1.185,1.187c0.001,0.655,0.532,1.186,1.187,1.185s1.186-0.532,1.185-1.187
		C183.219,74.626,182.688,74.096,182.033,74.096z	">
<animate  accumulate="none" additive="replace" attributeName="fill" begin="a.begin+4s" calcMode="linear" dur="1s" fill="remove" restart="always" values="#1F36C7;#00D7C4;#1F36C7">
			</animate>
	</path>
	<path fill="#1F36C7" d="M197.606,72.597c0.681,0,1.627,0.637,1.629,2.202c0.002,2.754-4.128,6.15-9.657,6.155
		c-1.708,0.001-2.626-1.155-2.627-2.316c-0.001-1.651,0.914-3.161,1.616-3.975c0.324-0.378,0.65-0.668,0.945-0.669
		c0.237,0,0.948,0.493,2.543,0.492C195.042,74.483,196.838,73.179,197.606,72.597z M195.834,75.15c-0.163,0-1.096,0.83-3.236,0.9
		l-0.274,0.004h-0.385c0.03,0.26,0.06,0.435,0.06,0.668c0,0.594-0.13,1.212-0.315,1.814l-0.097,0.299l3.222-0.93
		c1.057-0.667,1.352-1.507,1.351-2.146C196.16,75.236,195.983,75.15,195.834,75.15L195.834,75.15z M193.293,69.439
		c1.7-0.001,2.96,0.448,3.063,1.226l0.007,0.104v0.667c0,0.32-0.054,0.643-0.294,0.843c-0.762,0.64-1.915,0.96-3.186,0.96
		c-1.527,0.002-2.785-0.502-2.892-1.029l-0.007-0.072l-0.001-1.334C189.983,70.396,191.134,69.441,193.293,69.439L193.293,69.439z	"
		>
<animate  accumulate="none" additive="replace" attributeName="fill" begin="a.begin+4.15s" calcMode="linear" dur="1s" fill="remove" restart="always" values="#1F36C7;#001F82;#1F36C7">
			</animate>
	</path>
	<path fill="#1F36C7" d="M154.549,62.962c3.61-0.003,6.386,3.038,6.39,7.375c0.002,1.955-1.069,4.856-5.425,4.86
		c-5.162,0.004-8.3-4.33-8.303-7.144c-0.003-2.357,1.579-3.85,2.562-4.082c-1.039,4.196,1.291,8.33,6.067,8.325
		c2.388-0.002,3.549-1.182,3.547-3.22c-0.002-2.27-1.585-4.536-4.241-4.534c-1.343,0.002-2.268,0.75-2.267,1.781
		c0.001,1.725,1.466,2.816,2.988,2.815c1.013-0.001,1.67-0.404,1.67-1.065c0.002-0.121-0.029-0.24-0.09-0.345
		c-0.12,0.058-0.358,0.115-0.657,0.115c-1.223,0.001-2.208-0.689-2.209-1.377c0-0.547,0.387-0.889,0.923-0.89
		c1.791,0,3.016,1.777,3.018,3.07c0,1.32-0.982,2.47-2.653,2.471c-3.552,0.003-5.046-2.837-5.048-4.735
		C150.819,64.345,152.578,62.964,154.549,62.962L154.549,62.962z	">
<animate  accumulate="none" additive="replace" attributeName="fill" begin="a.begin+4.1s" calcMode="linear" dur="1s" fill="remove" restart="always" values="#1F36C7;#EB0000;#1F36C7">
			</animate>
	</path>
	<path fill="#1F36C7" d="M173.502,65.121c0.55,0,0.84,0.466,0.9,0.956c0.2-0.189,0.374-0.27,0.635-0.27
		c0.493-0.02,0.909,0.362,0.929,0.855c0.001,0.015,0.001,0.03,0.001,0.045c-0.009,0.297-0.16,0.572-0.406,0.74
		c0.348,0.165,0.552,0.412,0.552,0.769c0,0.439-0.347,0.768-0.812,0.769c-0.434,0-0.696-0.495-1.158-0.494
		c-0.26,0-0.551,0.111-0.667,0.275c0.175,0.384,0.262,0.765,0.262,1.121c0.002,2.14-2.866,3.867-5.85,3.87
		c-2.984,0.002-4.058-1.75-4.059-2.462c0-0.165,0.116-0.248,0.32-0.248c0.492,0,0.608,0.165,1.94,0.163
		c3.188-0.002,2.054-4.085,5.038-4.087c0.406-0.001,1.305,0.273,1.623,0.82c0.231-0.273,0.319-0.548,0.319-0.795
		c0-0.465-0.32-0.823-0.321-1.258C172.748,65.423,173.067,65.121,173.502,65.121L173.502,65.121z	">
<animate  accumulate="none" additive="replace" attributeName="fill" begin="a.begin+4.05s" calcMode="linear" dur="1s" fill="remove" restart="always" values="#1F36C7;#EB0000;#1F36C7">
			</animate>
	</path>
	<path fill="#1F36C7" d="M202.884,59.363c2.375-0.002,5.018,1.58,5.021,5.15c0.004,3.8-5.5,8.523-6.322,8.524
		c-0.675,0-1.41-0.947-1.41-1.58c0-0.201,0.088-0.462,0.675-0.692c2.809-1.098,4.418-3.631,4.417-4.927
		c0-0.288-0.146-0.573-0.528-0.573c-0.497,0-2.628,4.779-5.005,4.78c-1.644,0.002-3.318-1.462-3.318-2.154
		c-0.001-1.152,4.75-3.286,4.75-4.899c-0.002-0.605-0.295-0.633-0.53-0.633c-0.616,0-4.017,4.465-6.21,4.468
		c-0.529,0-0.97-0.979-0.97-1.725c0-0.403,0.262-0.69,1.203-0.894C199.697,63.08,198.577,59.368,202.884,59.363L202.884,59.363z
		 M203.795,60.573c-0.41,0-0.85,0.318-0.849,1.096c0,0.86,0.676,1.408,1.057,1.58c0.206,0.115,0.529,0.23,0.849,0.23
		c0.852,0,1.527-0.232,1.526-0.924C206.378,61.665,205.056,60.571,203.795,60.573L203.795,60.573z	">
<animate  accumulate="none" additive="replace" attributeName="fill" begin="a.begin+4.2s" calcMode="linear" dur="1s" fill="remove" restart="always" values="#1F36C7;#9C44C0;#1F36C7">
			</animate>
	</path>
	<path fill="#1F36C7" d="M184.813,53.606c1.293,0,2.384,0.444,2.384,1.01c0,0.775-1.913,0.3-2.06,1.222
		c1.355,0.178,1.68,0.654,1.68,1.042c0.002,0.656-0.588,0.863-1.148,0.864c-0.412,0-0.882-0.089-1.383-0.088
		c-0.648,0-1.294,0.15-1.823,0.776c0.382,0.06,0.942,0.327,0.943,0.923c0.001,1.728-4.737,0.301-4.733,4.74
		c0.002,2.352,2.417,4.912,6.064,4.91c1.885-0.002,3.091-0.63,3.09-1.345c0-0.566-1-0.177-1-0.655c0-0.208,0.352-0.597,0.351-0.925
		c0-0.145-0.117-0.414-0.352-0.413c-0.531,0-1.531,0.863-3.562,0.864c-1.589,0.002-3.148-0.918-3.15-2.17
		c0-0.267,0.118-0.417,0.294-0.417c0.177,0,0.413,0.12,0.618,0.12c0.178,0,0.207-0.12,0.206-0.449c0-0.327,0-1.252,0.557-1.252
		c0.56,0,1.62,2.085,5.683,2.08c1.348,0,3.968-0.27,4.938-1.166c-0.026,3.276-2.554,7.596-7.847,7.601
		c-5.5,0.005-8.446-4.46-8.45-8.57C176.109,57.752,179.781,53.611,184.813,53.606z M184.435,59.326
		c1.704-0.002,2.856,1.098,2.858,2.23c0,0.772-0.559,1.429-1.385,1.43c-0.764,0-1.294-0.626-1.295-1.338
		c0-0.506,0.206-0.984,0.206-1.43C184.819,59.919,184.729,59.621,184.435,59.326L184.435,59.326z M188.34,54.258
		c3.092,0.593,4.77,2.944,4.773,5.148c0.001,1.52-0.938,2.918-2.587,2.919c-1.502,0.001-2.586-1.038-2.588-2.707
		c0-1.25,0.962-2.561,0.961-3.843c0-0.505-0.147-1.011-0.56-1.517H188.34z M190.255,56.579c-0.236,0-0.147,0.358-0.206,0.745
		c-0.029,0.298-0.175,0.654-0.175,0.893c0,0.417,0.295,0.745,0.707,0.745c0.471,0,0.766-0.418,0.766-0.895
		C191.346,57.443,190.786,56.579,190.255,56.579L190.255,56.579z M194.171,57.41c2.203,0.147,3.617,1.485,3.619,3.063
		c0,1.163-0.823,2.144-2.03,2.145c-1.112,0.001-1.85-0.8-1.85-1.784c-0.001-0.864,0.557-1.638,0.556-2.472
		C194.46,58.023,194.358,57.693,194.171,57.41z	">
<animate  accumulate="none" additive="replace" attributeName="fill" begin="a.begin+4.3s" calcMode="linear" dur="1s" fill="remove" restart="always" values="#1F36C7;#47C8FF;#1F36C7">
			</animate>
	</path>
	<path fill="#1F36C7" d="M157.321,59.363c1.432,0,2.485,0.41,3.45,1.877c0.879,1.32,1.027,3.522,1.494,3.933
		c0.234,0.206,0.615,0.264,0.878,0.264c0.293,0,0.556-0.03,0.76-0.03c2.104-0.002,3.538,2.373,3.54,3.431
		c0,0.97-0.846,1.32-1.898,1.32c-1.258,0.002-2.69-0.728-3.423-1.55c-0.555-0.587-0.849-1.763-1.084-3.2
		c-0.235-1.498-1.405-2.76-3.744-3.342c-1.872-0.469-2.135-0.82-2.135-1.32C155.159,59.923,156.299,59.365,157.321,59.363
		L157.321,59.363z M163.991,66.49c-0.32,0-0.73,0.236-0.729,0.676c0,0.53,1.316,1.47,2.194,1.468c0.437,0,0.583-0.265,0.583-0.471
		C166.038,67.4,164.723,66.49,163.991,66.49L163.991,66.49z	">
<animate  accumulate="none" additive="replace" attributeName="fill" begin="a.begin+4.25s" calcMode="linear" dur="1s" fill="remove" restart="always" values="#1F36C7;#E60067;#1F36C7">
			</animate>
	</path>
	<path fill="#1F36C7" d="M146.907,37.773c0.389,0,0.567,0.382,0.568,0.764c0,0.596-0.324,1.665-0.699,2.786l-0.312,0.921
		c-0.415,1.221-0.802,2.368-0.801,2.896c0,0.176,0.06,0.323,0.208,0.323c0.746,0,2.233-3.17,2.708-4.755
		c0.268-0.823,0.626-1.263,0.954-1.264c0.298,0,0.567,0.323,0.568,0.998c0.001,1.584-1.487,5.313-2.796,7.809
		c-1.011,1.937-2.588,4.724-2.587,6.28c0,0.792,0.149,1.613,1.313,2.61c-1.908-0.115-2.684-0.29-3.4-1.757
		c-3.184,6.254,5.879,5.63,2.782,11.176c-0.567-0.995-5.04-2.019-5.045-7.829c-0.004-5.017,4.464-7.956,4.462-10.04
		c0-0.409-0.148-0.761-0.536-1.084c-0.986-0.821-1.017-1.495-1.79-1.494c-0.567,0-1.253,1.292-0.536,2.434
		c0.24,0.382,0.448,0.617,0.449,0.969c0,0.82-1.31,3.022-2.232,3.023c-0.925,0-1.641-2.255-1.645-5.896
		c-0.003-3.228,0.738-6.485,1.663-6.486c0.268,0,0.357,0.176,0.358,0.411c0,0.382-0.118,1.144-0.117,2.434
		c0,1.38,0.33,1.498,0.598,1.498c1.012,0,0.798-6.105,2.438-6.106c0.387,0,0.507,0.381,0.508,0.85c0,1.38-0.684,3.405-0.683,4.52
		c0,0.558,0.15,0.734,0.419,0.734c0.716-0.001,1.961-6.723,3.183-6.724V37.773z	">
<animate  accumulate="none" additive="replace" attributeName="fill" begin="a.begin+4.6s" calcMode="linear" dur="1s" fill="remove" restart="always" values="#1F36C7;#FFC000;#1F36C7">
			</animate>
	</path>
	<path fill="#1F36C7" d="M169.553,52.707c0.263,1.486,0.872,2.259,2.18,2.744c2.583,0.94,2.933,2.37,2.935,3.887
		c0.002,2.575-1.824,5.779-6.526,5.783c-3.774,0.003-6.478-3.311-6.48-6.114c0-0.774,0.202-1.63,0.696-1.631
		c0.436,0,0.581,0.342,0.929,0.685c1.308,1.287,2.73,1.627,4.791,1.626c1.859-0.002,3.222-0.747,3.221-1.52
		c0-1.286-2.701-1.311-2.703-3.257C168.596,54.424,168.914,53.595,169.553,52.707L169.553,52.707z M172.607,59.455
		c-0.233,0-0.492,0.457-1.19,0.772c-0.995,0.45-1.392,0.373-1.391,1.375c0,0.372-0.087,0.856-0.087,1.113
		c0,0.344,0.06,0.545,0.465,0.544c1.046,0,2.698-1.746,2.697-3.234C173.101,59.625,172.868,59.455,172.607,59.455L172.607,59.455z
		 M166.144,39.213c1.54,0.828,2.672,2.23,2.673,3.372c0.002,1.974-2.086,2.89-2.085,4.12c0.001,1.43,2.236,1.658,2.238,3.43
		c0,1.457-2.117,3.147-2.115,5.035c0,1.458,1.048,2.657,2.644,2.856c-0.522,0.115-0.986,0.201-1.48,0.202
		c-2.932,0.002-5.953-2.367-5.956-5.2c0-1.4,0.608-2.63,1.535-3.517c0.814,0.686,1.627,1.142,2.15,1.141
		c0.465,0,0.668-0.228,0.667-0.571c0-1.06-4.27-2.027-4.272-4.287c-0.001-1.83,4.412-2.806,4.41-5.065
		C166.553,40.357,166.406,39.7,166.144,39.213L166.144,39.213z	">
<animate  accumulate="none" additive="replace" attributeName="fill" begin="a.begin+4.35s" calcMode="linear" dur="1s" fill="remove" restart="always" values="#1F36C7;#9C44C0;#1F36C7">
			</animate>
	</path>
	<path fill="#1F36C7" d="M210.328,52.167c1.462-0.001,2.633,1.894,2.635,4.113c0.002,2.362-1.107,4.93-3.087,6.682
		c-0.033-3.938-4.859-2.68-4.86-5.538c-0.002-1.225,0.875-2.044,1.928-2.045c0.936,0,1.667,0.262,2.194,0.788
		c-0.507-0.489-0.793-1.163-0.791-1.867C208.346,53.19,209.047,52.168,210.328,52.167L210.328,52.167z	">
<animate  accumulate="none" additive="replace" attributeName="fill" begin="a.begin+4.4s" calcMode="linear" dur="1s" fill="remove" restart="always" values="#1F36C7;#EB0000;#1F36C7">
			</animate>
	</path>
	<path fill="#1F36C7" d="M151.396,56.573c0.236-0.212,0.59-0.363,0.974-0.412c0.99-0.126,1.94,0.68,2.059,1.768
		c0.09,1.058-0.627,1.933-1.688,2.14c-0.109,0.021-0.252,0.036-0.252,0.036c0.088,0.212,0.146,0.395,0.177,0.695
		c0.119,1.118-0.617,1.996-1.7,2.141c-1.068,0.144-1.858-0.476-2.094-1.442c-0.236,0.152-0.59,0.26-0.972,0.303
		c-1.058,0.122-1.996-0.659-2.12-1.69c-0.141-1.173,0.79-2.062,1.647-2.194c0.12-0.017,0.293-0.044,0.293-0.044
		c-0.08-0.192-0.13-0.396-0.148-0.603c-0.103-1.13,0.573-2.02,1.595-2.196c1.133-0.194,1.963,0.593,2.23,1.497L151.396,56.573z
		 M150.156,57.901l-0.121,0.008c-0.615,0.074-1.053,0.646-0.981,1.277c0.07,0.63,0.628,1.081,1.242,1.007
		c0.614-0.074,1.053-0.643,0.98-1.274c-0.054-0.531-0.47-0.952-1-1.012L150.156,57.901z	">
<animate  accumulate="none" additive="replace" attributeName="fill" begin="a.begin+4.45s" calcMode="linear" dur="1s" fill="remove" restart="always" values="#1F36C7;#F752C7;#1F36C7">
			</animate>
	</path>
	<path fill="#1F36C7" d="M196.106,43.856c0.445,0,1.07,1.452,1.367,1.452c0.475,0,1.127-1.187,1.573-1.187
		c0.147,0,0.207,0.089,0.208,0.356c0,1.095-0.562,2.34-0.561,3.41c0,0.74,0.24,1.6,0.981,1.599c0.624,0,1.158-0.948,1.157-1.987
		c-0.001-1.186-0.21-2.105-0.21-2.58c0-0.207,0.088-0.295,0.207-0.295c0.446,0.029,0.862,1.244,1.338,1.243
		c0.535,0,1.33-0.98,1.655-0.98c0.09,0,0.119,0.118,0.119,0.147c0,0.446-0.682,1.426-0.681,1.81c0,0.326,1.723,0.384,1.723,0.68
		c0,0.446-1.805,0.448-2.665,0.834c-0.831,0.356-1.337,0.801-1.336,1.394c0,0.594,0.595,0.71,1.427,0.71
		c1.227-0.001,2.229-0.41,2.92-0.723l0.295-0.135c0.274-0.125,0.478-0.212,0.605-0.212c0.09,0,0.148,0.059,0.149,0.148
		c0,0.297-1.008,1.275-1.008,1.72c0,0.504,1.843,1.094,1.813,1.391c-0.03,0.089-0.149,0.119-0.356,0.119
		c-0.328,0-0.831-0.088-1.218-0.088c-0.237,0-0.445,0.03-0.535,0.148c-0.205,0.239,0.061,1.81-0.352,1.81
		c-0.386,0-1.4-3.497-3.679-3.495c-0.327,0-0.563,0.267-0.563,0.713c0,1.184,1.16,2.547,2.26,3.198
		c0.498,0.327,1.33,0.652,1.33,0.83c0,0.355-1.894,0.032-1.894,0.624c0.001,0.534,0.24,1.336,0.24,1.808
		c0,0.149-0.03,0.326-0.208,0.326c-0.356,0-1.22-1.628-1.635-1.628c-0.148,0-0.369,0.17-0.599,0.368l-0.277,0.242
		c-0.229,0.199-0.442,0.368-0.58,0.369c-0.087,0-0.146-0.089-0.147-0.177c0-0.682,1.097-2.225,1.096-3.737
		c0-0.712-0.091-2.253-0.954-2.252c-0.711,0-1.513,1.127-1.868,2.255c-0.078,0.244-0.105,0.752-0.134,1.29l-0.02,0.361
		c-0.046,0.782-0.12,1.521-0.378,1.522c-0.445,0-0.328-1.69-0.922-1.69c-0.438,0.001-1.388,0.801-1.715,0.802
		c-0.06,0-0.119-0.03-0.119-0.089c0-0.355,0.86-1.513,0.86-1.75c0-0.444-1.96-0.5-1.96-0.857c0-0.209,0.771-0.357,1.483-0.477
		c1.509-0.268,3.735-1.366,3.734-2.907c-0.002-1.72-1.666-2.46-2.759-3.171c-0.565-0.356-1.188-0.65-1.189-0.887
		c0-0.238,0.714-0.239,1.01-0.239c0.445,0,0.885-0.03,0.884-0.386c0-0.268-0.06-0.8-0.061-1.215
		C195.957,44.094,195.987,43.856,196.106,43.856L196.106,43.856z M184.532,39.213c0.146,1.111,0.885,1.483,1.667,1.815l0.314,0.131
		c0.887,0.378,1.734,0.821,1.736,2.348c0,0.445-0.118,1.098-0.118,1.66c0,0.654,0.06,1.217,0.56,1.216
		c0.503,0,0.623-0.355,0.622-0.83c0-0.476-0.12-1.068-0.12-1.394c-0.002-1.038,0.74-1.275,1.187-1.275
		c1.128-0.001,1.99,1.154,3.683,1.152c-0.161,0.796-0.944,1.17-1.8,1.49l-0.596,0.216c-0.99,0.361-1.908,0.762-1.907,1.767
		c0.001,1.039,1.04,1.273,1.724,1.273c0.624,0,0.832-0.09,0.831-0.622c0-0.297-0.06-0.623-0.06-0.831
		c0-0.119,0.09-0.238,0.238-0.238c0.653,0,3.855,2.428,3.856,3.17c0,0.68-3.378,1.366-4.358,1.366c-0.296,0-0.356-0.207-0.356-0.325
		c0-0.207,0.503-0.83,0.503-1.186c0-0.267-0.445-0.444-1.634-0.443c-0.564,0-0.98,0.06-0.98,0.506
		c0.001,0.798,1.31,1.776,1.31,2.517c0.001,0.593-0.355,0.95-1.306,0.95c-0.802,0-2.014-0.622-2.015-1.659
		c0-0.83,0.854-1.66,0.854-2.164c0-0.149-0.113-0.385-0.47-0.385c-1.099,0-1.393,2.905-5.281,3.235
		c0.623-0.563,1.156-1.186,1.155-2.46c0-0.623-0.148-1.128-0.15-1.808c0-0.89,0.414-1.336,1.008-1.337
		c1.097,0,1.632,1.54,2.347,1.54c0.387,0,0.801-0.355,0.8-0.89c-0.001-2.253-4.335-1.923-4.338-5.095
		C183.438,41.763,183.732,40.696,184.532,39.213z	">
<animate  accumulate="none" additive="replace" attributeName="fill" begin="a.begin+4.5s" calcMode="linear" dur="1s" fill="remove" restart="always" values="#1F36C7;#00D7C4;#1F36C7">
			</animate>
	</path>
	<path fill="#1F36C7" d="M154.973,39.213c-0.614,1.058-0.759,2.438-0.758,3.29c0.005,4.995,5.999,9.66,6.002,12.744
		c0,1.263-0.903,2.676-2.568,2.677c-1.211,0.033-2.219-0.922-2.252-2.133c0-0.003,0-0.007,0-0.01c0-0.764,0.526-1.353,0.7-1.353
		c0.087,0,0.116,0.059,0.116,0.264c0,0.412,0.323,0.941,0.996,0.94c0.614,0,1.021-0.442,1.02-1
		c-0.001-2.437-4.943-6.693-4.948-12.539c-0.263,0.647-0.584,1.469-0.583,2.704c0.003,2.82,2.05,5.757,2.053,8.399
		c0.001,1.087-0.844,2.057-1.897,2.058c-1.227,0-1.666-0.967-1.667-1.584c0-0.412,0.175-0.794,0.292-0.794
		c0.146,0,0.088,0.617,0.76,0.616c0.7,0,0.964-0.5,0.963-1.41c-0.002-2.438-1.406-4.17-1.408-6.698c0-0.38,0-0.792,0.086-1.174
		c-0.76,0.912-0.846,2.204-0.845,3.35l0.003,2.997c0.002,2.024-1.02,2.937-2.248,2.939c-0.788,0-1.578-0.617-1.58-1.703
		c0-0.147,0.088-0.675,0.264-0.676c0.234,0,0.41,0.616,1.082,0.616c1.286-0.001,1.372-1.263,1.37-3.79
		C149.924,45.035,151.118,41.713,154.973,39.213z	">
<animate  accumulate="none" additive="replace" attributeName="fill" begin="a.begin+4.55s" calcMode="linear" dur="1s" fill="remove" restart="always" values="#1F36C7;#CF98D9;#1F36C7">
			</animate>
	</path>
	<path fill="#1F36C7" d="M196.402,27.698c0.145,0,0.758,0.768,2.739,0.766c1.02,0,1.951-0.267,3.437-0.269
		c3.487-0.003,5.034,2.448,7.193,5.574c1.305,0.825,4.423,2.152,4.426,5.902c0.003,3.307-3.462,5.142-4.297,8.685
		c0.571-0.063,1.042-0.544,1.501-1.074l0.305-0.356c0.51-0.592,1.03-1.142,1.68-1.142c0.7-0.001,1.021,0.56,1.022,1.447
		c0.001,1.299-0.726,3.249-2.123,4.46c0.03-0.118,0.03-0.266,0.03-0.443c-0.002-0.827-0.323-2.006-1.256-2.005
		c-1.45,0.001-1.914,1.595-2.729,2.924c-0.847-3.01-1.986-5.727-4.024-7.378c-2.063-1.681-5.617-0.764-5.62-3.834
		c0-0.828,0.523-2.009,0.522-2.954c0-0.324-0.059-0.62-0.235-0.856c2.799,1.062,1.81,2.95,3.531,4.898
		c1.072,1.24,4.043,2.419,5.766,7.525c0.029-0.147,0.057-0.53,0.057-0.796c-0.004-4.37-5.709-8.648-6.205-10.42
		c3.312,0.381,3.895,1.209,5.473,5.635c0.32,0.917,1.372,3.19,1.373,4.311c0.465-1.476,1.047-2.511,2-4.106l-0.237-0.12l-0.43-0.217
		c-1.14-0.58-2.824-1.548-2.825-2.967c-0.002-2.038,2.5-3.635,3.02-3.635c0.232,0,0.291,0.206,0.292,0.59
		c0,1.063-0.493,2.776-0.493,3.692c0.001,0.826,0.527,1.624,0.992,1.623c0.496,0,1.863-1.773,1.861-3.516
		c-0.003-3.13-2.712-4.072-3.55-4.071c-0.787,0-2.213,1.3-5.562,1.303c-6.256,0.006-7.69-6.28-7.692-9.028
		C196.344,27.728,196.373,27.698,196.402,27.698L196.402,27.698z M203.098,29.789c-0.117,0-0.256,0.089-0.256,0.444
		c0,0.325,0.06,0.532,0.06,0.914c0,0.385-0.088,0.65-0.437,0.65c-0.786,0.002-1.487-1.858-2.157-1.857
		c-0.146,0-0.291,0.089-0.29,0.236c0,0.355,0.582,1.003,0.582,1.328c0,0.316-0.373,0.415-0.789,0.48l-0.314,0.045
		c-0.415,0.06-0.79,0.13-0.789,0.393c0,0.266,0.261,0.353,0.611,0.353c0.613,0,1.574-0.266,2.069-0.266
		c0.291,0,0.729,0.058,0.729,0.44c0,0.414-1.048,0.946-1.048,1.33c0,0.178,0.176,0.264,0.32,0.264c0.787,0,2.178-1.388,3.168-1.389
		c0.175,0,0.61,0.088,0.61,0.354c0.001,0.383-0.987,1.063-0.987,1.624c0,0.148,0.089,0.325,0.263,0.325
		c0.522,0,1.22-1.388,2.21-1.39c0.38,0,0.933,0.147,1.225,0.147c0.233,0,0.32-0.148,0.32-0.237c0-0.62-1.546-0.677-1.692-2.42
		c-0.03-0.265-0.117-0.736-0.439-0.736c-0.523,0-0.114,1.624-0.697,1.624C204.032,32.447,203.593,29.789,203.098,29.789
		L203.098,29.789z	">
<animate  accumulate="none" additive="replace" attributeName="fill" begin="a.begin+4.65s" calcMode="linear" dur="1s" fill="remove" restart="always" values="#1F36C7;#00D7C4;#1F36C7">
			</animate>
	</path>
	<path fill="#1F36C7" d="M160.601,31.297c0.71,0,2.039,1.237,2.395,2.503c-0.148-0.028-0.296-0.057-0.444-0.057
		c-0.945,0-1.474,0.922-2.241,2.477c1.71-1.126,3.304-2.047,5.105-2.049c1.535,0,2.747,0.918,2.749,2.33
		c0,0.603-0.295,1.266-0.678,1.84c-0.238-1.294-1.33-1.867-3.22-1.866c-1.092,0.001-2.392,0.202-3.424,0.578
		c3.337,0.458,3.84,1.638,3.84,2.703c0.002,1.814-1.857,2.707-3.097,3.314c0.13-0.538,0.198-1.088,0.205-1.641
		c0-1.095-0.414-2.332-2.1-3.539c-0.263,1.18-1.206,1.9-1.206,2.82c0,0.347,0.236,0.461,0.413,0.461
		c0,0.519-0.234,1.987-0.234,2.362c0,0.776,0.178,0.92,0.562,1.006c0.238,0.662,0.246,1.773,0.408,2.368
		c0.094,0.34,0.361,0.424,0.569,0.424c0.236,0.575,0.533,1.439,1.095,1.84c0.116,0.086,0.264,0.288,0.264,0.46
		c0,0.519-0.795,1.096-1.297,1.097c-0.148,0-0.403-0.09-0.63-0.62c-0.186-0.437-1.615-1.307-1.704-1.826
		c0.088-0.087,0.147-0.26,0.147-0.46c0-0.806-1.3-1.727-1.301-2.992c0.147-0.058,0.295-0.29,0.295-0.549
		c-0.001-0.718-0.77-2.13-0.771-3.078c0.324,0,0.502-0.03,0.53-0.49c0.059-0.95,0.264-2.362,1.178-3.167
		c-0.274-0.039-0.55-0.058-0.826-0.057c-1.771,0-4.516,1.01-5.547,3.257c-0.056-0.313-0.087-0.631-0.09-0.949
		c-0.002-1.872,1.148-3.111,2.005-3.485c0.442-0.202,0.973-0.26,1.565-0.26c0.943-0.001,2.066,0.2,3.217,0.4
		c-1.004-1.295-2.54-2.244-3.81-2.242c-0.59,0-1.063,0.202-1.21,0.69c-0.06-0.323-0.09-0.65-0.09-0.978
		c0-1.409,0.472-2.216,1.711-2.217c1.83-0.002,3.397,2.128,4.343,4.112C159.275,32.797,159.332,31.298,160.601,31.297
		L160.601,31.297z	">
<animate  accumulate="none" additive="replace" attributeName="fill" begin="a.begin+4.75s" calcMode="linear" dur="1s" fill="remove" restart="always" values="#1F36C7;#00D7C4;#1F36C7">
			</animate>
	</path>
	<path fill="#1F36C7" d="M195.801,40.66c0.649,0,1.15,0.48,1.151,1.046c0,0.65-0.5,1.105-1.15,1.105
		c-0.609,0.006-1.108-0.483-1.114-1.092c0-0.004,0-0.008,0-0.012C194.688,41.142,195.218,40.66,195.801,40.66L195.801,40.66z
		 M192.091,38.653c1.12,0,2.035,0.877,2.036,1.951c0,1.075-0.913,1.954-2.033,1.955c-1.12,0.001-2.035-0.876-2.036-1.951
		c-0.001-1.075,0.911-1.954,2.032-1.955H192.091z M188.461,37.751c0.649,0,1.18,0.508,1.181,1.131c0,0.623-0.53,1.132-1.179,1.132
		c-0.642,0-1.173-0.507-1.174-1.13C187.289,38.261,187.819,37.752,188.461,37.751z M195.68,36.867c0.766,0,1.386,0.594,1.387,1.328
		c0,0.737-0.618,1.332-1.385,1.333c-0.76,0.001-1.38-0.593-1.381-1.33C194.301,37.463,194.919,36.868,195.68,36.867L195.68,36.867z
		 M185.016,35.377c0.913-0.002,1.68,0.734,1.681,1.61c0,0.88-0.765,1.614-1.678,1.615c-0.914,0.001-1.68-0.733-1.68-1.611
		C183.337,36.114,184.102,35.377,185.016,35.377L185.016,35.377z M192.323,35.483c0.648,0,1.179,0.509,1.18,1.131
		c0,0.623-0.53,1.134-1.178,1.134c-0.65,0-1.18-0.509-1.18-1.132C191.144,35.994,191.674,35.484,192.323,35.483z M188.84,33.449
		c1.003,0,1.801,0.762,1.802,1.724c0.001,0.964-0.796,1.727-1.798,1.728c-0.996,0-1.793-0.761-1.794-1.725
		C187.049,34.215,187.845,33.45,188.84,33.449L188.84,33.449z M192.2,30.447c1.032-0.001,1.888,0.818,1.889,1.81
		c0,0.99-0.853,1.81-1.886,1.811c-1.031,0.001-1.887-0.819-1.888-1.808C190.314,31.268,191.168,30.448,192.2,30.447z
		 M188.307,30.422c0.62,0,1.122,0.48,1.122,1.073c0,0.596-0.5,1.078-1.12,1.078c-0.613,0-1.114-0.48-1.114-1.076
		C187.194,30.904,187.695,30.422,188.307,30.422z M195.44,33.443c0.678,0,1.24,0.537,1.24,1.186c0,0.653-0.56,1.191-1.238,1.192
		c-0.67,0-1.233-0.537-1.233-1.19c0-0.65,0.56-1.187,1.23-1.188L195.44,33.443z M185.512,31.867c0.65,0,1.18,0.51,1.181,1.13
		c0.001,0.623-0.529,1.134-1.179,1.134c-0.646,0.001-1.178-0.509-1.179-1.13C184.335,32.378,184.865,31.867,185.512,31.867z
		 M193.642,27.698c0.62,0,1.122,0.482,1.123,1.076c0,0.593-0.502,1.076-1.12,1.076c-0.62,0-1.121-0.48-1.122-1.074
		c0-0.594,0.5-1.077,1.12-1.078H193.642z	">
<animate  accumulate="none" additive="replace" attributeName="fill" begin="a.begin+4.7s" calcMode="linear" dur="1s" fill="remove" restart="always" values="#1F36C7;#FFA91F;#1F36C7">
			</animate>
	</path>
	<path fill="#1F36C7" d="M137.817,35.95c0.917,1.34,1.77,1.747,2.868,1.746c0.822,0,1.737-0.176,2.926-0.44
		c-1.553,1.284-2.864,1.956-3.839,1.957C138.522,39.214,137.82,38.164,137.817,35.95L137.817,35.95z M146.352,32.938
		c-0.122,0.35-0.213,0.73-0.213,1.342c0.001,0.875,0.307,1.75,1.161,2.535c-0.244,0.176-0.639,0.292-1.188,0.293
		c-1.069,0.001-1.922-0.67-1.923-1.719c-0.001-1.457,1.46-2.275,2.163-2.45L146.352,32.938z M148.88,30.517
		c1.526,0.435,3.386,1.805,3.389,3.758c0,1.253-0.7,2.478-2.194,2.48c-1.555,0-2.563-1.31-2.564-2.884
		C147.509,32.56,148.21,31.275,148.88,30.517L148.88,30.517z M138.883,33.353c0.732,0.962,1.951,1.25,3.08,1.25
		c0.365,0,0.762-0.03,1.096-0.088c-0.79,0.963-1.676,1.402-2.437,1.403c-1.006,0-1.768-0.757-1.769-2.128
		C138.853,33.645,138.853,33.5,138.883,33.353z M144.972,25.796c0.243,0,0.487,0.01,0.67,0.028c0.55,0.058,0.988,0.067,1.129,0.204
		c0.248,0.237,0.1,0.687,0.49,1.194c0.388,0.51,0.854,0.437,0.855,0.992c0,0.438-0.852,3.033-3.046,4.086
		c-1.036,0.494-1.86,0.7-2.56,0.7c-1.19,0.001-2.013-0.493-2.744-0.492c-0.123,0-0.275,0.059-0.52,0.059
		c-0.272,0-0.578-0.291-0.578-0.554c0-0.113,0.031-0.225,0.091-0.321c0.425-0.672,0.033-3.343,2.677-4.96
		C142.774,25.916,143.966,25.797,144.972,25.796L144.972,25.796z M141.803,28.044c-0.335,0-0.791,0.73-0.79,1.313
		c0,1.08,1.099,2.274,2.104,2.273c0.55,0,1.13-0.293,1.129-0.498c0-0.058-0.06-0.087-0.153-0.145
		c-0.915-0.406-1.892-1.223-2.076-2.65C141.986,28.132,141.925,28.044,141.803,28.044z M144.851,26.789
		c-0.457,0-0.792,0.058-0.791,0.611c0,0.876,0.855,2.42,1.923,2.42c0.488,0,0.731-0.527,0.731-0.934
		c0-0.102-0.146-0.237-0.318-0.382l-0.211-0.176c-0.097-0.077-0.185-0.163-0.265-0.258c-0.337-0.438-0.337-1.02-0.611-1.165
		C145.172,26.819,145.012,26.778,144.851,26.789L144.851,26.789z M150.249,26.404c0.67,0,1.22,0.524,1.22,1.165
		c0,0.642-0.548,1.168-1.218,1.168c-0.671,0.001-1.221-0.524-1.222-1.166C149.029,26.931,149.577,26.405,150.249,26.404z
		 M148.659,23.78c0.672,0,1.221,0.525,1.222,1.167c0,0.64-0.548,1.166-1.22,1.167c-0.67,0-1.219-0.525-1.22-1.165
		C147.441,24.307,147.989,23.781,148.659,23.78z M139.633,21.02c-0.031,0.175-0.031,0.32-0.03,0.495c0,1.662,0.978,2.915,2.747,3.41
		l-0.036,0.024c-0.175,0.117-0.977,0.616-1.946,0.617c-1.309,0.001-2.348-0.93-2.35-2.242c0-0.904,0.487-1.837,1.615-2.305V21.02z
		 M143.227,19.062c2.074-0.001,2.748,2.127,2.749,3.526c0,0.642-0.121,1.224-0.273,1.692c-2.104,0.001-4.515-0.93-4.517-3.233
		C141.186,19.967,142.039,19.063,143.227,19.062z	">
<animate  accumulate="none" additive="replace" attributeName="fill" begin="a.begin+4.8s" calcMode="linear" dur="1s" fill="remove" restart="always" values="#1F36C7;#FFE300;#1F36C7">
			</animate>
	</path>
	<path fill="#1F36C7" d="M212.964,23.486c0.8,0.282,0.718,1.496,0.72,3.046v0.24c-0.014,2.664-0.291,5.901-0.989,5.963
		c-1.076,0.086-5.049-3.52-5.411-6.197C208.362,26.649,211.695,26.111,212.964,23.486z M211.414,19.062
		c1.13,0.14,1.574,0.93,1.575,1.888c0.002,2.058-2.62,4.4-5.486,4.403c-1.075,0.001-1.821-0.336-1.822-1.126
		c0-0.339,0.276-0.986,1.186-0.987c2.514-0.002,4.824-1.724,4.823-3.276c0-0.45-0.083-0.648-0.277-0.902H211.414z M209.709,19.12
		c0.6,0,0.794,0.395,0.794,0.788c0.001,1.242-2.449,2.259-3.609,2.26c-0.386,0-0.938,0-1.243-0.618
		c-0.25-0.508-0.167-1.326-0.636-1.692c0.47,0.14,0.966,0.14,1.352,0.139C207.611,19.996,208.797,19.121,209.709,19.12
		L209.709,19.12z	">
<animate  accumulate="none" additive="replace" attributeName="fill" begin="a.begin+4.85s" calcMode="linear" dur="1s" fill="remove" restart="always" values="#1F36C7;#F752C7;#1F36C7">
			</animate>
	</path>
	<path fill="#1F36C7" d="M159.007,20.502c2.256-0.002,3.456,2.028,3.458,4.292c0,0.318-0.029,0.666-0.086,0.986
		c0.97-1.626,2.31-2.874,3.766-2.876c1.883-0.002,2.74,1.651,2.742,3.509c0.001,0.81-0.225,2.002-0.596,2.003
		c-0.372,0-0.315-0.668-0.373-1.278c-0.057-0.783-0.2-0.957-0.458-0.957c-0.485,0-0.797,1.162-0.796,2.236
		c0,0.666,0.115,1.421,0.628,1.42c0.285,0,0.542-0.145,0.714-0.32c-0.113,1.335-1.084,2.498-2.453,2.5
		c-2.511,0.002-3.456-2.987-3.743-4.728c-1.51,1.626-2.907,2.818-5.42,2.82c-2.339,0.002-3.398-1.738-3.399-3.391
		c0-0.494,0.17-1.77,0.77-1.77c0.712-0.002,0.088,2.377,1.486,2.376c0.343,0,0.97-0.292,1.311-1.248
		c0.2-0.581,0.314-1.19,0.313-1.713c0-0.784-0.173-1.276-0.742-1.275c-0.487,0-1.086,0.377-1.285,0.58
		C155.528,21.578,157.182,20.503,159.007,20.502L159.007,20.502z M165.975,24.79c-0.6,0-1.595,2.874-1.594,4.44
		c0,0.61,0.144,0.872,0.315,0.872c0.713-0.001,1.51-2.788,1.508-4.529C166.204,25.195,166.146,24.79,165.975,24.79L165.975,24.79z
		 M159.495,21.865c-0.885,0-2.107,5.08-2.106,6.212c0,0.203,0.057,0.436,0.314,0.435c0.97,0,2.077-5.34,2.076-6.24
		c0-0.233-0.085-0.407-0.285-0.407H159.495z M163.721,25.721c-0.286,0-0.598,0.349-1.055,1.133c0.059,1.044,0.23,1.509,0.515,1.508
		c0.313,0,0.77-1.017,0.769-2.032c-0.001-0.494-0.115-0.61-0.23-0.61L163.721,25.721z M160.981,23.953
		c-0.858,0-1.283,2.323-1.282,2.933c0,0.346,0.17,0.637,0.341,0.637c0.314,0,0.714-0.35,1.456-1.19
		c0.057-0.378,0.057-0.727,0.056-1.163c0-0.579-0.23-1.217-0.572-1.217L160.981,23.953z	">
<animate  accumulate="none" additive="replace" attributeName="fill" begin="a.begin+4.95s" calcMode="linear" dur="1s" fill="remove" restart="always" values="#1F36C7;#E60067;#1F36C7">
			</animate>
	</path>
	<path fill="#1F36C7" d="M191.469,22.892c0.34,0.47,0.54,1.444,0.54,1.886c0.003,3.214-2.259,4.454-4.344,4.456
		c-1.358,0.001-2.038-0.47-2.208-0.47c-0.535,0-0.506,1.122-0.873,1.093c-0.65-0.117-1.244-1.62-1.246-3.213
		c0-0.944,0.225-1.947,0.731-2.684c0.736,0.736,1.385,1.06,2.177,1.059c0.312,0,0.68-0.089,0.878-0.089
		c0.254,0,0.424,0.117,0.424,0.323c0,0.325-0.282,0.856-0.621,1.152c0.339,0.147,0.707,0.206,1.103,0.206
		c1.605-0.002,3.442-1.067,3.44-3.72L191.469,22.892z M187.317,19.062c1.803-0.001,2.51,1,2.765,1c0.282,0,0.565-0.296,0.792-0.297
		c0.31,0,0.31,0.502,0.311,0.857c0,1.178-0.506,3.213-1.778,3.952c-0.29-0.622-0.789-1.122-1.41-1.414
		c-0.175-0.076-0.287-0.25-0.282-0.441c0-0.325,0.282-0.74,0.616-0.917c-0.226-0.383-1.07-0.587-1.464-0.586
		c-1.246,0-2.092,0.915-2.261,1.741c-0.126-0.32-0.194-0.659-0.2-1.003C184.406,20.658,185.252,19.064,187.317,19.062
		L187.317,19.062z	">
<animate  accumulate="none" additive="replace" attributeName="fill" begin="a.begin+4.9s" calcMode="linear" dur="1s" fill="remove" restart="always" values="#1F36C7;#47C8FF;#1F36C7">
			</animate>
	</path>
	<path fill="#1F36C7" d="M198.401,19.063c0.436-0.001,0.632,0.23,0.792,0.489l0.132,0.224c0.154,0.26,0.33,0.49,0.729,0.49
		c0.71-0.002,1.622-0.635,2.164-0.636c0.847,0,2.073,2.83,2.075,4.155c0,1.536-2.184,2.471-4.775,2.474
		c-3.78,0.004-6.062-3.487-6.064-5.747c0-0.18,0.086-0.24,0.17-0.3c0.362-0.257,1.965,0.148,4.038-0.94
		c0.224-0.134,0.478-0.206,0.739-0.21L198.401,19.063z M196.524,21.895c-0.114,0-0.17,0.06-0.17,0.15
		c0,0.784,1.368,1.987,3.475,1.985c1.253-0.001,2.192-0.605,2.192-0.967c0-0.118-0.172-0.21-0.542-0.209
		c-0.37,0-1.11-0.029-2.506-0.268C197.777,22.376,196.866,21.895,196.524,21.895z	">
<animate  accumulate="none" additive="replace" attributeName="fill" begin="a.begin+5s" calcMode="linear" dur="1s" fill="remove" restart="always" values="#1F36C7;#EB0000;#1F36C7">
			</animate>
	</path>
	<path fill="#1F36C7" d="M146.631,5.898c0.001,0.968-3.185,1.94-3.184,2.88c0,0.521,0.973,0.657,2.01,0.753l0.447,0.04
		c1.037,0.09,2.01,0.19,2.01,0.643c0,0.46-0.69,1.185-1.433,1.9l-0.373,0.356c-0.744,0.705-1.434,1.356-1.434,1.681
		c0,0.118,0.15,0.176,0.268,0.176c0.773,0,2.796-1.47,3.72-1.472c0.355,0,0.475,0.235,0.475,0.647
		c0.001,0.822-0.503,2.202-0.502,3.053c0,0.206,0.06,0.441,0.297,0.44c0.655,0,1.696-2.79,2.617-2.792
		c0.374,0,0.432,0.844,0.459,1.775l0.012,0.433c0.026,1.013,0.07,1.992,0.487,1.991c0.742,0,0.888-3.818,1.663-3.819
		c0.743,0,1.102,2.143,1.877,2.142c0.3,0,0.349-0.35,0.354-0.935l0.001-0.151l-0.001-0.999c0-0.646,0.029-1.086,0.356-1.086
		c0.894,0,3.424,2.932,3.96,2.931c0.12,0,0.15-0.117,0.15-0.206c0-0.791-1.7-3.462-1.702-4.87c0-0.472,0.179-0.795,0.655-0.795
		c1.041-0.002,3.245,1.202,4.256,1.201c0.328,0,0.537-0.118,0.536-0.442c0-1.203-3.634-3.638-3.635-4.637
		c0-0.97,4.046-1.971,6.813-1.973c0.358,0,1.073-0.001,1.073,0.38c0,0.392-0.985,0.756-2.027,1.141l-0.418,0.155
		c-0.763,0.288-1.49,0.59-1.815,0.928c-0.109,0.113-0.178,0.239-0.173,0.365c0.054,1.38,4.887,4.576,4.889,6.339
		c0,0.382-0.328,0.675-0.864,0.676c-1.607,0.001-5.002-1.581-6.163-1.58c-0.328,0-0.416,0.089-0.415,0.382
		c0,0.536,0.508,1.625,1.037,2.786l0.263,0.584c0.478,1.073,0.905,2.138,0.906,2.823c0,0.412-0.148,0.735-0.563,0.736
		c-1.34,0.001-4.32-3.52-5.36-3.52c-0.437,0-0.585,0.624-0.704,1.299l-0.063,0.37c-0.117,0.675-0.25,1.298-0.66,1.298
		c-0.312,0-0.607-0.325-0.906-0.692l-0.257-0.317c-0.302-0.367-0.613-0.692-0.952-0.692c-0.773,0-1.274,5.875-2.493,5.876
		c-1.43,0.001-0.87-5.432-1.821-5.432c-0.745,0-1.755,1.852-2.856,1.853c-0.595,0-0.774-0.47-0.774-1.144
		c-0.001-0.852,0.266-2.026,0.265-2.79c0-0.412-0.03-0.881-0.418-0.88c-1.103,0-5.116,2.91-6.664,2.912
		c-0.326,0-0.565-0.147-0.565-0.47c-0.002-1.439,5.082-5.76,5.082-6.757c0-0.43-1.292-0.473-2.66-0.491l-0.514-0.006
		c-1.368-0.017-2.66-0.053-2.66-0.468c-0.001-0.998,4.135-2.734,4.134-3.381c0-0.675-3.99-0.906-3.99-1.67
		c0-0.5,0.951-0.705,2.708-0.707C142.85,4.668,146.631,5.045,146.631,5.898L146.631,5.898z M164.169,15.22
		c0.834,0,4.617,2.933,5.154,3.667c0.118,0.176,0.177,0.411,0.178,0.644c0,0.883-0.444,1.91-1.04,1.911
		c-0.715,0-4.44-5.018-4.44-6.045C164.021,15.309,164.079,15.22,164.169,15.22z M141.249,12.07c0.416,0,0.892,0.086,0.892,0.321
		c0.001,0.588-2.258,2.557-3.061,2.557c-0.297,0-0.387-0.35-0.388-0.674c0-0.586,0.267-1.41,0.594-1.675
		C139.672,12.247,140.565,12.071,141.249,12.07L141.249,12.07z M150.826,4.865c1.964-0.002,1.58,1.645,3.128,1.643
		c1.488-0.001,1.218-1.588,3.152-1.59c1.22-0.001,2.113,0.175,2.114,0.351c0,0.411-1.457,0.413-1.456,1.324
		c0,0.91,2.648,1.671,2.649,2.375c0,0.206-0.178,0.265-0.357,0.265c-0.505,0-1.428-0.41-2.112-0.41
		c-0.476,0.001-0.833,0.236-0.833,0.736c0,0.822,0.895,2.085,0.896,2.7c0,0.206-0.148,0.353-0.327,0.353
		c-0.715,0.001-1.49-2.26-2.533-2.259c-1.28,0.001-0.89,3.262-1.783,3.262c-0.862,0.001,0.176-3.318-1.401-3.317
		c-0.953,0.001-1.963,1.5-2.56,1.501c-0.148,0-0.297-0.059-0.297-0.236c0-0.587,1.606-1.91,1.606-2.645
		c0-0.382-0.388-0.469-0.805-0.468c-0.744,0-1.785,0.295-2.44,0.295c-0.299,0-0.535-0.088-0.535-0.292
		c-0.001-0.617,3.004-0.914,3.003-1.941c0-0.97-1.399-0.822-1.4-1.175C148.535,5.073,149.635,4.867,150.826,4.865L150.826,4.865z
		 M169.61,8.549c0,0.705-0.148,1.382-0.653,1.382c-0.863,0-2.74-1.144-2.74-1.672c0-0.352,1.25-0.618,2.231-0.619
		C169.223,7.64,169.609,7.669,169.61,8.549z	">
<animate  accumulate="none" additive="replace" attributeName="fill" begin="a.begin+5.15s" calcMode="linear" dur="1s" fill="remove" restart="always" values="#1F36C7;#FFE300;#1F36C7">
			</animate>
	</path>
	<path fill="#1F36C7" d="M211.042,5.389c0.977-0.001,1.207,0.434,2.644,0.432c-0.776,0.468-1.062,1.313-1.061,1.719
		c0,1.223,0.777,2.065,0.78,4.568c0.004,4.596-4.24,6.23-9.437,6.235c-1.489-0.002-2.976-0.117-4.447-0.344
		c-0.229-0.029-0.286-0.087-0.286-0.233c-0.001-0.379,2.039-0.584,2.037-2.446c0-0.728-0.232-1.425-0.232-1.687
		c-0.002-0.127,0.099-0.232,0.226-0.234c0.001,0,0.003,0,0.004,0c0.43,0,1.295,1.687,2.897,1.686c0.427,0,1.49-0.147,1.49-1.486
		c-0.002-2.066-4.878-2.586-4.878-3.05c0-0.379,2.722-1.022,4.127-1.052c-2.154-2.791-5.221-2.498-5.221-2.992
		c0-0.292,2.295-0.877,4.416-0.878c1.778-0.002,3.444,0.404,3.445,1.772c0.001,0.757-0.601,1.544-0.6,2.707
		c0,0.64,0.315,1.193,1.15,1.192c0.89,0,1.09-0.96,1.09-1.98c-0.001-0.843-0.146-1.484-0.146-1.892
		C209.039,6.205,209.865,5.39,211.042,5.389z M210.502,10.657c0.002,2.589-1.857,4.569-5.218,5.125
		c0.374,0.028,0.72,0.028,1.064,0.027c3.928-0.003,5.363-1.808,5.362-3.32C211.71,11.644,211.249,10.889,210.502,10.657z
		 M211.043,6.436c-0.395,0-0.716,0.32-0.716,0.716c0,0.004,0,0.009,0,0.013c0,0.406,0.316,0.726,0.718,0.725
		c0.402,0,0.718-0.32,0.718-0.726c0.006-0.396-0.31-0.722-0.706-0.728C211.052,6.436,211.047,6.436,211.043,6.436z	">
<animate  accumulate="none" additive="replace" attributeName="fill" begin="a.begin+5.05s" calcMode="linear" dur="1s" fill="remove" restart="always" values="#1F36C7;#00D7C4;#1F36C7">
			</animate>
	</path>
	<path fill="#1F36C7" d="M187.542,4.706c0.358,0,1.074,1.156,1.543,1.127c0.774,0,2.233-0.957,4.226-0.959
		c4.191-0.004,7.23,2.455,7.234,6.653c0.004,4.341-3.387,6.806-6.983,6.81c-2.53,0.001-4.05-1.532-4.615-1.532
		c-0.382,0-0.944,1.333-1.301,1.333c-0.15,0-0.21-0.028-0.269-0.376c-0.09-0.665-0.181-1.795-0.659-1.795
		c-0.417,0-2.11,1.885-2.675,1.885c-0.118,0-0.148,0-0.148-0.145c0-0.578,1.484-2.606,1.483-3.214c0-0.607-2.022-0.259-2.023-0.75
		c0-0.609,2.022-1.248,2.02-2.058c0-0.81-1.933-0.925-1.934-1.561c0-0.348,1.813-0.842,1.813-1.364c0-0.52-1.846-2.545-1.846-3.212
		c0-0.385,0.786,0.002,1.63,0.447l0.317,0.169c0.634,0.336,1.248,0.655,1.535,0.655c0.357,0,0.356-1.013,0.356-1.332
		C187.246,4.994,187.394,4.707,187.542,4.706L187.542,4.706z M193.283,6.236c-1.816,0-2.976,0.725-2.976,1.391
		c0,0.406,0.358,0.463,0.656,0.463c0.318,0,0.872-0.157,1.361-0.304l0.35-0.105l0.131-0.039c0.211-0.061,0.375-0.104,0.45-0.104
		c0.207,0,0.327,0.057,0.327,0.202c0,0.32-0.625,1.014-0.624,1.42c0,0.55,3.269,0.141,3.27,0.721c0,0.549-2.405,1.073-2.405,1.42
		c0,0.377,1.936,1.62,1.937,2.257c0,0.117-0.058,0.233-0.266,0.233c-0.626,0-1.817-0.317-2.62-0.317
		c-0.179,0-0.268,0.087-0.268,0.203c0,0.433,0.507,1.3,0.507,1.823c0,0.174-0.089,0.23-0.208,0.23c-0.477,0-1.906-0.981-2.56-0.98
		c-0.24,0-0.417,0.173-0.417,0.433c0,0.523,1.37,1.534,3.454,1.532c1.607-0.001,4.607-1.045,4.603-5.214
		c-0.003-3.3-1.761-5.268-4.702-5.266V6.236z M188.642,8.353c-0.292,0-0.35,1.622-0.737,1.622c-0.447,0-1.013-0.115-1.34-0.114
		c-0.09,0-0.15,0.029-0.15,0.087c0,0.347,1.164,0.953,1.164,1.272c0,0.087-0.219,0.285-0.469,0.502l-0.253,0.22
		c-0.25,0.218-0.47,0.424-0.47,0.523c0,0.058,0.06,0.087,0.21,0.087c0.208,0,0.894,0.028,1.251,0.028
		c0.125,0,0.186,0.08,0.203,0.174l0.005,0.058l0.062,1.157l0.005,0.07c0.015,0.11,0.068,0.191,0.143,0.191
		c0.268,0,0.796-1.188,1.124-1.188c0.107,0,0.32,0.065,0.55,0.143l0.35,0.12c0.229,0.077,0.434,0.142,0.53,0.142
		c0.058,0,0.088-0.03,0.088-0.087c0-0.261-0.626-1.072-0.626-1.273c0-0.26,1.697-0.233,1.697-0.523c0-0.102-0.32-0.22-0.68-0.342
		l-0.31-0.105c-0.36-0.124-0.679-0.249-0.679-0.363c0-0.232,0.744-1.013,0.743-1.216c0-0.058-0.059-0.087-0.118-0.087
		c-0.299,0-1.012,0.436-1.398,0.436C189.207,9.887,188.849,8.353,188.642,8.353L188.642,8.353z	">
<animate  accumulate="none" additive="replace" attributeName="fill" begin="a.begin+5.1s" calcMode="linear" dur="1.5s" fill="remove" restart="always" values="#1F36C7;#FCA6DE;#1F36C7">
			</animate>
	</path>
</g>
</svg>
